Coda Normal-Heavy.ufo
<glyph name="exclam" format="1">
  <advance width="810"/>
  <unicode hex="0021"/>
  <outline>
    <contour>
      <point x="403" y="531" type="curve" smooth="yes"/>
      <point x="425" y="531"/>
      <point x="447" y="550"/>
      <point x="457" y="592" type="curve" smooth="yes"/>
      <point x="514" y="883"/>
      <point x="631" y="1280"/>
      <point x="631" y="1412" type="curve" smooth="yes"/>
      <point x="631" y="1547"/>
      <point x="521" y="1616"/>
      <point x="401" y="1616" type="curve" smooth="yes"/>
      <point x="284" y="1616"/>
      <point x="179" y="1550"/>
      <point x="179" y="1414" type="curve" smooth="yes"/>
      <point x="179" y="1284"/>
      <point x="290" y="887"/>
      <point x="348" y="592" type="curve" smooth="yes"/>
      <point x="358" y="549"/>
      <point x="381" y="531"/>
    </contour>
    <contour>
      <point x="404" y="-35" type="curve" smooth="yes"/>
      <point x="499" y="-35"/>
      <point x="594" y="30"/>
      <point x="594" y="162" type="curve" smooth="yes"/>
      <point x="594" y="293"/>
      <point x="498" y="360"/>
      <point x="402" y="360" type="curve" smooth="yes"/>
      <point x="307" y="360"/>
      <point x="212" y="294"/>
      <point x="212" y="162" type="curve" smooth="yes"/>
      <point x="212" y="31"/>
      <point x="308" y="-35"/>
    </contour>
  </outline>
</glyph>
<glyph name="quotedbl" format="1">
  <advance width="1150"/>
  <unicode hex="0022"/>
  <outline>
    <contour>
      <point x="344" y="855" type="curve"/>
      <point x="361" y="855"/>
      <point x="383" y="870"/>
      <point x="390" y="901" type="curve"/>
      <point x="426" y="1053"/>
      <point x="515" y="1334"/>
      <point x="515" y="1437" type="curve" smooth="yes"/>
      <point x="515" y="1546"/>
      <point x="431" y="1603"/>
      <point x="342" y="1603" type="curve" smooth="yes"/>
      <point x="252" y="1603"/>
      <point x="176" y="1550"/>
      <point x="176" y="1436" type="curve" smooth="yes"/>
      <point x="176" y="1336"/>
      <point x="261" y="1058"/>
      <point x="297" y="903" type="curve"/>
      <point x="306" y="871"/>
      <point x="326" y="855"/>
    </contour>
    <contour>
      <point x="803" y="855" type="curve"/>
      <point x="821" y="855"/>
      <point x="842" y="870"/>
      <point x="849" y="901" type="curve"/>
      <point x="885" y="1053"/>
      <point x="974" y="1334"/>
      <point x="974" y="1437" type="curve" smooth="yes"/>
      <point x="974" y="1546"/>
      <point x="890" y="1603"/>
      <point x="801" y="1603" type="curve" smooth="yes"/>
      <point x="711" y="1603"/>
      <point x="635" y="1550"/>
      <point x="635" y="1436" type="curve" smooth="yes"/>
      <point x="635" y="1336"/>
      <point x="720" y="1058"/>
      <point x="756" y="903" type="curve"/>
      <point x="765" y="871"/>
      <point x="785" y="855"/>
    </contour>
  </outline>
</glyph>
<glyph name="numbersign" format="1">
  <advance width="1717"/>
  <unicode hex="0023"/>
  <outline>
    <contour>
      <point x="195" y="0" type="line"/>
      <point x="632" y="0" type="line"/>
      <point x="694" y="424" type="line"/>
      <point x="918" y="424" type="line"/>
      <point x="855" y="0" type="line"/>
      <point x="1291" y="0" type="line"/>
      <point x="1353" y="425" type="line"/>
      <point x="1541" y="425" type="line"/>
      <point x="1567" y="609" type="line"/>
      <point x="1381" y="609" type="line"/>
      <point x="1436" y="988" type="line"/>
      <point x="1612" y="988" type="line"/>
      <point x="1641" y="1186" type="line"/>
      <point x="1468" y="1186" type="line"/>
      <point x="1523" y="1574" type="line"/>
      <point x="1089" y="1574" type="line"/>
      <point x="1033" y="1186" type="line"/>
      <point x="811" y="1186" type="line"/>
      <point x="866" y="1574" type="line"/>
      <point x="430" y="1574" type="line"/>
      <point x="374" y="1186" type="line"/>
      <point x="197" y="1186" type="line"/>
      <point x="169" y="987" type="line"/>
      <point x="341" y="987" type="line"/>
      <point x="287" y="609" type="line"/>
      <point x="122" y="609" type="line"/>
      <point x="95" y="424" type="line"/>
      <point x="258" y="424" type="line"/>
    </contour>
    <contour>
      <point x="723" y="609" type="line"/>
      <point x="778" y="987" type="line"/>
      <point x="1001" y="987" type="line"/>
      <point x="946" y="609" type="line"/>
    </contour>
  </outline>
</glyph>
<glyph name="dollar" format="1">
  <advance width="1313"/>
  <unicode hex="0024"/>
  <outline>
    <contour>
      <point x="747" y="99" type="line"/>
      <point x="747" y="-216" type="line"/>
      <point x="873" y="-216" type="line"/>
      <point x="873" y="99" type="line"/>
    </contour>
    <contour>
      <point x="747" y="1793" type="line"/>
      <point x="747" y="1478" type="line"/>
      <point x="873" y="1478" type="line"/>
      <point x="873" y="1793" type="line"/>
    </contour>
    <component base="S"/>
  </outline>
</glyph>
<glyph name="percent" format="1">
  <advance width="2840"/>
  <unicode hex="0025"/>
  <outline>
    <contour>
      <point x="635" y="810" type="curve" smooth="yes"/>
      <point x="601" y="810"/>
      <point x="561" y="812"/>
      <point x="561" y="853" type="curve" smooth="yes"/>
      <point x="561" y="861"/>
      <point x="562" y="1307"/>
      <point x="562" y="1318" type="curve" smooth="yes"/>
      <point x="562" y="1364"/>
      <point x="602" y="1364"/>
      <point x="638" y="1364" type="curve" smooth="yes"/>
      <point x="677" y="1364"/>
      <point x="713" y="1363"/>
      <point x="713" y="1317" type="curve" smooth="yes"/>
      <point x="713" y="852" type="line" smooth="yes"/>
      <point x="713" y="813"/>
      <point x="675" y="810"/>
    </contour>
    <contour>
      <point x="636" y="611" type="curve" smooth="yes"/>
      <point x="866" y="611"/>
      <point x="1066" y="634"/>
      <point x="1066" y="923" type="curve" smooth="yes"/>
      <point x="1066" y="941"/>
      <point x="1066" y="1243"/>
      <point x="1065" y="1256" type="curve" smooth="yes"/>
      <point x="1063" y="1537"/>
      <point x="866" y="1564"/>
      <point x="635" y="1564" type="curve" smooth="yes"/>
      <point x="406" y="1564"/>
      <point x="206" y="1537"/>
      <point x="206" y="1254" type="curve" smooth="yes"/>
      <point x="206" y="1236"/>
      <point x="206" y="934"/>
      <point x="207" y="922" type="curve" smooth="yes"/>
      <point x="209" y="628"/>
      <point x="400" y="611"/>
    </contour>
    <contour>
      <point x="2203" y="337" type="curve" smooth="yes"/>
      <point x="2169" y="337"/>
      <point x="2130" y="340"/>
      <point x="2130" y="381" type="curve" smooth="yes"/>
      <point x="2130" y="389"/>
      <point x="2130" y="834"/>
      <point x="2130" y="846" type="curve" smooth="yes"/>
      <point x="2130" y="891"/>
      <point x="2169" y="891"/>
      <point x="2206" y="891" type="curve" smooth="yes"/>
      <point x="2244" y="891"/>
      <point x="2281" y="891"/>
      <point x="2281" y="845" type="curve" smooth="yes"/>
      <point x="2281" y="380" type="line" smooth="yes"/>
      <point x="2281" y="340"/>
      <point x="2242" y="337"/>
    </contour>
    <contour>
      <point x="2204" y="136" type="curve" smooth="yes"/>
      <point x="2433" y="136"/>
      <point x="2635" y="169"/>
      <point x="2635" y="450" type="curve" smooth="yes"/>
      <point x="2635" y="467"/>
      <point x="2635" y="767"/>
      <point x="2634" y="779" type="curve" smooth="yes"/>
      <point x="2631" y="1064"/>
      <point x="2437" y="1091"/>
      <point x="2204" y="1091" type="curve" smooth="yes"/>
      <point x="1973" y="1091"/>
      <point x="1775" y="1064"/>
      <point x="1775" y="780" type="curve" smooth="yes"/>
      <point x="1775" y="762"/>
      <point x="1775" y="462"/>
      <point x="1776" y="450" type="curve" smooth="yes"/>
      <point x="1778" y="163"/>
      <point x="1969" y="136"/>
    </contour>
    <contour>
      <point x="1061" y="-31" type="line"/>
      <point x="1405" y="-31" type="line"/>
      <point x="1782" y="1620" type="line"/>
      <point x="1441" y="1620" type="line"/>
    </contour>
  </outline>
</glyph>
<glyph name="ampersand" format="1">
  <advance width="1690"/>
  <unicode hex="0026"/>
  <outline>
    <contour>
      <point x="788" y="-22" type="curve" smooth="yes"/>
      <point x="1312" y="-22"/>
      <point x="1436" y="91"/>
      <point x="1435" y="499" type="curve" smooth="yes"/>
      <point x="1435" y="733" type="line"/>
      <point x="1583" y="733" type="line"/>
      <point x="1583" y="912" type="line"/>
      <point x="1435" y="912" type="line"/>
      <point x="1435" y="1045" type="line"/>
      <point x="962" y="1045" type="line"/>
      <point x="962" y="912" type="line"/>
      <point x="783" y="912" type="line" smooth="yes"/>
      <point x="765" y="912"/>
      <point x="671" y="921"/>
      <point x="670" y="966" type="curve" smooth="yes"/>
      <point x="670" y="1331" type="line" smooth="yes"/>
      <point x="670" y="1363"/>
      <point x="767" y="1373"/>
      <point x="814" y="1373" type="curve" smooth="yes"/>
      <point x="843" y="1373"/>
      <point x="942" y="1372"/>
      <point x="951" y="1367" type="curve" smooth="yes"/>
      <point x="960" y="1363"/>
      <point x="961" y="1220"/>
      <point x="962" y="1204" type="curve"/>
      <point x="1432" y="1223" type="line"/>
      <point x="1432" y="1271" type="line" smooth="yes"/>
      <point x="1432" y="1525"/>
      <point x="1242" y="1598"/>
      <point x="826" y="1598" type="curve" smooth="yes"/>
      <point x="420" y="1598"/>
      <point x="148" y="1549"/>
      <point x="148" y="1186" type="curve" smooth="yes"/>
      <point x="148" y="971"/>
      <point x="230" y="892"/>
      <point x="294" y="872" type="curve" smooth="yes"/>
      <point x="297" y="868"/>
      <point x="394" y="850"/>
      <point x="398" y="848" type="curve"/>
      <point x="398" y="831" type="line"/>
      <point x="393" y="829"/>
      <point x="298" y="813"/>
      <point x="293" y="810" type="curve" smooth="yes"/>
      <point x="179" y="782"/>
      <point x="136" y="588"/>
      <point x="136" y="456" type="curve" smooth="yes"/>
      <point x="136" y="48"/>
      <point x="389" y="-22"/>
    </contour>
    <contour>
      <point x="808" y="221" type="curve" smooth="yes"/>
      <point x="755" y="221"/>
      <point x="657" y="237"/>
      <point x="657" y="270" type="curve" smooth="yes"/>
      <point x="657" y="315"/>
      <point x="658" y="733"/>
      <point x="687" y="733" type="curve" smooth="yes"/>
      <point x="962" y="733" type="line"/>
      <point x="962" y="265" type="line" smooth="yes"/>
      <point x="962" y="236"/>
      <point x="873" y="221"/>
    </contour>
  </outline>
</glyph>
<glyph name="quotesingle" format="1">
  <advance width="831"/>
  <unicode hex="0027"/>
  <outline>
    <contour>
      <point x="459" y="901" type="curve"/>
      <point x="495" y="1053"/>
      <point x="584" y="1334"/>
      <point x="584" y="1437" type="curve" smooth="yes"/>
      <point x="584" y="1546"/>
      <point x="500" y="1603"/>
      <point x="411" y="1603" type="curve" smooth="yes"/>
      <point x="321" y="1603"/>
      <point x="245" y="1550"/>
      <point x="245" y="1436" type="curve" smooth="yes"/>
      <point x="245" y="1336"/>
      <point x="330" y="1058"/>
      <point x="366" y="903" type="curve"/>
      <point x="375" y="871"/>
      <point x="395" y="855"/>
      <point x="413" y="855" type="curve"/>
      <point x="430" y="855"/>
      <point x="452" y="870"/>
    </contour>
  </outline>
</glyph>
<glyph name="parenleft" format="1">
  <advance width="1146"/>
  <unicode hex="0028"/>
  <outline>
    <contour>
      <point x="916" y="-181" type="curve"/>
      <point x="919" y="70" type="line"/>
      <point x="684" y="78"/>
      <point x="593" y="425"/>
      <point x="593" y="807" type="curve" smooth="yes"/>
      <point x="593" y="1189"/>
      <point x="684" y="1551"/>
      <point x="919" y="1559" type="curve"/>
      <point x="916" y="1810" type="line"/>
      <point x="421" y="1803"/>
      <point x="233" y="1310"/>
      <point x="233" y="807" type="curve" smooth="yes"/>
      <point x="233" y="304"/>
      <point x="421" y="-174"/>
    </contour>
  </outline>
</glyph>
<glyph name="parenright" format="1">
  <advance width="1146"/>
  <unicode hex="0029"/>
  <outline>
    <contour>
      <point x="229" y="-181" type="line"/>
      <point x="723" y="-174"/>
      <point x="912" y="305"/>
      <point x="912" y="807" type="curve"/>
      <point x="912" y="1310"/>
      <point x="723" y="1803"/>
      <point x="229" y="1810" type="curve"/>
      <point x="226" y="1559" type="line"/>
      <point x="461" y="1551"/>
      <point x="552" y="1189"/>
      <point x="552" y="807" type="curve" smooth="yes"/>
      <point x="552" y="425"/>
      <point x="461" y="78"/>
      <point x="226" y="70" type="curve"/>
    </contour>
  </outline>
</glyph>
<glyph name="asterisk" format="1">
  <advance width="1367"/>
  <unicode hex="002A"/>
  <outline>
    <contour>
      <point x="472" y="459" type="curve" smooth="yes"/>
      <point x="588" y="459"/>
      <point x="610" y="622"/>
      <point x="679" y="870" type="curve"/>
      <point x="716" y="733"/>
      <point x="753" y="576"/>
      <point x="793" y="513" type="curve" smooth="yes"/>
      <point x="867" y="395"/>
      <point x="1038" y="486"/>
      <point x="1038" y="598" type="curve" smooth="yes"/>
      <point x="1038" y="666"/>
      <point x="919" y="774"/>
      <point x="772" y="919" type="curve"/>
      <point x="897" y="884"/>
      <point x="1049" y="837"/>
      <point x="1120" y="837" type="curve" smooth="yes"/>
      <point x="1202" y="837"/>
      <point x="1241" y="900"/>
      <point x="1241" y="971" type="curve" smooth="yes"/>
      <point x="1241" y="1043"/>
      <point x="1200" y="1109"/>
      <point x="1121" y="1109" type="curve" smooth="yes"/>
      <point x="1048" y="1109"/>
      <point x="916" y="1065"/>
      <point x="772" y="1024" type="curve"/>
      <point x="930" y="1181"/>
      <point x="1036" y="1280"/>
      <point x="1036" y="1351" type="curve" smooth="yes"/>
      <point x="1036" y="1457"/>
      <point x="868" y="1534"/>
      <point x="804" y="1439" type="curve" smooth="yes"/>
      <point x="747" y="1388"/>
      <point x="711" y="1188"/>
      <point x="679" y="1068" type="curve"/>
      <point x="642" y="1218"/>
      <point x="603" y="1388"/>
      <point x="554" y="1439" type="curve" smooth="yes"/>
      <point x="485" y="1536"/>
      <point x="320" y="1456"/>
      <point x="320" y="1350" type="curve" smooth="yes"/>
      <point x="320" y="1281"/>
      <point x="434" y="1175"/>
      <point x="586" y="1024" type="curve"/>
      <point x="464" y="1058"/>
      <point x="310" y="1109"/>
      <point x="238" y="1109" type="curve" smooth="yes"/>
      <point x="158" y="1109"/>
      <point x="117" y="1043"/>
      <point x="117" y="971" type="curve" smooth="yes"/>
      <point x="117" y="900"/>
      <point x="156" y="837"/>
      <point x="237" y="837" type="curve" smooth="yes"/>
      <point x="307" y="837"/>
      <point x="452" y="881"/>
      <point x="586" y="919" type="curve"/>
      <point x="444" y="781"/>
      <point x="322" y="673"/>
      <point x="322" y="594" type="curve" smooth="yes"/>
      <point x="322" y="524"/>
      <point x="399" y="459"/>
    </contour>
  </outline>
</glyph>
<glyph name="plus" format="1">
  <advance width="1420"/>
  <unicode hex="002B"/>
  <outline>
    <contour>
      <point x="535" y="125" type="line"/>
      <point x="882" y="125" type="line"/>
      <point x="882" y="499" type="line"/>
      <point x="1235" y="499" type="line"/>
      <point x="1235" y="800" type="line"/>
      <point x="882" y="800" type="line"/>
      <point x="882" y="1177" type="line"/>
      <point x="535" y="1177" type="line"/>
      <point x="535" y="800" type="line"/>
      <point x="182" y="800" type="line"/>
      <point x="182" y="499" type="line"/>
      <point x="535" y="499" type="line"/>
    </contour>
  </outline>
</glyph>
<glyph name="comma" format="1">
  <advance width="904"/>
  <unicode hex="002C"/>
  <outline>
    <contour>
      <point x="313" y="-233" type="curve" smooth="yes"/>
      <point x="518" y="-233"/>
      <point x="642" y="-20"/>
      <point x="642" y="161" type="curve" smooth="yes"/>
      <point x="642" y="283"/>
      <point x="579" y="389"/>
      <point x="446" y="389" type="curve" smooth="yes"/>
      <point x="346" y="389"/>
      <point x="253" y="322"/>
      <point x="253" y="198" type="curve" smooth="yes"/>
      <point x="253" y="78"/>
      <point x="334" y="8"/>
      <point x="425" y="0" type="curve"/>
      <point x="420" y="-79"/>
      <point x="348" y="-129"/>
      <point x="266" y="-129" type="curve"/>
      <point x="266" y="-230" type="line"/>
      <point x="280" y="-232"/>
      <point x="296" y="-233"/>
    </contour>
  </outline>
</glyph>
<glyph name="hyphen" format="1">
  <advance width="1237"/>
  <unicode hex="002D"/>
  <outline>
    <contour>
      <point x="640" y="643" type="move" name="_mid"/>
    </contour>
    <contour>
      <point x="213" y="512" type="line"/>
      <point x="1020" y="512" type="line"/>
      <point x="1020" y="775" type="line"/>
      <point x="213" y="775" type="line"/>
    </contour>
  </outline>
</glyph>
<glyph name="period" format="1">
  <advance width="892"/>
  <unicode hex="002E"/>
  <outline>
    <contour>
      <point x="441" y="-37" type="curve" smooth="yes"/>
      <point x="537" y="-37"/>
      <point x="632" y="28"/>
      <point x="632" y="160" type="curve" smooth="yes"/>
      <point x="632" y="291"/>
      <point x="536" y="358"/>
      <point x="440" y="358" type="curve" smooth="yes"/>
      <point x="345" y="358"/>
      <point x="249" y="292"/>
      <point x="249" y="160" type="curve" smooth="yes"/>
      <point x="249" y="29"/>
      <point x="345" y="-37"/>
    </contour>
  </outline>
</glyph>
<glyph name="slash" format="1">
  <advance width="1126"/>
  <unicode hex="002F"/>
  <outline>
    <contour>
      <point x="203" y="-5" type="line"/>
      <point x="584" y="-5" type="line"/>
      <point x="940" y="1579" type="line"/>
      <point x="558" y="1579" type="line"/>
    </contour>
  </outline>
</glyph>
<glyph name="zero" format="1">
  <advance width="1509"/>
  <unicode hex="0030"/>
  <outline>
    <contour>
      <point x="755" y="238" type="curve" smooth="yes"/>
      <point x="734" y="238"/>
      <point x="650" y="243"/>
      <point x="649" y="255" type="curve" smooth="yes"/>
      <point x="648" y="269"/>
      <point x="648" y="775"/>
      <point x="648" y="791" type="curve" smooth="yes"/>
      <point x="648" y="806"/>
      <point x="649" y="1313"/>
      <point x="649" y="1327" type="curve" smooth="yes"/>
      <point x="650" y="1340"/>
      <point x="735" y="1345"/>
      <point x="755" y="1345" type="curve" smooth="yes"/>
      <point x="774" y="1345"/>
      <point x="859" y="1340"/>
      <point x="860" y="1327" type="curve" smooth="yes"/>
      <point x="861" y="1313"/>
      <point x="861" y="806"/>
      <point x="861" y="791" type="curve" smooth="yes"/>
      <point x="861" y="775"/>
      <point x="861" y="269"/>
      <point x="860" y="255" type="curve" smooth="yes"/>
      <point x="859" y="243"/>
      <point x="775" y="238"/>
    </contour>
    <contour>
      <point x="757" y="-22" type="curve" smooth="yes"/>
      <point x="1088" y="-22"/>
      <point x="1387" y="15"/>
      <point x="1387" y="410" type="curve" smooth="yes"/>
      <point x="1387" y="1187" type="line" smooth="yes"/>
      <point x="1387" y="1559"/>
      <point x="1087" y="1606"/>
      <point x="756" y="1606" type="curve" smooth="yes"/>
      <point x="432" y="1606"/>
      <point x="122" y="1564"/>
      <point x="122" y="1181" type="curve" smooth="yes"/>
      <point x="122" y="403" type="line" smooth="yes"/>
      <point x="122" y="23"/>
      <point x="425" y="-22"/>
    </contour>
  </outline>
</glyph>
<glyph name="one" format="1">
  <advance width="1144"/>
  <unicode hex="0031"/>
  <outline>
    <contour>
      <point x="364" y="0" type="line"/>
      <point x="885" y="0" type="line"/>
      <point x="885" y="1574" type="line"/>
      <point x="471" y="1574" type="line"/>
      <point x="393" y="1512"/>
      <point x="280" y="1478"/>
      <point x="150" y="1478" type="curve"/>
      <point x="150" y="1283" type="line"/>
      <point x="364" y="1283" type="line"/>
    </contour>
  </outline>
</glyph>
<glyph name="two" format="1">
  <advance width="1484"/>
  <unicode hex="0032"/>
  <outline>
    <contour>
      <point x="170" y="1" type="line"/>
      <point x="1301" y="1" type="line"/>
      <point x="1301" y="270" type="line"/>
      <point x="647" y="270" type="line"/>
      <point x="647" y="397"/>
      <point x="754" y="459"/>
      <point x="881" y="526" type="curve" smooth="yes"/>
      <point x="1112" y="645"/>
      <point x="1365" y="758"/>
      <point x="1365" y="1107" type="curve" smooth="yes"/>
      <point x="1365" y="1472"/>
      <point x="1172" y="1596"/>
      <point x="769" y="1596" type="curve" smooth="yes"/>
      <point x="410" y="1596"/>
      <point x="168" y="1501"/>
      <point x="168" y="1125" type="curve" smooth="yes"/>
      <point x="170" y="1071" type="line"/>
      <point x="644" y="1064" type="line"/>
      <point x="645" y="1086"/>
      <point x="645" y="1332"/>
      <point x="654" y="1339" type="curve" smooth="yes"/>
      <point x="663" y="1346"/>
      <point x="742" y="1348"/>
      <point x="763" y="1348" type="curve" smooth="yes"/>
      <point x="786" y="1348"/>
      <point x="860" y="1344"/>
      <point x="866" y="1335" type="curve" smooth="yes"/>
      <point x="872" y="1327"/>
      <point x="875" y="1095"/>
      <point x="875" y="1076" type="curve" smooth="yes"/>
      <point x="875" y="942"/>
      <point x="761" y="898"/>
      <point x="635" y="829" type="curve" smooth="yes"/>
      <point x="366" y="698"/>
      <point x="170" y="558"/>
      <point x="170" y="187" type="curve" smooth="yes"/>
    </contour>
  </outline>
</glyph>
<glyph name="three" format="1">
  <advance width="1484"/>
  <unicode hex="0033"/>
  <outline>
    <contour>
      <point x="745" y="-22" type="curve" smooth="yes"/>
      <point x="1149" y="-22"/>
      <point x="1364" y="114"/>
      <point x="1364" y="446" type="curve" smooth="yes"/>
      <point x="1364" y="651"/>
      <point x="1293" y="764"/>
      <point x="1168" y="810" type="curve"/>
      <point x="1279" y="845"/>
      <point x="1361" y="925"/>
      <point x="1361" y="1152" type="curve" smooth="yes"/>
      <point x="1361" y="1466"/>
      <point x="1159" y="1596"/>
      <point x="750" y="1596" type="curve" smooth="yes"/>
      <point x="337" y="1596"/>
      <point x="145" y="1476"/>
      <point x="140" y="1128" type="curve" smooth="yes"/>
      <point x="139" y="1067" type="line"/>
      <point x="617" y="1049" type="line"/>
      <point x="617" y="1073"/>
      <point x="619" y="1339"/>
      <point x="622" y="1342" type="curve" smooth="yes"/>
      <point x="629" y="1350"/>
      <point x="722" y="1351"/>
      <point x="750" y="1351" type="curve" smooth="yes"/>
      <point x="798" y="1351"/>
      <point x="872" y="1342"/>
      <point x="872" y="1305" type="curve" smooth="yes"/>
      <point x="872" y="1264"/>
      <point x="871" y="913"/>
      <point x="860" y="913" type="curve" smooth="yes"/>
      <point x="582" y="913" type="line"/>
      <point x="583" y="705" type="line"/>
      <point x="862" y="705" type="line" smooth="yes"/>
      <point x="871" y="705"/>
      <point x="873" y="329"/>
      <point x="873" y="285" type="curve" smooth="yes"/>
      <point x="873" y="237"/>
      <point x="801" y="225"/>
      <point x="744" y="225" type="curve" smooth="yes"/>
      <point x="715" y="225"/>
      <point x="626" y="226"/>
      <point x="619" y="235" type="curve" smooth="yes"/>
      <point x="614" y="242"/>
      <point x="614" y="541"/>
      <point x="614" y="560" type="curve"/>
      <point x="139" y="534" type="line"/>
      <point x="139" y="466" type="line" smooth="yes"/>
      <point x="138" y="117"/>
      <point x="299" y="-22"/>
    </contour>
  </outline>
</glyph>
<glyph name="four" format="1">
  <advance width="1484"/>
  <unicode hex="0034"/>
  <outline>
    <contour>
      <point x="429" y="1574" type="line"/>
      <point x="121" y="633" type="line"/>
      <point x="121" y="270" type="line"/>
      <point x="891" y="270" type="line"/>
      <point x="891" y="0" type="line"/>
      <point x="1338" y="0" type="line"/>
      <point x="1338" y="954" type="line"/>
      <point x="891" y="954" type="line"/>
      <point x="891" y="587" type="line"/>
      <point x="621" y="587" type="line"/>
      <point x="640" y="668" type="line"/>
      <point x="926" y="1574" type="line"/>
    </contour>
  </outline>
</glyph>
<glyph name="five" format="1">
  <advance width="1484"/>
  <unicode hex="0035"/>
  <outline>
    <contour>
      <point x="776" y="-22" type="curve" smooth="yes"/>
      <point x="1230" y="-22"/>
      <point x="1397" y="95"/>
      <point x="1397" y="534" type="curve" smooth="yes"/>
      <point x="1397" y="890"/>
      <point x="1286" y="1074"/>
      <point x="949" y="1074" type="curve" smooth="yes"/>
      <point x="777" y="1074"/>
      <point x="692" y="1027"/>
      <point x="637" y="967" type="curve"/>
      <point x="644" y="1306" type="line"/>
      <point x="1271" y="1306" type="line"/>
      <point x="1271" y="1575" type="line"/>
      <point x="228" y="1575" type="line"/>
      <point x="186" y="656" type="line"/>
      <point x="647" y="654" type="line"/>
      <point x="649" y="666"/>
      <point x="654" y="819"/>
      <point x="661" y="824" type="curve" smooth="yes"/>
      <point x="671" y="830"/>
      <point x="757" y="830"/>
      <point x="775" y="830" type="curve" smooth="yes"/>
      <point x="834" y="830"/>
      <point x="907" y="821"/>
      <point x="907" y="775" type="curve" smooth="yes"/>
      <point x="907" y="764"/>
      <point x="908" y="287"/>
      <point x="908" y="278" type="curve" smooth="yes"/>
      <point x="908" y="248"/>
      <point x="829" y="228"/>
      <point x="770" y="228" type="curve" smooth="yes"/>
      <point x="727" y="228"/>
      <point x="645" y="233"/>
      <point x="642" y="262" type="curve" smooth="yes"/>
      <point x="641" y="266"/>
      <point x="640" y="448"/>
      <point x="640" y="453" type="curve"/>
      <point x="170" y="449" type="line"/>
      <point x="170" y="445"/>
      <point x="169" y="380"/>
      <point x="169" y="375" type="curve" smooth="yes"/>
      <point x="165" y="79"/>
      <point x="337" y="-22"/>
    </contour>
  </outline>
</glyph>
<glyph name="six" format="1">
  <advance width="1508"/>
  <unicode hex="0036"/>
  <outline>
    <contour>
      <point x="768" y="-22" type="curve" smooth="yes"/>
      <point x="1222" y="-19"/>
      <point x="1413" y="79"/>
      <point x="1413" y="519" type="curve" smooth="yes"/>
      <point x="1413" y="921"/>
      <point x="1256" y="1043"/>
      <point x="805" y="1043" type="curve" smooth="yes"/>
      <point x="786" y="1043"/>
      <point x="666" y="1039"/>
      <point x="661" y="1032" type="curve"/>
      <point x="661" y="1334" type="line" smooth="yes"/>
      <point x="661" y="1351"/>
      <point x="741" y="1356"/>
      <point x="765" y="1356" type="curve" smooth="yes"/>
      <point x="777" y="1356"/>
      <point x="861" y="1356"/>
      <point x="864" y="1353" type="curve" smooth="yes"/>
      <point x="867" y="1350"/>
      <point x="867" y="1153"/>
      <point x="867" y="1143" type="curve"/>
      <point x="1362" y="1162" type="line"/>
      <point x="1363" y="1228" type="line" smooth="yes"/>
      <point x="1368" y="1583"/>
      <point x="1074" y="1606"/>
      <point x="763" y="1606" type="curve" smooth="yes"/>
      <point x="305" y="1606"/>
      <point x="145" y="1467"/>
      <point x="145" y="1017" type="curve" smooth="yes"/>
      <point x="145" y="508" type="line" smooth="yes"/>
      <point x="145" y="108"/>
      <point x="327" y="-22"/>
    </contour>
    <contour>
      <point x="772" y="239" type="curve" smooth="yes"/>
      <point x="742" y="239"/>
      <point x="660" y="247"/>
      <point x="660" y="264" type="curve" smooth="yes"/>
      <point x="660" y="757" type="line" smooth="yes"/>
      <point x="660" y="776"/>
      <point x="740" y="784"/>
      <point x="772" y="784" type="curve" smooth="yes"/>
      <point x="802" y="784"/>
      <point x="885" y="780"/>
      <point x="885" y="758" type="curve" smooth="yes"/>
      <point x="885" y="261" type="line" smooth="yes"/>
      <point x="885" y="245"/>
      <point x="801" y="239"/>
    </contour>
  </outline>
</glyph>
<glyph name="seven" format="1">
  <advance width="1484"/>
  <unicode hex="0037"/>
  <outline>
    <contour>
      <point x="387" y="0" type="line"/>
      <point x="918" y="0" type="line"/>
      <point x="1345" y="1304" type="line"/>
      <point x="1345" y="1574" type="line"/>
      <point x="168" y="1574" type="line"/>
      <point x="168" y="1308" type="line"/>
      <point x="813" y="1308" type="line"/>
    </contour>
  </outline>
</glyph>
<glyph name="eight" format="1">
  <advance width="1484"/>
  <unicode hex="0038"/>
  <outline>
    <contour>
      <point x="740" y="-22" type="curve" smooth="yes"/>
      <point x="1184" y="-22"/>
      <point x="1395" y="54"/>
      <point x="1395" y="409" type="curve" smooth="yes"/>
      <point x="1395" y="708"/>
      <point x="1322" y="771"/>
      <point x="1159" y="843" type="curve"/>
      <point x="1277" y="892"/>
      <point x="1308" y="1009"/>
      <point x="1308" y="1192" type="curve" smooth="yes"/>
      <point x="1308" y="1501"/>
      <point x="1170" y="1596"/>
      <point x="739" y="1596" type="curve" smooth="yes"/>
      <point x="301" y="1596"/>
      <point x="165" y="1501"/>
      <point x="165" y="1192" type="curve" smooth="yes"/>
      <point x="165" y="1009"/>
      <point x="195" y="892"/>
      <point x="311" y="843" type="curve"/>
      <point x="149" y="771"/>
      <point x="78" y="708"/>
      <point x="78" y="409" type="curve" smooth="yes"/>
      <point x="78" y="53"/>
      <point x="288" y="-22"/>
    </contour>
    <contour>
      <point x="739" y="224" type="curve" smooth="yes"/>
      <point x="552" y="224"/>
      <point x="532" y="280"/>
      <point x="532" y="411" type="curve" smooth="yes"/>
      <point x="532" y="490" type="line" smooth="yes"/>
      <point x="532" y="699"/>
      <point x="595" y="701"/>
      <point x="740" y="701" type="curve" smooth="yes"/>
      <point x="878" y="701"/>
      <point x="942" y="698"/>
      <point x="942" y="490" type="curve" smooth="yes"/>
      <point x="942" y="411" type="line" smooth="yes"/>
      <point x="942" y="280"/>
      <point x="921" y="224"/>
    </contour>
    <contour>
      <point x="660" y="904" type="line"/>
      <point x="592" y="963"/>
      <point x="584" y="1039"/>
      <point x="584" y="1178" type="curve" smooth="yes"/>
      <point x="584" y="1333"/>
      <point x="628" y="1348"/>
      <point x="740" y="1348" type="curve" smooth="yes"/>
      <point x="845" y="1348"/>
      <point x="889" y="1332"/>
      <point x="889" y="1178" type="curve" smooth="yes"/>
      <point x="889" y="1028"/>
      <point x="873" y="963"/>
      <point x="806" y="904" type="curve"/>
    </contour>
  </outline>
</glyph>
<glyph name="nine" format="1">
  <advance width="1484"/>
  <unicode hex="0039"/>
  <outline>
    <contour>
      <point x="758" y="-22" type="curve" smooth="yes"/>
      <point x="1197" y="-22"/>
      <point x="1362" y="112"/>
      <point x="1362" y="553" type="curve" smooth="yes"/>
      <point x="1362" y="1054" type="line" smooth="yes"/>
      <point x="1362" y="1478"/>
      <point x="1230" y="1596"/>
      <point x="741" y="1596" type="curve" smooth="yes"/>
      <point x="347" y="1596"/>
      <point x="124" y="1513"/>
      <point x="124" y="1058" type="curve" smooth="yes"/>
      <point x="124" y="673"/>
      <point x="239" y="514"/>
      <point x="629" y="514" type="curve" smooth="yes"/>
      <point x="667" y="514"/>
      <point x="864" y="521"/>
      <point x="875" y="535" type="curve"/>
      <point x="875" y="261" type="line" smooth="yes"/>
      <point x="874" y="228"/>
      <point x="799" y="218"/>
      <point x="751" y="218" type="curve" smooth="yes"/>
      <point x="728" y="218"/>
      <point x="641" y="218"/>
      <point x="635" y="224" type="curve" smooth="yes"/>
      <point x="629" y="230"/>
      <point x="629" y="385"/>
      <point x="629" y="405" type="curve"/>
      <point x="170" y="387" type="line"/>
      <point x="169" y="318" type="line" smooth="yes"/>
      <point x="160" y="15"/>
      <point x="468" y="-22"/>
    </contour>
    <contour>
      <point x="742" y="762" type="curve" smooth="yes"/>
      <point x="681" y="762"/>
      <point x="608" y="771"/>
      <point x="608" y="815" type="curve" smooth="yes"/>
      <point x="608" y="1309" type="line" smooth="yes"/>
      <point x="608" y="1340"/>
      <point x="683" y="1351"/>
      <point x="742" y="1351" type="curve" smooth="yes"/>
      <point x="801" y="1351"/>
      <point x="871" y="1335"/>
      <point x="872" y="1302" type="curve" smooth="yes"/>
      <point x="872" y="816" type="line" smooth="yes"/>
      <point x="873" y="780"/>
      <point x="806" y="762"/>
    </contour>
  </outline>
</glyph>
<glyph name="colon" format="1">
  <advance width="899"/>
  <unicode hex="003A"/>
  <outline>
    <contour>
      <point x="444" y="118" type="curve" smooth="yes"/>
      <point x="540" y="118"/>
      <point x="636" y="184"/>
      <point x="636" y="316" type="curve" smooth="yes"/>
      <point x="636" y="448"/>
      <point x="540" y="515"/>
      <point x="444" y="515" type="curve" smooth="yes"/>
      <point x="349" y="515"/>
      <point x="253" y="449"/>
      <point x="253" y="316" type="curve" smooth="yes"/>
      <point x="253" y="184"/>
      <point x="349" y="118"/>
    </contour>
    <contour>
      <point x="445" y="923" type="curve" smooth="yes"/>
      <point x="540" y="923"/>
      <point x="636" y="990"/>
      <point x="636" y="1122" type="curve" smooth="yes"/>
      <point x="636" y="1254"/>
      <point x="540" y="1321"/>
      <point x="444" y="1321" type="curve" smooth="yes"/>
      <point x="349" y="1321"/>
      <point x="253" y="1255"/>
      <point x="253" y="1122" type="curve" smooth="yes"/>
      <point x="253" y="990"/>
      <point x="349" y="923"/>
    </contour>
  </outline>
</glyph>
<glyph name="semicolon" format="1">
  <advance width="952"/>
  <unicode hex="003B"/>
  <outline>
    <contour>
      <point x="341" y="-116" type="curve" smooth="yes"/>
      <point x="545" y="-116"/>
      <point x="670" y="97"/>
      <point x="670" y="278" type="curve" smooth="yes"/>
      <point x="670" y="400"/>
      <point x="606" y="506"/>
      <point x="473" y="506" type="curve" smooth="yes"/>
      <point x="373" y="506"/>
      <point x="281" y="439"/>
      <point x="281" y="315" type="curve" smooth="yes"/>
      <point x="281" y="195"/>
      <point x="362" y="125"/>
      <point x="453" y="117" type="curve"/>
      <point x="448" y="38"/>
      <point x="375" y="-11"/>
      <point x="294" y="-12" type="curve"/>
      <point x="294" y="-113" type="line"/>
      <point x="308" y="-115"/>
      <point x="324" y="-116"/>
    </contour>
    <contour>
      <point x="473" y="923" type="curve" smooth="yes"/>
      <point x="572" y="923"/>
      <point x="664" y="993"/>
      <point x="664" y="1122" type="curve" smooth="yes"/>
      <point x="664" y="1251"/>
      <point x="571" y="1321"/>
      <point x="473" y="1321" type="curve" smooth="yes"/>
      <point x="373" y="1321"/>
      <point x="282" y="1251"/>
      <point x="282" y="1122" type="curve" smooth="yes"/>
      <point x="282" y="993"/>
      <point x="374" y="923"/>
    </contour>
  </outline>
</glyph>
<glyph name="less" format="1">
  <advance width="1296"/>
  <unicode hex="003C"/>
  <outline>
    <contour>
      <point x="1057" y="47" type="line"/>
      <point x="1057" y="496" type="line"/>
      <point x="473" y="733" type="line"/>
      <point x="1057" y="963" type="line"/>
      <point x="1057" y="1414" type="line"/>
      <point x="217" y="989" type="line"/>
      <point x="217" y="469" type="line"/>
    </contour>
  </outline>
</glyph>
<glyph name="equal" format="1">
  <advance width="1273"/>
  <unicode hex="003D"/>
  <outline>
    <contour>
      <point x="216" y="63" type="line"/>
      <point x="1098" y="63" type="line"/>
      <point x="1098" y="369" type="line"/>
      <point x="216" y="369" type="line"/>
    </contour>
    <contour>
      <point x="216" y="587" type="line"/>
      <point x="1098" y="587" type="line"/>
      <point x="1098" y="894" type="line"/>
      <point x="216" y="894" type="line"/>
    </contour>
  </outline>
</glyph>
<glyph name="greater" format="1">
  <advance width="1296"/>
  <unicode hex="003E"/>
  <outline>
    <contour>
      <point x="246" y="47" type="line"/>
      <point x="1087" y="469" type="line"/>
      <point x="1087" y="989" type="line"/>
      <point x="246" y="1414" type="line"/>
      <point x="246" y="963" type="line"/>
      <point x="831" y="733" type="line"/>
      <point x="246" y="495" type="line"/>
    </contour>
  </outline>
</glyph>
<glyph name="question" format="1">
  <advance width="1039"/>
  <unicode hex="003F"/>
  <outline>
    <contour>
      <point x="434" y="503" type="curve" smooth="yes"/>
      <point x="462" y="503"/>
      <point x="491" y="518"/>
      <point x="495" y="559" type="curve"/>
      <point x="506" y="652"/>
      <point x="546" y="729"/>
      <point x="600" y="799" type="curve" smooth="yes"/>
      <point x="733" y="974"/>
      <point x="941" y="1086"/>
      <point x="941" y="1300" type="curve" smooth="yes"/>
      <point x="941" y="1468"/>
      <point x="839" y="1621"/>
      <point x="513" y="1621" type="curve" smooth="yes"/>
      <point x="419" y="1621"/>
      <point x="301" y="1600"/>
      <point x="154" y="1552" type="curve"/>
      <point x="188" y="1223" type="line"/>
      <point x="274" y="1257"/>
      <point x="338" y="1271"/>
      <point x="386" y="1271" type="curve" smooth="yes"/>
      <point x="490" y="1271"/>
      <point x="532" y="1217"/>
      <point x="532" y="1150" type="curve" smooth="yes"/>
      <point x="532" y="1086"/>
      <point x="488" y="990"/>
      <point x="447" y="890" type="curve" smooth="yes"/>
      <point x="407" y="795"/>
      <point x="374" y="696"/>
      <point x="374" y="572" type="curve"/>
      <point x="374" y="529"/>
      <point x="394" y="503"/>
    </contour>
    <contour>
      <point x="435" y="-38" type="curve" smooth="yes"/>
      <point x="534" y="-38"/>
      <point x="633" y="30"/>
      <point x="633" y="166" type="curve" smooth="yes"/>
      <point x="633" y="301"/>
      <point x="534" y="369"/>
      <point x="435" y="369" type="curve" smooth="yes"/>
      <point x="336" y="369"/>
      <point x="238" y="302"/>
      <point x="238" y="166" type="curve" smooth="yes"/>
      <point x="238" y="30"/>
      <point x="337" y="-38"/>
    </contour>
  </outline>
</glyph>
<glyph name="at" format="1">
  <advance width="2288"/>
  <unicode hex="0040"/>
  <outline>
    <contour>
      <point x="1201" y="-361" type="curve" smooth="yes"/>
      <point x="1414" y="-361"/>
      <point x="1667" y="-314"/>
      <point x="1807" y="-231" type="curve"/>
      <point x="1744" y="-42" type="line"/>
      <point x="1553" y="-121"/>
      <point x="1354" y="-149"/>
      <point x="1251" y="-149" type="curve" smooth="yes"/>
      <point x="636" y="-149"/>
      <point x="462" y="73"/>
      <point x="462" y="685" type="curve" smooth="yes"/>
      <point x="462" y="1198"/>
      <point x="621" y="1467"/>
      <point x="1199" y="1467" type="curve" smooth="yes"/>
      <point x="1659" y="1467"/>
      <point x="1844" y="1310"/>
      <point x="1844" y="799" type="curve" smooth="yes"/>
      <point x="1844" y="735"/>
      <point x="1827" y="327"/>
      <point x="1815" y="318" type="curve"/>
      <point x="1808" y="314"/>
      <point x="1659" y="313"/>
      <point x="1640" y="313" type="curve"/>
      <point x="1640" y="852" type="line" smooth="yes"/>
      <point x="1640" y="1137"/>
      <point x="1527" y="1237"/>
      <point x="1193" y="1237" type="curve" smooth="yes"/>
      <point x="919" y="1237"/>
      <point x="730" y="1197"/>
      <point x="733" y="960" type="curve" smooth="yes"/>
      <point x="733" y="955"/>
      <point x="734" y="894"/>
      <point x="736" y="887" type="curve"/>
      <point x="1124" y="887" type="line"/>
      <point x="1123" y="897"/>
      <point x="1121" y="1017"/>
      <point x="1126" y="1023" type="curve" smooth="yes"/>
      <point x="1132" y="1030"/>
      <point x="1170" y="1032"/>
      <point x="1193" y="1032" type="curve"/>
      <point x="1229" y="1032"/>
      <point x="1262" y="1028"/>
      <point x="1262" y="1003" type="curve" smooth="yes"/>
      <point x="1262" y="772" type="line"/>
      <point x="1232" y="778"/>
      <point x="1039" y="778"/>
      <point x="1018" y="778" type="curve" smooth="yes"/>
      <point x="748" y="776"/>
      <point x="679" y="614"/>
      <point x="685" y="411" type="curve" smooth="yes"/>
      <point x="690" y="198"/>
      <point x="803" y="116"/>
      <point x="1029" y="116" type="curve" smooth="yes"/>
      <point x="1170" y="116"/>
      <point x="1245" y="177"/>
      <point x="1295" y="251" type="curve"/>
      <point x="1346" y="154"/>
      <point x="1458" y="104"/>
      <point x="1607" y="101" type="curve" smooth="yes"/>
      <point x="2068" y="101"/>
      <point x="2159" y="386"/>
      <point x="2159" y="834" type="curve" smooth="yes"/>
      <point x="2159" y="1466"/>
      <point x="1877" y="1698"/>
      <point x="1192" y="1698" type="curve" smooth="yes"/>
      <point x="503" y="1698"/>
      <point x="156" y="1446"/>
      <point x="156" y="675" type="curve" smooth="yes"/>
      <point x="156" y="-144"/>
      <point x="589" y="-361"/>
    </contour>
    <contour>
      <point x="1178" y="316" type="curve" smooth="yes"/>
      <point x="1132" y="316"/>
      <point x="1089" y="324"/>
      <point x="1089" y="348" type="curve" smooth="yes"/>
      <point x="1089" y="390"/>
      <point x="1098" y="640"/>
      <point x="1130" y="640" type="curve" smooth="yes"/>
      <point x="1262" y="640" type="line"/>
      <point x="1261" y="360" type="line" smooth="yes"/>
      <point x="1261" y="337"/>
      <point x="1210" y="316"/>
    </contour>
  </outline>
</glyph>
<glyph name="A" format="1">
  <advance width="1617"/>
  <unicode hex="0041"/>
  <outline>
    <contour>
      <point x="809" y="1574" type="move" name="top"/>
    </contour>
    <contour>
      <point x="1243" y="0" type="move" name="ogonek"/>
    </contour>
    <contour>
      <point x="809" y="0" type="move" name="bot"/>
    </contour>
    <contour>
      <point x="418" y="1574" type="line"/>
      <point x="92" y="0" type="line"/>
      <point x="599" y="0" type="line"/>
      <point x="666" y="369" type="line"/>
      <point x="949" y="369" type="line"/>
      <point x="1015" y="0" type="line"/>
      <point x="1526" y="0" type="line"/>
      <point x="1198" y="1574" type="line"/>
    </contour>
    <contour>
      <point x="926" y="566" type="line"/>
      <point x="689" y="566" type="line"/>
      <point x="798" y="1296" type="line"/>
      <point x="813" y="1296" type="line"/>
    </contour>
  </outline>
</glyph>
<glyph name="B" format="1">
  <advance width="1645"/>
  <unicode hex="0042"/>
  <outline>
    <contour>
      <point x="833" y="1585" type="move" name="top"/>
    </contour>
    <contour>
      <point x="183" y="0" type="line"/>
      <point x="995" y="0" type="line" smooth="yes"/>
      <point x="1388" y="0"/>
      <point x="1535" y="84"/>
      <point x="1535" y="457" type="curve" smooth="yes"/>
      <point x="1535" y="645"/>
      <point x="1469" y="820"/>
      <point x="1167" y="854" type="curve"/>
      <point x="1167" y="866" type="line"/>
      <point x="1422" y="895"/>
      <point x="1493" y="1007"/>
      <point x="1493" y="1208" type="curve"/>
      <point x="1493" y="1241" type="line" smooth="yes"/>
      <point x="1482" y="1542"/>
      <point x="1258" y="1585"/>
      <point x="1002" y="1585" type="curve" smooth="yes"/>
      <point x="183" y="1585" type="line"/>
    </contour>
    <contour>
      <point x="747" y="227" type="line"/>
      <point x="747" y="766" type="line"/>
      <point x="842" y="766" type="line" smooth="yes"/>
      <point x="885" y="766"/>
      <point x="967" y="763"/>
      <point x="968" y="741" type="curve" smooth="yes"/>
      <point x="968" y="246" type="line" smooth="yes"/>
      <point x="968" y="231"/>
      <point x="880" y="227"/>
      <point x="857" y="227" type="curve" smooth="yes"/>
    </contour>
    <contour>
      <point x="747" y="942" type="line"/>
      <point x="747" y="1356" type="line"/>
      <point x="849" y="1356" type="line" smooth="yes"/>
      <point x="882" y="1356"/>
      <point x="962" y="1355"/>
      <point x="962" y="1338" type="curve" smooth="yes"/>
      <point x="962" y="955" type="line" smooth="yes"/>
      <point x="962" y="946"/>
      <point x="878" y="942"/>
      <point x="842" y="942" type="curve" smooth="yes"/>
    </contour>
  </outline>
</glyph>
<glyph name="C" format="1">
  <advance width="1671"/>
  <unicode hex="0043"/>
  <outline>
    <contour>
      <point x="839" y="1585" type="move" name="top"/>
    </contour>
    <contour>
      <point x="839" y="0" type="move" name="bot"/>
    </contour>
    <contour>
      <point x="169" y="1193" type="curve" smooth="yes"/>
      <point x="169" y="1184"/>
      <point x="168" y="806"/>
      <point x="168" y="793" type="curve" smooth="yes"/>
      <point x="168" y="781"/>
      <point x="168" y="402"/>
      <point x="169" y="393" type="curve" smooth="yes"/>
      <point x="172" y="18"/>
      <point x="563" y="-22"/>
      <point x="858" y="-22" type="curve" smooth="yes"/>
      <point x="1164" y="-22"/>
      <point x="1520" y="16"/>
      <point x="1523" y="382" type="curve" smooth="yes"/>
      <point x="1524" y="610" type="line"/>
      <point x="963" y="632" type="line"/>
      <point x="962" y="619"/>
      <point x="962" y="252"/>
      <point x="958" y="246" type="curve" smooth="yes"/>
      <point x="954" y="241"/>
      <point x="868" y="239"/>
      <point x="851" y="239" type="curve" smooth="yes"/>
      <point x="821" y="239"/>
      <point x="735" y="245"/>
      <point x="734" y="255" type="curve" smooth="yes"/>
      <point x="733" y="267"/>
      <point x="733" y="769"/>
      <point x="733" y="782" type="curve" smooth="yes"/>
      <point x="733" y="800"/>
      <point x="733" y="1306"/>
      <point x="734" y="1323" type="curve" smooth="yes"/>
      <point x="735" y="1338"/>
      <point x="826" y="1339"/>
      <point x="851" y="1339" type="curve" smooth="yes"/>
      <point x="865" y="1339"/>
      <point x="950" y="1339"/>
      <point x="955" y="1335" type="curve" smooth="yes"/>
      <point x="959" y="1331"/>
      <point x="961" y="967"/>
      <point x="962" y="951" type="curve"/>
      <point x="1523" y="974" type="line"/>
      <point x="1523" y="1202" type="line" smooth="yes"/>
      <point x="1519" y="1574"/>
      <point x="1168" y="1606"/>
      <point x="853" y="1606" type="curve" smooth="yes"/>
      <point x="537" y="1606"/>
      <point x="172" y="1565"/>
    </contour>
  </outline>
</glyph>
<glyph name="D" format="1">
  <advance width="1675"/>
  <unicode hex="0044"/>
  <outline>
    <contour>
      <point x="841" y="1574" type="move" name="top"/>
    </contour>
    <contour>
      <point x="841" y="0" type="move" name="bot"/>
    </contour>
    <contour>
      <point x="458" y="797" type="move" name="mid"/>
    </contour>
    <contour>
      <point x="184" y="1574" type="line"/>
      <point x="184" y="0" type="line"/>
      <point x="861" y="0" type="line" smooth="yes"/>
      <point x="1240" y="0"/>
      <point x="1509" y="26"/>
      <point x="1511" y="452" type="curve"/>
      <point x="1511" y="1134" type="line"/>
      <point x="1511" y="1517"/>
      <point x="1242" y="1574"/>
      <point x="892" y="1574" type="curve" smooth="yes"/>
    </contour>
    <contour>
      <point x="988" y="934" type="curve" smooth="yes"/>
      <point x="988" y="556" type="line" smooth="yes"/>
      <point x="988" y="466"/>
      <point x="974" y="219"/>
      <point x="895" y="219" type="curve" smooth="yes"/>
      <point x="709" y="219" type="line"/>
      <point x="709" y="1354" type="line"/>
      <point x="889" y="1354" type="line" smooth="yes"/>
      <point x="988" y="1354"/>
      <point x="988" y="1011"/>
    </contour>
  </outline>
</glyph>
<glyph name="E" format="1">
  <advance width="1250"/>
  <unicode hex="0045"/>
  <outline>
    <contour>
      <point x="628" y="1574" type="move" name="top"/>
    </contour>
    <contour>
      <point x="681" y="0" type="move" name="ogonek"/>
    </contour>
    <contour>
      <point x="628" y="0" type="move" name="bot"/>
    </contour>
    <contour>
      <point x="184" y="1574" type="line"/>
      <point x="184" y="0" type="line"/>
      <point x="1109" y="0" type="line"/>
      <point x="1113" y="231" type="line"/>
      <point x="708" y="231" type="line"/>
      <point x="708" y="708" type="line"/>
      <point x="1074" y="708" type="line"/>
      <point x="1074" y="940" type="line"/>
      <point x="708" y="940" type="line"/>
      <point x="708" y="1344" type="line"/>
      <point x="1121" y="1344" type="line"/>
      <point x="1107" y="1574" type="line"/>
    </contour>
  </outline>
</glyph>
<glyph name="F" format="1">
  <advance width="1203"/>
  <unicode hex="0046"/>
  <outline>
    <contour>
      <point x="624" y="1574" type="move" name="top"/>
    </contour>
    <contour>
      <point x="614" y="0" type="move" name="bot"/>
    </contour>
    <contour>
      <point x="184" y="1574" type="line"/>
      <point x="184" y="0" type="line"/>
      <point x="708" y="0" type="line"/>
      <point x="708" y="702" type="line"/>
      <point x="1067" y="702" type="line"/>
      <point x="1067" y="933" type="line"/>
      <point x="708" y="933" type="line"/>
      <point x="708" y="1344" type="line"/>
      <point x="1112" y="1344" type="line"/>
      <point x="1100" y="1574" type="line"/>
    </contour>
  </outline>
</glyph>
<glyph name="G" format="1">
  <advance width="1635"/>
  <unicode hex="0047"/>
  <outline>
    <contour>
      <point x="827" y="1574" type="move" name="top"/>
    </contour>
    <contour>
      <point x="827" y="0" type="move" name="bot"/>
    </contour>
    <contour>
      <point x="172" y="1208" type="curve" smooth="yes"/>
      <point x="167" y="1185"/>
      <point x="166" y="824"/>
      <point x="166" y="784" type="curve" smooth="yes"/>
      <point x="166" y="747"/>
      <point x="166" y="376"/>
      <point x="170" y="354" type="curve" smooth="yes"/>
      <point x="178" y="23"/>
      <point x="380" y="-22"/>
      <point x="863" y="-22" type="curve" smooth="yes"/>
      <point x="1050" y="-22"/>
      <point x="1378" y="8"/>
      <point x="1492" y="108" type="curve"/>
      <point x="1492" y="764" type="line"/>
      <point x="877" y="764" type="line"/>
      <point x="880" y="599" type="line"/>
      <point x="1061" y="599" type="line"/>
      <point x="1061" y="230" type="line"/>
      <point x="1056" y="223"/>
      <point x="916" y="220"/>
      <point x="871" y="220" type="curve" smooth="yes"/>
      <point x="807" y="220"/>
      <point x="693" y="228"/>
      <point x="691" y="265" type="curve" smooth="yes"/>
      <point x="690" y="292"/>
      <point x="690" y="763"/>
      <point x="690" y="792" type="curve" smooth="yes"/>
      <point x="690" y="820"/>
      <point x="690" y="1281"/>
      <point x="691" y="1308" type="curve" smooth="yes"/>
      <point x="693" y="1334"/>
      <point x="774" y="1342"/>
      <point x="828" y="1342" type="curve" smooth="yes"/>
      <point x="877" y="1342"/>
      <point x="964" y="1339"/>
      <point x="965" y="1322" type="curve" smooth="yes"/>
      <point x="967" y="979" type="line"/>
      <point x="1487" y="1002" type="line"/>
      <point x="1487" y="1005"/>
      <point x="1487" y="1191"/>
      <point x="1487" y="1194" type="curve" smooth="yes"/>
      <point x="1487" y="1559"/>
      <point x="1099" y="1596"/>
      <point x="834" y="1596" type="curve" smooth="yes"/>
      <point x="521" y="1596"/>
      <point x="182" y="1553"/>
    </contour>
  </outline>
</glyph>
<glyph name="H" format="1">
  <advance width="1703"/>
  <unicode hex="0048"/>
  <outline>
    <contour>
      <point x="852" y="1574" type="move" name="top"/>
    </contour>
    <contour>
      <point x="852" y="0" type="move" name="bot"/>
    </contour>
    <contour>
      <point x="853" y="787" type="move" name="center"/>
    </contour>
    <contour>
      <point x="995" y="1574" type="line"/>
      <point x="995" y="895" type="line"/>
      <point x="708" y="895" type="line"/>
      <point x="708" y="1574" type="line"/>
      <point x="184" y="1574" type="line"/>
      <point x="184" y="0" type="line"/>
      <point x="708" y="0" type="line"/>
      <point x="708" y="687" type="line"/>
      <point x="995" y="687" type="line"/>
      <point x="995" y="0" type="line"/>
      <point x="1519" y="0" type="line"/>
      <point x="1519" y="1574" type="line"/>
    </contour>
  </outline>
</glyph>
<glyph name="I" format="1">
  <advance width="886"/>
  <unicode hex="0049"/>
  <outline>
    <contour>
      <point x="443" y="1574" type="move" name="top"/>
    </contour>
    <contour>
      <point x="454" y="0" type="move" name="ogonek"/>
    </contour>
    <contour>
      <point x="443" y="0" type="move" name="bot"/>
    </contour>
    <contour>
      <point x="181" y="1574" type="line"/>
      <point x="181" y="0" type="line"/>
      <point x="705" y="0" type="line"/>
      <point x="705" y="1574" type="line"/>
    </contour>
  </outline>
</glyph>
<glyph name="J" format="1">
  <advance width="1032"/>
  <unicode hex="004A"/>
  <outline>
    <contour>
      <point x="586" y="1574" type="move" name="top"/>
    </contour>
    <contour>
      <point x="513" y="0" type="move" name="bot"/>
    </contour>
    <contour>
      <point x="371" y="-130" type="curve" smooth="yes"/>
      <point x="645" y="-130"/>
      <point x="852" y="-28"/>
      <point x="852" y="283" type="curve" smooth="yes"/>
      <point x="852" y="1574" type="line"/>
      <point x="328" y="1574" type="line"/>
      <point x="328" y="275" type="line" smooth="yes"/>
      <point x="328" y="248"/>
      <point x="327" y="142"/>
      <point x="302" y="139" type="curve" smooth="yes"/>
      <point x="294" y="138"/>
      <point x="120" y="138"/>
      <point x="107" y="138" type="curve"/>
      <point x="133" y="-109" type="line"/>
      <point x="203" y="-122"/>
      <point x="292" y="-130"/>
    </contour>
  </outline>
</glyph>
<glyph name="K" format="1">
  <advance width="1697"/>
  <unicode hex="004B"/>
  <outline>
    <contour>
      <point x="867" y="1574" type="move" name="top"/>
    </contour>
    <contour>
      <point x="867" y="0" type="move" name="bot"/>
    </contour>
    <contour>
      <point x="1059" y="1574" type="line"/>
      <point x="781" y="976" type="line"/>
      <point x="707" y="814" type="line"/>
      <point x="708" y="997" type="line"/>
      <point x="708" y="1574" type="line"/>
      <point x="184" y="1574" type="line"/>
      <point x="184" y="0" type="line"/>
      <point x="708" y="0" type="line"/>
      <point x="708" y="569" type="line"/>
      <point x="771" y="693" type="line"/>
      <point x="1085" y="0" type="line"/>
      <point x="1654" y="0" type="line"/>
      <point x="1227" y="828" type="line"/>
      <point x="1602" y="1574" type="line"/>
    </contour>
  </outline>
</glyph>
<glyph name="L" format="1">
  <advance width="1203"/>
  <unicode hex="004C"/>
  <outline>
    <contour>
      <point x="563" y="1574" type="move" name="top"/>
    </contour>
    <contour>
      <point x="517" y="1260" type="move" name="caron.alt"/>
    </contour>
    <contour>
      <point x="610" y="0" type="move" name="bot"/>
    </contour>
    <contour>
      <point x="184" y="1574" type="line"/>
      <point x="184" y="0" type="line"/>
      <point x="1091" y="0" type="line"/>
      <point x="1095" y="223" type="line"/>
      <point x="708" y="223" type="line"/>
      <point x="708" y="1574" type="line"/>
    </contour>
  </outline>
</glyph>
<glyph name="M" format="1">
  <advance width="1975"/>
  <unicode hex="004D"/>
  <outline>
    <contour>
      <point x="982" y="1574" type="move" name="top"/>
    </contour>
    <contour>
      <point x="982" y="0" type="move" name="bot"/>
    </contour>
    <contour>
      <point x="1173" y="1574" type="line"/>
      <point x="987" y="603" type="line"/>
      <point x="977" y="603" type="line"/>
      <point x="789" y="1574" type="line"/>
      <point x="209" y="1574" type="line"/>
      <point x="122" y="0" type="line"/>
      <point x="529" y="0" type="line"/>
      <point x="587" y="1003" type="line"/>
      <point x="599" y="1003" type="line"/>
      <point x="801" y="-1" type="line"/>
      <point x="1166" y="-1" type="line"/>
      <point x="1373" y="1003" type="line"/>
      <point x="1386" y="1003" type="line"/>
      <point x="1445" y="0" type="line"/>
      <point x="1841" y="0" type="line"/>
      <point x="1754" y="1574" type="line"/>
    </contour>
  </outline>
</glyph>
<glyph name="N" format="1">
  <advance width="1701"/>
  <unicode hex="004E"/>
  <outline>
    <contour>
      <point x="855" y="1574" type="move" name="top"/>
    </contour>
    <contour>
      <point x="851" y="0" type="move" name="bot"/>
    </contour>
    <contour>
      <point x="1127" y="1574" type="line"/>
      <point x="1127" y="727" type="line"/>
      <point x="639" y="1574" type="line"/>
      <point x="184" y="1574" type="line"/>
      <point x="184" y="0" type="line"/>
      <point x="578" y="0" type="line"/>
      <point x="578" y="804" type="line"/>
      <point x="1044" y="0" type="line"/>
      <point x="1517" y="0" type="line"/>
      <point x="1517" y="1574" type="line"/>
    </contour>
  </outline>
</glyph>
<glyph name="O" format="1">
  <advance width="1668"/>
  <unicode hex="004F"/>
  <outline>
    <contour>
      <point x="834" y="1574" type="move" name="top"/>
    </contour>
    <contour>
      <point x="957" y="0" type="move" name="ogonek"/>
    </contour>
    <contour>
      <point x="834" y="0" type="move" name="bot"/>
    </contour>
    <contour>
      <point x="835" y="228" type="curve" smooth="yes"/>
      <point x="768" y="228"/>
      <point x="692" y="238"/>
      <point x="691" y="281" type="curve" smooth="yes"/>
      <point x="690" y="299"/>
      <point x="690" y="755"/>
      <point x="690" y="787" type="curve" smooth="yes"/>
      <point x="690" y="821"/>
      <point x="690" y="1276"/>
      <point x="691" y="1294" type="curve" smooth="yes"/>
      <point x="692" y="1337"/>
      <point x="768" y="1346"/>
      <point x="835" y="1346" type="curve" smooth="yes"/>
      <point x="902" y="1346"/>
      <point x="977" y="1337"/>
      <point x="978" y="1294" type="curve" smooth="yes"/>
      <point x="978" y="1276"/>
      <point x="978" y="821"/>
      <point x="978" y="787" type="curve" smooth="yes"/>
      <point x="978" y="755"/>
      <point x="978" y="299"/>
      <point x="978" y="281" type="curve" smooth="yes"/>
      <point x="977" y="238"/>
      <point x="902" y="228"/>
    </contour>
    <contour>
      <point x="832" y="-22" type="curve" smooth="yes"/>
      <point x="1173" y="-21"/>
      <point x="1502" y="32"/>
      <point x="1502" y="446" type="curve" smooth="yes"/>
      <point x="1502" y="1128" type="line" smooth="yes"/>
      <point x="1502" y="1541"/>
      <point x="1149" y="1596"/>
      <point x="832" y="1596" type="curve" smooth="yes"/>
      <point x="491" y="1596"/>
      <point x="166" y="1537"/>
      <point x="166" y="1128" type="curve" smooth="yes"/>
      <point x="166" y="446" type="line" smooth="yes"/>
      <point x="166" y="30"/>
      <point x="476" y="-22"/>
    </contour>
  </outline>
</glyph>
<glyph name="P" format="1">
  <advance width="1608"/>
  <unicode hex="0050"/>
  <outline>
    <contour>
      <point x="816" y="1574" type="move" name="top"/>
    </contour>
    <contour>
      <point x="816" y="0" type="move" name="bot"/>
    </contour>
    <contour>
      <point x="184" y="0" type="line"/>
      <point x="708" y="0" type="line"/>
      <point x="708" y="426" type="line"/>
      <point x="909" y="426" type="line" smooth="yes"/>
      <point x="1206" y="426"/>
      <point x="1489" y="457"/>
      <point x="1490" y="830" type="curve" smooth="yes"/>
      <point x="1490" y="1164" type="line" smooth="yes"/>
      <point x="1490" y="1530"/>
      <point x="1219" y="1574"/>
      <point x="896" y="1574" type="curve" smooth="yes"/>
      <point x="184" y="1574" type="line"/>
    </contour>
    <contour>
      <point x="707" y="637" type="line"/>
      <point x="707" y="1358" type="line"/>
      <point x="855" y="1358" type="line" smooth="yes"/>
      <point x="869" y="1358"/>
      <point x="947" y="1356"/>
      <point x="953" y="1351" type="curve" smooth="yes"/>
      <point x="963" y="1343"/>
      <point x="965" y="1032"/>
      <point x="966" y="999" type="curve" smooth="yes"/>
      <point x="966" y="968"/>
      <point x="966" y="654"/>
      <point x="952" y="644" type="curve" smooth="yes"/>
      <point x="944" y="639"/>
      <point x="864" y="637"/>
      <point x="847" y="637" type="curve" smooth="yes"/>
    </contour>
  </outline>
</glyph>
<glyph name="Q" format="1">
  <advance width="1668"/>
  <unicode hex="0051"/>
  <outline>
    <contour>
      <point x="732" y="73" type="line"/>
      <point x="1061" y="-415" type="line"/>
      <point x="1343" y="-256" type="line"/>
      <point x="1104" y="116" type="line"/>
    </contour>
    <component base="O"/>
  </outline>
</glyph>
<glyph name="R" format="1">
  <advance width="1661"/>
  <unicode hex="0052"/>
  <outline>
    <contour>
      <point x="823" y="1574" type="move" name="top"/>
    </contour>
    <contour>
      <point x="823" y="0" type="move" name="bot"/>
    </contour>
    <contour>
      <point x="184" y="0" type="line"/>
      <point x="708" y="0" type="line"/>
      <point x="708" y="647" type="line"/>
      <point x="908" y="647" type="line" smooth="yes"/>
      <point x="938" y="647"/>
      <point x="958" y="565"/>
      <point x="963" y="532" type="curve" smooth="yes"/>
      <point x="975" y="0" type="line"/>
      <point x="1503" y="0" type="line"/>
      <point x="1488" y="443" type="line" smooth="yes"/>
      <point x="1483" y="608"/>
      <point x="1398" y="741"/>
      <point x="1146" y="771" type="curve"/>
      <point x="1146" y="776" type="line" smooth="yes"/>
      <point x="1415" y="805"/>
      <point x="1484" y="938"/>
      <point x="1484" y="1170" type="curve" smooth="yes"/>
      <point x="1484" y="1495"/>
      <point x="1314" y="1574"/>
      <point x="1005" y="1574" type="curve" smooth="yes"/>
      <point x="184" y="1574" type="line"/>
    </contour>
    <contour>
      <point x="708" y="865" type="line"/>
      <point x="708" y="1354" type="line"/>
      <point x="913" y="1354" type="line" smooth="yes"/>
      <point x="969" y="1354"/>
      <point x="972" y="1155"/>
      <point x="972" y="1113" type="curve" smooth="yes"/>
      <point x="972" y="1067"/>
      <point x="966" y="865"/>
      <point x="916" y="865" type="curve" smooth="yes"/>
    </contour>
  </outline>
</glyph>
<glyph name="S" format="1">
  <advance width="1600"/>
  <unicode hex="0053"/>
  <outline>
    <contour>
      <point x="790" y="1574" type="move" name="top"/>
    </contour>
    <contour>
      <point x="790" y="0" type="move" name="bot"/>
    </contour>
    <contour>
      <point x="797" y="-22" type="curve" smooth="yes"/>
      <point x="1295" y="-22"/>
      <point x="1443" y="81"/>
      <point x="1443" y="522" type="curve" smooth="yes"/>
      <point x="1443" y="853"/>
      <point x="1246" y="947"/>
      <point x="997" y="994" type="curve" smooth="yes"/>
      <point x="784" y="1034" type="line"/>
      <point x="678" y="1054"/>
      <point x="669" y="1068"/>
      <point x="665" y="1104" type="curve" smooth="yes"/>
      <point x="659" y="1109"/>
      <point x="656" y="1276"/>
      <point x="656" y="1289" type="curve" smooth="yes"/>
      <point x="656" y="1333"/>
      <point x="732" y="1340"/>
      <point x="790" y="1340" type="curve" smooth="yes"/>
      <point x="818" y="1340"/>
      <point x="900" y="1338"/>
      <point x="906" y="1332" type="curve" smooth="yes"/>
      <point x="913" y="1326"/>
      <point x="913" y="1199"/>
      <point x="914" y="1181" type="curve"/>
      <point x="1379" y="1213" type="line"/>
      <point x="1379" y="1564"/>
      <point x="1205" y="1596"/>
      <point x="772" y="1596" type="curve" smooth="yes"/>
      <point x="323" y="1596"/>
      <point x="156" y="1513"/>
      <point x="156" y="1104" type="curve" smooth="yes"/>
      <point x="156" y="828"/>
      <point x="270" y="726"/>
      <point x="516" y="665" type="curve" smooth="yes"/>
      <point x="778" y="603" type="line"/>
      <point x="867" y="580"/>
      <point x="904" y="568"/>
      <point x="904" y="525" type="curve" smooth="yes"/>
      <point x="916" y="523"/>
      <point x="918" y="316"/>
      <point x="918" y="283" type="curve" smooth="yes"/>
      <point x="919" y="239"/>
      <point x="843" y="230"/>
      <point x="787" y="230" type="curve" smooth="yes"/>
      <point x="754" y="230"/>
      <point x="669" y="233"/>
      <point x="662" y="241" type="curve" smooth="yes"/>
      <point x="654" y="249"/>
      <point x="655" y="435"/>
      <point x="652" y="457" type="curve"/>
      <point x="157" y="419" type="line"/>
      <point x="159" y="30"/>
      <point x="315" y="-22"/>
    </contour>
  </outline>
</glyph>
<glyph name="T" format="1">
  <advance width="1299"/>
  <unicode hex="0054"/>
  <outline>
    <contour>
      <point x="650" y="1574" type="move" name="top"/>
    </contour>
    <contour>
      <point x="650" y="0" type="move" name="bot"/>
    </contour>
    <contour>
      <point x="650" y="849" type="move" name="mid"/>
    </contour>
    <contour>
      <point x="27" y="1574" type="line"/>
      <point x="27" y="1328" type="line"/>
      <point x="386" y="1328" type="line"/>
      <point x="386" y="0" type="line"/>
      <point x="910" y="0" type="line"/>
      <point x="910" y="1328" type="line"/>
      <point x="1272" y="1328" type="line"/>
      <point x="1272" y="1574" type="line"/>
    </contour>
  </outline>
</glyph>
<glyph name="U" format="1">
  <advance width="1639"/>
  <unicode hex="0055"/>
  <outline>
    <contour>
      <point x="819" y="1574" type="move" name="top"/>
    </contour>
    <contour>
      <point x="931" y="0" type="move" name="ogonek"/>
    </contour>
    <contour>
      <point x="819" y="0" type="move" name="bot"/>
    </contour>
    <contour>
      <point x="154" y="1574" type="line"/>
      <point x="154" y="423" type="line" smooth="yes"/>
      <point x="154" y="23"/>
      <point x="511" y="-22"/>
      <point x="817" y="-22" type="curve" smooth="yes"/>
      <point x="1148" y="-22"/>
      <point x="1485" y="29"/>
      <point x="1485" y="422" type="curve" smooth="yes"/>
      <point x="1485" y="1573" type="line"/>
      <point x="960" y="1573" type="line"/>
      <point x="960" y="289" type="line" smooth="yes"/>
      <point x="960" y="239"/>
      <point x="885" y="228"/>
      <point x="819" y="228" type="curve" smooth="yes"/>
      <point x="748" y="228"/>
      <point x="678" y="237"/>
      <point x="678" y="308" type="curve" smooth="yes"/>
      <point x="678" y="1574" type="line"/>
    </contour>
  </outline>
</glyph>
<glyph name="V" format="1">
  <advance width="1566"/>
  <unicode hex="0056"/>
  <outline>
    <contour>
      <point x="976" y="1574" type="line"/>
      <point x="787" y="382" type="line"/>
      <point x="778" y="382" type="line"/>
      <point x="582" y="1574" type="line"/>
      <point x="66" y="1574" type="line"/>
      <point x="421" y="0" type="line"/>
      <point x="1137" y="0" type="line"/>
      <point x="1494" y="1574" type="line"/>
    </contour>
  </outline>
</glyph>
<glyph name="W" format="1">
  <advance width="2029"/>
  <unicode hex="0057"/>
  <outline>
    <contour>
      <point x="1011" y="1574" type="move" name="top"/>
    </contour>
    <contour>
      <point x="1011" y="0" type="move" name="bot"/>
    </contour>
    <contour>
      <point x="1533" y="1574" type="line"/>
      <point x="1402" y="562" type="line"/>
      <point x="1388" y="561" type="line"/>
      <point x="1231" y="1574" type="line"/>
      <point x="808" y="1574" type="line"/>
      <point x="652" y="559" type="line"/>
      <point x="640" y="559" type="line"/>
      <point x="534" y="1574" type="line"/>
      <point x="42" y="1574" type="line"/>
      <point x="273" y="0" type="line"/>
      <point x="814" y="0" type="line"/>
      <point x="995" y="974" type="line"/>
      <point x="1007" y="974" type="line"/>
      <point x="1183" y="0" type="line"/>
      <point x="1740" y="0" type="line"/>
      <point x="1980" y="1574" type="line"/>
    </contour>
  </outline>
</glyph>
<glyph name="X" format="1">
  <advance width="1556"/>
  <unicode hex="0058"/>
  <outline>
    <contour>
      <point x="1041" y="1574" type="line"/>
      <point x="695" y="947" type="line"/>
      <point x="544" y="913" type="line"/>
      <point x="14" y="0" type="line"/>
      <point x="497" y="0" type="line"/>
      <point x="874" y="647" type="line"/>
      <point x="1037" y="690" type="line"/>
      <point x="1525" y="1574" type="line"/>
    </contour>
    <contour>
      <point x="73" y="1574" type="line"/>
      <point x="1032" y="0" type="line"/>
      <point x="1518" y="0" type="line"/>
      <point x="556" y="1574" type="line"/>
    </contour>
  </outline>
</glyph>
<glyph name="Y" format="1">
  <advance width="1492"/>
  <unicode hex="0059"/>
  <outline>
    <contour>
      <point x="748" y="1574" type="move" name="top"/>
    </contour>
    <contour>
      <point x="748" y="0" type="move" name="bot"/>
    </contour>
    <contour>
      <point x="971" y="1574" type="line"/>
      <point x="750" y="910" type="line"/>
      <point x="742" y="910" type="line"/>
      <point x="527" y="1574" type="line"/>
      <point x="37" y="1574" type="line"/>
      <point x="484" y="535" type="line"/>
      <point x="484" y="0" type="line"/>
      <point x="1008" y="0" type="line"/>
      <point x="1008" y="527" type="line"/>
      <point x="1456" y="1574" type="line"/>
    </contour>
  </outline>
</glyph>
<glyph name="Z" format="1">
  <advance width="1249"/>
  <unicode hex="005A"/>
  <outline>
    <contour>
      <point x="627" y="1574" type="move" name="top"/>
    </contour>
    <contour>
      <point x="627" y="0" type="move" name="bot"/>
    </contour>
    <contour>
      <point x="152" y="1574" type="line"/>
      <point x="169" y="1311" type="line"/>
      <point x="585" y="1311" type="line"/>
      <point x="166" y="248" type="line"/>
      <point x="168" y="0" type="line"/>
      <point x="1128" y="0" type="line"/>
      <point x="1136" y="265" type="line"/>
      <point x="698" y="265" type="line"/>
      <point x="1093" y="1336" type="line"/>
      <point x="1096" y="1574" type="line"/>
    </contour>
  </outline>
</glyph>
<glyph name="bracketleft" format="1">
  <advance width="1197"/>
  <unicode hex="005B"/>
  <outline>
    <contour>
      <point x="232" y="1783" type="line"/>
      <point x="232" y="-310" type="line"/>
      <point x="1101" y="-310" type="line"/>
      <point x="1101" y="-86" type="line"/>
      <point x="778" y="-86" type="line"/>
      <point x="778" y="1560" type="line"/>
      <point x="1101" y="1560" type="line"/>
      <point x="1101" y="1783" type="line"/>
    </contour>
  </outline>
</glyph>
<glyph name="backslash" format="1">
  <advance width="1146"/>
  <unicode hex="005C"/>
  <outline>
    <contour>
      <point x="179" y="1579" type="line"/>
      <point x="530" y="-5" type="line"/>
      <point x="948" y="-5" type="line"/>
      <point x="598" y="1579" type="line"/>
    </contour>
  </outline>
</glyph>
<glyph name="bracketright" format="1">
  <advance width="1441"/>
  <unicode hex="005D"/>
  <outline>
    <contour>
      <point x="335" y="1783" type="line"/>
      <point x="335" y="1560" type="line"/>
      <point x="658" y="1560" type="line"/>
      <point x="658" y="-86" type="line"/>
      <point x="335" y="-86" type="line"/>
      <point x="335" y="-310" type="line"/>
      <point x="1204" y="-310" type="line"/>
      <point x="1204" y="1783" type="line"/>
    </contour>
  </outline>
</glyph>
<glyph name="asciicircum" format="1">
  <advance width="1298"/>
  <unicode hex="005E"/>
  <outline>
    <contour>
      <point x="647" y="1560" type="curve" smooth="yes"/>
      <point x="559" y="1559"/>
      <point x="461" y="1530"/>
      <point x="417" y="1434" type="curve" smooth="yes"/>
      <point x="57" y="657" type="line" smooth="yes"/>
      <point x="-4" y="524"/>
      <point x="185" y="409"/>
      <point x="272" y="553" type="curve" smooth="yes"/>
      <point x="647" y="1179" type="line"/>
      <point x="1022" y="553" type="line" smooth="yes"/>
      <point x="1109" y="409"/>
      <point x="1298" y="524"/>
      <point x="1237" y="657" type="curve" smooth="yes"/>
      <point x="877" y="1434" type="line" smooth="yes"/>
      <point x="833" y="1530"/>
      <point x="735" y="1559"/>
    </contour>
  </outline>
</glyph>
<glyph name="grave" format="1">
  <advance width="1165"/>
  <unicode hex="0060"/>
  <outline>
    <contour>
      <point x="805" y="1259" type="move" name="_top"/>
    </contour>
    <contour>
      <point x="309" y="1790" type="curve" smooth="yes"/>
      <point x="309" y="1730"/>
      <point x="342" y="1665"/>
      <point x="416" y="1623" type="curve" smooth="yes"/>
      <point x="505" y="1573"/>
      <point x="808" y="1488"/>
      <point x="972" y="1438" type="curve" smooth="yes"/>
      <point x="998" y="1429"/>
      <point x="1022" y="1434"/>
      <point x="1037" y="1446" type="curve" smooth="yes"/>
      <point x="1058" y="1462"/>
      <point x="1060" y="1494"/>
      <point x="1024" y="1526" type="curve" smooth="yes"/>
      <point x="894" y="1645"/>
      <point x="674" y="1863"/>
      <point x="586" y="1915" type="curve" smooth="yes"/>
      <point x="545" y="1940"/>
      <point x="506" y="1952"/>
      <point x="469" y="1952" type="curve" smooth="yes"/>
      <point x="374" y="1952"/>
      <point x="309" y="1875"/>
    </contour>
  </outline>
</glyph>
<glyph name="a" format="1">
  <advance width="1500"/>
  <unicode hex="0061"/>
  <outline>
    <contour>
      <point x="740" y="1259" type="move" name="top"/>
    </contour>
    <contour>
      <point x="1116" y="0" type="move" name="ogonek"/>
    </contour>
    <contour>
      <point x="745" y="0" type="move" name="bot"/>
    </contour>
    <contour>
      <point x="179" y="979" type="curve" smooth="yes"/>
      <point x="179" y="976"/>
      <point x="179" y="885"/>
      <point x="180" y="882" type="curve"/>
      <point x="639" y="897" type="line"/>
      <point x="639" y="903"/>
      <point x="639" y="1062"/>
      <point x="640" y="1066" type="curve" smooth="yes"/>
      <point x="642" y="1080"/>
      <point x="706" y="1083"/>
      <point x="742" y="1083" type="curve" smooth="yes"/>
      <point x="775" y="1083"/>
      <point x="845" y="1079"/>
      <point x="845" y="1065" type="curve" smooth="yes"/>
      <point x="845" y="747" type="line"/>
      <point x="829" y="747"/>
      <point x="610" y="724"/>
      <point x="596" y="723" type="curve" smooth="yes"/>
      <point x="297" y="693"/>
      <point x="130" y="652"/>
      <point x="130" y="372" type="curve" smooth="yes"/>
      <point x="130" y="94"/>
      <point x="265" y="-22"/>
      <point x="538" y="-22" type="curve" smooth="yes"/>
      <point x="706" y="-22"/>
      <point x="808" y="32"/>
      <point x="865" y="143" type="curve"/>
      <point x="917" y="1" type="line"/>
      <point x="1341" y="1" type="line"/>
      <point x="1341" y="907" type="line" smooth="yes"/>
      <point x="1341" y="1250"/>
      <point x="1052" y="1281"/>
      <point x="744" y="1281" type="curve" smooth="yes"/>
      <point x="507" y="1281"/>
      <point x="179" y="1263"/>
    </contour>
    <contour>
      <point x="845" y="228" type="line"/>
      <point x="845" y="205"/>
      <point x="765" y="189"/>
      <point x="720" y="189" type="curve" smooth="yes"/>
      <point x="691" y="189"/>
      <point x="619" y="194"/>
      <point x="618" y="218" type="curve" smooth="yes"/>
      <point x="618" y="223"/>
      <point x="618" y="549"/>
      <point x="618" y="556" type="curve" smooth="yes"/>
      <point x="618" y="573"/>
      <point x="765" y="606"/>
      <point x="845" y="606" type="curve"/>
    </contour>
  </outline>
</glyph>
<glyph name="b" format="1">
  <advance width="1552"/>
  <unicode hex="0062"/>
  <outline>
    <contour>
      <point x="772" y="1259" type="move" name="top"/>
    </contour>
    <contour>
      <point x="172" y="1616" type="line"/>
      <point x="172" y="0" type="line"/>
      <point x="624" y="0" type="line"/>
      <point x="657" y="119" type="line"/>
      <point x="713" y="28"/>
      <point x="848" y="-22"/>
      <point x="999" y="-22" type="curve" smooth="yes"/>
      <point x="1295" y="-22"/>
      <point x="1415" y="111"/>
      <point x="1415" y="403" type="curve" smooth="yes"/>
      <point x="1416" y="874" type="line" smooth="yes"/>
      <point x="1416" y="1148"/>
      <point x="1293" y="1281"/>
      <point x="998" y="1281" type="curve" smooth="yes"/>
      <point x="844" y="1281"/>
      <point x="731" y="1247"/>
      <point x="668" y="1165" type="curve"/>
      <point x="668" y="1616" type="line"/>
    </contour>
    <contour>
      <point x="787" y="183" type="curve" smooth="yes"/>
      <point x="749" y="183"/>
      <point x="668" y="191"/>
      <point x="668" y="213" type="curve" smooth="yes"/>
      <point x="668" y="1036" type="line" smooth="yes"/>
      <point x="668" y="1075"/>
      <point x="743" y="1080"/>
      <point x="787" y="1080" type="curve" smooth="yes"/>
      <point x="836" y="1080"/>
      <point x="906" y="1072"/>
      <point x="906" y="1034" type="curve" smooth="yes"/>
      <point x="906" y="228" type="line" smooth="yes"/>
      <point x="906" y="186"/>
      <point x="829" y="183"/>
    </contour>
  </outline>
</glyph>
<glyph name="c" format="1">
  <advance width="1496"/>
  <unicode hex="0063"/>
  <outline>
    <contour>
      <point x="736" y="1259" type="move" name="top"/>
    </contour>
    <contour>
      <point x="740" y="0" type="move" name="bot"/>
    </contour>
    <contour>
      <point x="136" y="888" type="curve" smooth="yes"/>
      <point x="136" y="387" type="line" smooth="yes"/>
      <point x="137" y="22"/>
      <point x="422" y="-22"/>
      <point x="750" y="-22" type="curve" smooth="yes"/>
      <point x="1056" y="-22"/>
      <point x="1353" y="0"/>
      <point x="1355" y="332" type="curve" smooth="yes"/>
      <point x="1356" y="478" type="line"/>
      <point x="867" y="494" type="line"/>
      <point x="864" y="204" type="line" smooth="yes"/>
      <point x="863" y="186"/>
      <point x="789" y="183"/>
      <point x="748" y="183" type="curve" smooth="yes"/>
      <point x="699" y="183"/>
      <point x="631" y="192"/>
      <point x="631" y="247" type="curve" smooth="yes"/>
      <point x="631" y="1028" type="line" smooth="yes"/>
      <point x="631" y="1069"/>
      <point x="700" y="1080"/>
      <point x="751" y="1080" type="curve" smooth="yes"/>
      <point x="795" y="1080"/>
      <point x="861" y="1073"/>
      <point x="863" y="1059" type="curve" smooth="yes"/>
      <point x="867" y="773" type="line"/>
      <point x="1356" y="787" type="line"/>
      <point x="1353" y="961" type="line" smooth="yes"/>
      <point x="1348" y="1277"/>
      <point x="1019" y="1281"/>
      <point x="757" y="1281" type="curve" smooth="yes"/>
      <point x="438" y="1281"/>
      <point x="136" y="1251"/>
    </contour>
  </outline>
</glyph>
<glyph name="d" format="1">
  <advance width="1594"/>
  <unicode hex="0064"/>
  <outline>
    <contour>
      <point x="574" y="1408" type="move" name="top"/>
    </contour>
    <contour>
      <point x="1235" y="1280" type="move" name="caron.alt"/>
    </contour>
    <contour>
      <point x="1141" y="1456" type="move" name="mid"/>
    </contour>
    <contour>
      <point x="887" y="1627" type="line"/>
      <point x="887" y="1191" type="line"/>
      <point x="822" y="1270"/>
      <point x="718" y="1302"/>
      <point x="566" y="1302" type="curve" smooth="yes"/>
      <point x="269" y="1302"/>
      <point x="136" y="1178"/>
      <point x="136" y="903" type="curve" smooth="yes"/>
      <point x="136" y="390" type="line" smooth="yes"/>
      <point x="136" y="112"/>
      <point x="264" y="-22"/>
      <point x="566" y="-22" type="curve" smooth="yes"/>
      <point x="715" y="-22"/>
      <point x="839" y="27"/>
      <point x="899" y="116" type="curve"/>
      <point x="934" y="0" type="line"/>
      <point x="1420" y="0" type="line"/>
      <point x="1420" y="1627" type="line"/>
    </contour>
    <contour>
      <point x="786" y="191" type="curve" smooth="yes"/>
      <point x="761" y="191"/>
      <point x="685" y="198"/>
      <point x="685" y="219" type="curve" smooth="yes"/>
      <point x="685" y="1065" type="line" smooth="yes"/>
      <point x="685" y="1088"/>
      <point x="764" y="1092"/>
      <point x="786" y="1092" type="curve" smooth="yes"/>
      <point x="805" y="1092"/>
      <point x="886" y="1089"/>
      <point x="886" y="1077" type="curve" smooth="yes"/>
      <point x="886" y="205" type="line" smooth="yes"/>
      <point x="886" y="194"/>
      <point x="804" y="191"/>
    </contour>
  </outline>
</glyph>
<glyph name="e" format="1">
  <advance width="1503"/>
  <unicode hex="0065"/>
  <outline>
    <contour>
      <point x="741" y="1259" type="move" name="top"/>
    </contour>
    <contour>
      <point x="857" y="0" type="move" name="ogonek"/>
    </contour>
    <contour>
      <point x="745" y="0" type="move" name="bot"/>
    </contour>
    <contour>
      <point x="754" y="-22" type="curve" smooth="yes"/>
      <point x="1161" y="-22"/>
      <point x="1361" y="63"/>
      <point x="1362" y="350" type="curve" smooth="yes"/>
      <point x="1362" y="376"/>
      <point x="1360" y="420"/>
      <point x="1356" y="451" type="curve"/>
      <point x="869" y="452" type="line"/>
      <point x="867" y="201" type="line" smooth="yes"/>
      <point x="866" y="189"/>
      <point x="789" y="183"/>
      <point x="755" y="183" type="curve" smooth="yes"/>
      <point x="715" y="183"/>
      <point x="635" y="187"/>
      <point x="634" y="205" type="curve" smooth="yes"/>
      <point x="633" y="225"/>
      <point x="633" y="571"/>
      <point x="633" y="593" type="curve"/>
      <point x="1361" y="593" type="line" smooth="yes"/>
      <point x="1362" y="889" type="line"/>
      <point x="1361" y="1253"/>
      <point x="1061" y="1281"/>
      <point x="751" y="1281" type="curve" smooth="yes"/>
      <point x="440" y="1281"/>
      <point x="136" y="1249"/>
      <point x="136" y="881" type="curve" smooth="yes"/>
      <point x="136" y="374" type="line" smooth="yes"/>
      <point x="136" y="5"/>
      <point x="435" y="-22"/>
    </contour>
    <contour>
      <point x="633" y="753" type="line"/>
      <point x="633" y="766"/>
      <point x="633" y="1047"/>
      <point x="636" y="1061" type="curve" smooth="yes"/>
      <point x="640" y="1076"/>
      <point x="712" y="1080"/>
      <point x="751" y="1080" type="curve" smooth="yes"/>
      <point x="785" y="1080"/>
      <point x="863" y="1076"/>
      <point x="865" y="1060" type="curve" smooth="yes"/>
      <point x="866" y="1044"/>
      <point x="866" y="766"/>
      <point x="867" y="753" type="curve"/>
    </contour>
  </outline>
</glyph>
<glyph name="f" format="1">
  <advance width="1133"/>
  <unicode hex="0066"/>
  <outline>
    <contour>
      <point x="569" y="1313" type="move" name="top"/>
    </contour>
    <contour>
      <point x="280" y="1259" type="curve"/>
      <point x="89" y="1259" type="line"/>
      <point x="89" y="1075" type="line"/>
      <point x="280" y="1075" type="line"/>
      <point x="280" y="0" type="line"/>
      <point x="776" y="0" type="line"/>
      <point x="776" y="1075" type="line"/>
      <point x="1067" y="1075" type="line"/>
      <point x="1067" y="1259" type="line"/>
      <point x="776" y="1259" type="line"/>
      <point x="776" y="1426" type="line" smooth="yes"/>
      <point x="776" y="1451"/>
      <point x="849" y="1452"/>
      <point x="863" y="1452" type="curve" smooth="yes"/>
      <point x="874" y="1452"/>
      <point x="1054" y="1452"/>
      <point x="1061" y="1452" type="curve"/>
      <point x="1061" y="1645" type="line"/>
      <point x="954" y="1676"/>
      <point x="842" y="1687"/>
      <point x="734" y="1687" type="curve" smooth="yes"/>
      <point x="427" y="1687"/>
      <point x="280" y="1580"/>
    </contour>
  </outline>
</glyph>
<glyph name="g" format="1">
  <advance width="1571"/>
  <unicode hex="0067"/>
  <outline>
    <contour>
      <point x="777" y="1280" type="move" name="top"/>
    </contour>
    <contour>
      <point x="779" y="0" type="move" name="bot"/>
    </contour>
    <contour>
      <point x="141" y="896" type="curve" smooth="yes"/>
      <point x="141" y="484" type="line" smooth="yes"/>
      <point x="141" y="208"/>
      <point x="276" y="84"/>
      <point x="561" y="84" type="curve" smooth="yes"/>
      <point x="702" y="84"/>
      <point x="827" y="118"/>
      <point x="886" y="200" type="curve"/>
      <point x="886" y="-64" type="line" smooth="yes"/>
      <point x="846" y="-98"/>
      <point x="763" y="-113"/>
      <point x="648" y="-113" type="curve" smooth="yes"/>
      <point x="526" y="-113"/>
      <point x="392" y="-98"/>
      <point x="310" y="-75" type="curve"/>
      <point x="257" y="-351" type="line"/>
      <point x="376" y="-384"/>
      <point x="525" y="-410"/>
      <point x="718" y="-410" type="curve" smooth="yes"/>
      <point x="1198" y="-410"/>
      <point x="1408" y="-228"/>
      <point x="1408" y="187" type="curve" smooth="yes"/>
      <point x="1409" y="1279" type="line"/>
      <point x="931" y="1279" type="line"/>
      <point x="896" y="1166" type="line"/>
      <point x="832" y="1257"/>
      <point x="716" y="1301"/>
      <point x="559" y="1302" type="curve" smooth="yes"/>
      <point x="276" y="1302"/>
      <point x="141" y="1176"/>
    </contour>
    <contour>
      <point x="776" y="300" type="curve" smooth="yes"/>
      <point x="745" y="300"/>
      <point x="675" y="310"/>
      <point x="675" y="323" type="curve" smooth="yes"/>
      <point x="674" y="334"/>
      <point x="674" y="1054"/>
      <point x="674" y="1067" type="curve" smooth="yes"/>
      <point x="674" y="1089"/>
      <point x="752" y="1092"/>
      <point x="774" y="1092" type="curve" smooth="yes"/>
      <point x="794" y="1092"/>
      <point x="875" y="1088"/>
      <point x="875" y="1077" type="curve" smooth="yes"/>
      <point x="875" y="309" type="line" smooth="yes"/>
      <point x="875" y="302"/>
      <point x="787" y="300"/>
    </contour>
  </outline>
</glyph>
<glyph name="h" format="1">
  <advance width="1554"/>
  <unicode hex="0068"/>
  <outline>
    <contour>
      <point x="1008" y="1503" type="move" name="top"/>
    </contour>
    <contour>
      <point x="774" y="0" type="move" name="bot"/>
    </contour>
    <contour>
      <point x="773" y="630" type="move" name="center"/>
    </contour>
    <contour>
      <point x="716" y="1303" type="move" name="mid"/>
    </contour>
    <contour>
      <point x="172" y="1616" type="line"/>
      <point x="172" y="0" type="line"/>
      <point x="668" y="0" type="line"/>
      <point x="668" y="1059" type="line" smooth="yes"/>
      <point x="668" y="1073"/>
      <point x="762" y="1080"/>
      <point x="782" y="1080" type="curve" smooth="yes"/>
      <point x="831" y="1080"/>
      <point x="898" y="1074"/>
      <point x="898" y="1015" type="curve" smooth="yes"/>
      <point x="898" y="0" type="line"/>
      <point x="1394" y="0" type="line"/>
      <point x="1394" y="901" type="line" smooth="yes"/>
      <point x="1394" y="1157"/>
      <point x="1271" y="1281"/>
      <point x="985" y="1281" type="curve" smooth="yes"/>
      <point x="849" y="1281"/>
      <point x="724" y="1246"/>
      <point x="668" y="1169" type="curve"/>
      <point x="668" y="1616" type="line"/>
    </contour>
  </outline>
</glyph>
<glyph name="k" format="1">
  <advance width="1524"/>
  <unicode hex="006B"/>
  <outline>
    <contour>
      <point x="1034" y="1459" type="move" name="top"/>
    </contour>
    <contour>
      <point x="776" y="0" type="move" name="bot"/>
    </contour>
    <contour>
      <point x="775" y="0" type="move" name="bottom"/>
    </contour>
    <contour>
      <point x="172" y="1616" type="line"/>
      <point x="172" y="0" type="line"/>
      <point x="668" y="0" type="line"/>
      <point x="668" y="476" type="line"/>
      <point x="721" y="558" type="line"/>
      <point x="981" y="0" type="line"/>
      <point x="1528" y="0" type="line"/>
      <point x="1141" y="684" type="line"/>
      <point x="1499" y="1259" type="line"/>
      <point x="986" y="1259" type="line"/>
      <point x="763" y="914" type="line" smooth="yes"/>
      <point x="752" y="902"/>
      <point x="679" y="775"/>
      <point x="668" y="763" type="curve"/>
      <point x="668" y="773"/>
      <point x="668" y="930"/>
      <point x="668" y="940" type="curve" smooth="yes"/>
      <point x="668" y="1616" type="line"/>
    </contour>
  </outline>
</glyph>
<glyph name="l" format="1">
  <advance width="875"/>
  <unicode hex="006C"/>
  <outline>
    <contour>
      <point x="456" y="1574" type="move" name="top"/>
    </contour>
    <contour>
      <point x="532" y="1259" type="move" name="caron.alt"/>
    </contour>
    <contour>
      <point x="438" y="0" type="move" name="bot"/>
    </contour>
    <contour>
      <point x="446" y="1011" type="move" name="mid"/>
    </contour>
    <contour>
      <point x="438" y="0" type="move" name="bottom"/>
    </contour>
    <contour>
      <point x="198" y="1616" type="line"/>
      <point x="198" y="0" type="line"/>
      <point x="694" y="0" type="line"/>
      <point x="694" y="1616" type="line"/>
    </contour>
  </outline>
</glyph>
<glyph name="m" format="1">
  <advance width="2288"/>
  <unicode hex="006D"/>
  <outline>
    <contour>
      <point x="1148" y="1280" type="move" name="top"/>
    </contour>
    <contour>
      <point x="1148" y="0" type="move" name="bot"/>
    </contour>
    <contour>
      <point x="1373" y="1169" type="curve"/>
      <point x="1308" y="1255"/>
      <point x="1195" y="1302"/>
      <point x="1040" y="1302" type="curve" smooth="yes"/>
      <point x="892" y="1302"/>
      <point x="752" y="1257"/>
      <point x="688" y="1167" type="curve"/>
      <point x="652" y="1280" type="line"/>
      <point x="174" y="1280" type="line"/>
      <point x="174" y="0" type="line"/>
      <point x="700" y="0" type="line"/>
      <point x="700" y="1084" type="line" smooth="yes"/>
      <point x="700" y="1092"/>
      <point x="788" y="1094"/>
      <point x="796" y="1094" type="curve" smooth="yes"/>
      <point x="818" y="1094"/>
      <point x="894" y="1088"/>
      <point x="894" y="1068" type="curve" smooth="yes"/>
      <point x="894" y="0" type="line"/>
      <point x="1415" y="0" type="line"/>
      <point x="1415" y="979" type="line" smooth="yes"/>
      <point x="1415" y="1016"/>
      <point x="1414" y="1051"/>
      <point x="1409" y="1084" type="curve" smooth="yes"/>
      <point x="1412" y="1090"/>
      <point x="1496" y="1094"/>
      <point x="1511" y="1094" type="curve" smooth="yes"/>
      <point x="1529" y="1094"/>
      <point x="1607" y="1084"/>
      <point x="1607" y="1061" type="curve" smooth="yes"/>
      <point x="1607" y="0" type="line"/>
      <point x="2134" y="0" type="line"/>
      <point x="2134" y="917" type="line" smooth="yes"/>
      <point x="2134" y="1184"/>
      <point x="1988" y="1302"/>
      <point x="1717" y="1302" type="curve" smooth="yes"/>
      <point x="1559" y="1302"/>
      <point x="1434" y="1260"/>
    </contour>
  </outline>
</glyph>
<glyph name="n" format="1">
  <advance width="1546"/>
  <unicode hex="006E"/>
  <outline>
    <contour>
      <point x="769" y="1259" type="move" name="top"/>
    </contour>
    <contour>
      <point x="769" y="0" type="move" name="bot"/>
    </contour>
    <contour>
      <point x="649" y="1145" type="curve"/>
      <point x="616" y="1259" type="line"/>
      <point x="172" y="1259" type="line"/>
      <point x="172" y="0" type="line"/>
      <point x="668" y="0" type="line"/>
      <point x="668" y="1040" type="line" smooth="yes"/>
      <point x="668" y="1069"/>
      <point x="745" y="1080"/>
      <point x="792" y="1080" type="curve" smooth="yes"/>
      <point x="825" y="1080"/>
      <point x="897" y="1065"/>
      <point x="897" y="1029" type="curve" smooth="yes"/>
      <point x="897" y="0" type="line"/>
      <point x="1393" y="0" type="line"/>
      <point x="1393" y="900" type="line" smooth="yes"/>
      <point x="1393" y="1150"/>
      <point x="1263" y="1280"/>
      <point x="988" y="1281" type="curve" smooth="yes"/>
      <point x="838" y="1281"/>
      <point x="704" y="1235"/>
    </contour>
  </outline>
</glyph>
<glyph name="o" format="1">
  <advance width="1504"/>
  <unicode hex="006F"/>
  <outline>
    <contour>
      <point x="749" y="1259" type="move" name="top"/>
    </contour>
    <contour>
      <point x="870" y="0" type="move" name="ogonek"/>
    </contour>
    <contour>
      <point x="749" y="0" type="move" name="bot"/>
    </contour>
    <contour>
      <point x="136" y="879" type="curve" smooth="yes"/>
      <point x="136" y="390" type="line" smooth="yes"/>
      <point x="136" y="11"/>
      <point x="413" y="-22"/>
      <point x="755" y="-22" type="curve" smooth="yes"/>
      <point x="1086" y="-22"/>
      <point x="1368" y="2"/>
      <point x="1368" y="389" type="curve" smooth="yes"/>
      <point x="1368" y="879" type="line" smooth="yes"/>
      <point x="1368" y="1243"/>
      <point x="1092" y="1281"/>
      <point x="756" y="1281" type="curve" smooth="yes"/>
      <point x="436" y="1281"/>
      <point x="136" y="1246"/>
    </contour>
    <contour>
      <point x="752" y="206" type="curve" smooth="yes"/>
      <point x="716" y="206"/>
      <point x="634" y="210"/>
      <point x="634" y="224" type="curve"/>
      <point x="634" y="1061" type="line"/>
      <point x="634" y="1080"/>
      <point x="728" y="1080"/>
      <point x="752" y="1080" type="curve" smooth="yes"/>
      <point x="775" y="1080"/>
      <point x="869" y="1080"/>
      <point x="869" y="1061" type="curve" smooth="yes"/>
      <point x="869" y="224" type="line" smooth="yes"/>
      <point x="869" y="209"/>
      <point x="787" y="206"/>
    </contour>
  </outline>
</glyph>
<glyph name="p" format="1">
  <advance width="1549"/>
  <unicode hex="0070"/>
  <outline>
    <contour>
      <point x="774" y="1259" type="move" name="top"/>
    </contour>
    <contour>
      <point x="774" y="0" type="move" name="bot"/>
    </contour>
    <contour>
      <point x="172" y="-405" type="line"/>
      <point x="668" y="-402" type="line"/>
      <point x="668" y="89" type="line"/>
      <point x="722" y="11"/>
      <point x="851" y="-22"/>
      <point x="997" y="-22" type="curve" smooth="yes"/>
      <point x="1288" y="-22"/>
      <point x="1413" y="107"/>
      <point x="1413" y="400" type="curve" smooth="yes"/>
      <point x="1413" y="859" type="line" smooth="yes"/>
      <point x="1413" y="1151"/>
      <point x="1287" y="1281"/>
      <point x="998" y="1281" type="curve" smooth="yes"/>
      <point x="841" y="1281"/>
      <point x="695" y="1237"/>
      <point x="633" y="1146" type="curve"/>
      <point x="600" y="1259" type="line"/>
      <point x="172" y="1259" type="line"/>
    </contour>
    <contour>
      <point x="787" y="183" type="curve" smooth="yes"/>
      <point x="743" y="183"/>
      <point x="667" y="194"/>
      <point x="667" y="249" type="curve" smooth="yes"/>
      <point x="667" y="1023" type="line" smooth="yes"/>
      <point x="667" y="1073"/>
      <point x="736" y="1080"/>
      <point x="787" y="1080" type="curve" smooth="yes"/>
      <point x="843" y="1080"/>
      <point x="903" y="1058"/>
      <point x="903" y="1030" type="curve" smooth="yes"/>
      <point x="903" y="242" type="line" smooth="yes"/>
      <point x="903" y="189"/>
      <point x="836" y="183"/>
    </contour>
  </outline>
</glyph>
<glyph name="q" format="1">
  <advance width="1593"/>
  <unicode hex="0071"/>
  <outline>
    <contour>
      <point x="136" y="893" type="curve" smooth="yes"/>
      <point x="136" y="383" type="line" smooth="yes"/>
      <point x="136" y="103"/>
      <point x="272" y="-22"/>
      <point x="569" y="-22" type="curve" smooth="yes"/>
      <point x="711" y="-22"/>
      <point x="828" y="10"/>
      <point x="886" y="89" type="curve"/>
      <point x="886" y="-406" type="line"/>
      <point x="1419" y="-408" type="line"/>
      <point x="1419" y="1280" type="line"/>
      <point x="961" y="1280" type="line"/>
      <point x="925" y="1167" type="line"/>
      <point x="861" y="1257"/>
      <point x="724" y="1302"/>
      <point x="569" y="1302" type="curve" smooth="yes"/>
      <point x="273" y="1302"/>
      <point x="136" y="1175"/>
    </contour>
    <contour>
      <point x="785" y="191" type="curve" smooth="yes"/>
      <point x="760" y="191"/>
      <point x="685" y="194"/>
      <point x="685" y="221" type="curve" smooth="yes"/>
      <point x="685" y="1069" type="line" smooth="yes"/>
      <point x="685" y="1081"/>
      <point x="756" y="1092"/>
      <point x="785" y="1092" type="curve" smooth="yes"/>
      <point x="810" y="1092"/>
      <point x="886" y="1089"/>
      <point x="886" y="1064" type="curve" smooth="yes"/>
      <point x="886" y="224" type="line" smooth="yes"/>
      <point x="886" y="197"/>
      <point x="806" y="191"/>
    </contour>
  </outline>
</glyph>
<glyph name="r" format="1">
  <advance width="1105"/>
  <unicode hex="0072"/>
  <outline>
    <contour>
      <point x="529" y="1259" type="move" name="top"/>
    </contour>
    <contour>
      <point x="458" y="0" type="move" name="bot"/>
    </contour>
    <contour>
      <point x="637" y="1117" type="curve"/>
      <point x="601" y="1259" type="line"/>
      <point x="176" y="1259" type="line"/>
      <point x="175" y="0" type="line"/>
      <point x="671" y="0" type="line"/>
      <point x="671" y="690" type="line" smooth="yes"/>
      <point x="671" y="704"/>
      <point x="670" y="839"/>
      <point x="670" y="855" type="curve" smooth="yes"/>
      <point x="670" y="897"/>
      <point x="920" y="948"/>
      <point x="957" y="948" type="curve"/>
      <point x="959" y="1283" type="line"/>
      <point x="809" y="1280"/>
      <point x="683" y="1225"/>
    </contour>
  </outline>
</glyph>
<glyph name="s" format="1">
  <advance width="1377"/>
  <unicode hex="0073"/>
  <outline>
    <contour>
      <point x="686" y="1259" type="move" name="top"/>
    </contour>
    <contour>
      <point x="689" y="0" type="move" name="bot"/>
    </contour>
    <contour>
      <point x="691" y="-22" type="curve" smooth="yes"/>
      <point x="1112" y="-22"/>
      <point x="1278" y="14"/>
      <point x="1278" y="396" type="curve" smooth="yes"/>
      <point x="1278" y="657"/>
      <point x="1168" y="720"/>
      <point x="940" y="759" type="curve" smooth="yes"/>
      <point x="747" y="796" type="line" smooth="yes"/>
      <point x="597" y="822"/>
      <point x="590" y="821"/>
      <point x="590" y="898" type="curve" smooth="yes"/>
      <point x="590" y="910"/>
      <point x="591" y="1035"/>
      <point x="597" y="1040" type="curve" smooth="yes"/>
      <point x="602" y="1045"/>
      <point x="672" y="1046"/>
      <point x="693" y="1046" type="curve" smooth="yes"/>
      <point x="715" y="1046"/>
      <point x="785" y="1046"/>
      <point x="792" y="1042" type="curve" smooth="yes"/>
      <point x="799" y="1038"/>
      <point x="800" y="919"/>
      <point x="801" y="905" type="curve"/>
      <point x="1244" y="926" type="line"/>
      <point x="1244" y="1255"/>
      <point x="1069" y="1281"/>
      <point x="707" y="1281" type="curve" smooth="yes"/>
      <point x="308" y="1281"/>
      <point x="114" y="1226"/>
      <point x="114" y="885" type="curve" smooth="yes"/>
      <point x="114" y="611"/>
      <point x="228" y="551"/>
      <point x="455" y="515" type="curve" smooth="yes"/>
      <point x="649" y="481" type="line" smooth="yes"/>
      <point x="777" y="460"/>
      <point x="802" y="465"/>
      <point x="802" y="375" type="curve" smooth="yes"/>
      <point x="802" y="363"/>
      <point x="801" y="227"/>
      <point x="795" y="220" type="curve" smooth="yes"/>
      <point x="790" y="214"/>
      <point x="721" y="210"/>
      <point x="699" y="210" type="curve" smooth="yes"/>
      <point x="673" y="210"/>
      <point x="601" y="210"/>
      <point x="594" y="216" type="curve" smooth="yes"/>
      <point x="587" y="221"/>
      <point x="586" y="365"/>
      <point x="585" y="384" type="curve"/>
      <point x="138" y="358" type="line"/>
      <point x="138" y="2"/>
      <point x="325" y="-22"/>
    </contour>
  </outline>
</glyph>
<glyph name="t" format="1">
  <advance width="1058"/>
  <unicode hex="0074"/>
  <outline>
    <contour>
      <point x="506" y="1526" type="move" name="top"/>
    </contour>
    <contour>
      <point x="518" y="1291" type="move" name="caron.alt"/>
    </contour>
    <contour>
      <point x="557" y="0" type="move" name="bot"/>
    </contour>
    <contour>
      <point x="509" y="737" type="move" name="mid"/>
    </contour>
    <contour>
      <point x="245" y="1565" type="line"/>
      <point x="245" y="1259" type="line"/>
      <point x="101" y="1259" type="line"/>
      <point x="101" y="1077" type="line"/>
      <point x="245" y="1077" type="line"/>
      <point x="245" y="343" type="line" smooth="yes"/>
      <point x="245" y="46"/>
      <point x="389" y="-14"/>
      <point x="747" y="-15" type="curve" smooth="yes"/>
      <point x="848" y="-15"/>
      <point x="940" y="0"/>
      <point x="956" y="2" type="curve"/>
      <point x="957" y="214" type="line"/>
      <point x="829" y="209"/>
      <point x="741" y="227"/>
      <point x="741" y="317" type="curve" smooth="yes"/>
      <point x="741" y="1077" type="line"/>
      <point x="912" y="1077" type="line"/>
      <point x="912" y="1259" type="line"/>
      <point x="741" y="1259" type="line"/>
      <point x="741" y="1565" type="line"/>
    </contour>
  </outline>
</glyph>
<glyph name="u" format="1">
  <advance width="1540"/>
  <unicode hex="0075"/>
  <outline>
    <contour>
      <point x="762" y="1259" type="move" name="top"/>
    </contour>
    <contour>
      <point x="1089" y="0" type="move" name="ogonek"/>
    </contour>
    <contour>
      <point x="871" y="1259" type="line"/>
      <point x="871" y="233" type="line" smooth="yes"/>
      <point x="871" y="203"/>
      <point x="810" y="179"/>
      <point x="756" y="179" type="curve" smooth="yes"/>
      <point x="705" y="179"/>
      <point x="643" y="191"/>
      <point x="643" y="247" type="curve" smooth="yes"/>
      <point x="643" y="1259" type="line"/>
      <point x="147" y="1259" type="line"/>
      <point x="147" y="375" type="line" smooth="yes"/>
      <point x="147" y="106"/>
      <point x="277" y="-21"/>
      <point x="552" y="-22" type="curve" smooth="yes"/>
      <point x="704" y="-22"/>
      <point x="836" y="29"/>
      <point x="890" y="118" type="curve"/>
      <point x="924" y="0" type="line"/>
      <point x="1368" y="0" type="line"/>
      <point x="1368" y="1259" type="line"/>
    </contour>
  </outline>
</glyph>
<glyph name="v" format="1">
  <advance width="1427"/>
  <unicode hex="0076"/>
  <outline>
    <contour>
      <point x="864" y="1259" type="line"/>
      <point x="726" y="319" type="line"/>
      <point x="716" y="319" type="line"/>
      <point x="551" y="1259" type="line"/>
      <point x="73" y="1259" type="line"/>
      <point x="370" y="0" type="line"/>
      <point x="1048" y="0" type="line"/>
      <point x="1346" y="1259" type="line"/>
    </contour>
  </outline>
</glyph>
<glyph name="w" format="1">
  <advance width="1936"/>
  <unicode hex="0077"/>
  <outline>
    <contour>
      <point x="965" y="1259" type="move" name="top"/>
    </contour>
    <contour>
      <point x="967" y="0" type="move" name="bot"/>
    </contour>
    <contour>
      <point x="255" y="0" type="line"/>
      <point x="848" y="0" type="line"/>
      <point x="960" y="812" type="line"/>
      <point x="968" y="812" type="line"/>
      <point x="1084" y="0" type="line"/>
      <point x="1676" y="0" type="line"/>
      <point x="1888" y="1259" type="line"/>
      <point x="1456" y="1259" type="line"/>
      <point x="1341" y="351" type="line"/>
      <point x="1329" y="351" type="line"/>
      <point x="1205" y="1259" type="line"/>
      <point x="733" y="1259" type="line"/>
      <point x="606" y="351" type="line"/>
      <point x="595" y="351" type="line"/>
      <point x="475" y="1259" type="line"/>
      <point x="39" y="1259" type="line"/>
    </contour>
  </outline>
</glyph>
<glyph name="x" format="1">
  <advance width="1395"/>
  <unicode hex="0078"/>
  <outline>
    <contour>
      <point x="69" y="0" type="line"/>
      <point x="488" y="0" type="line"/>
      <point x="707" y="380" type="line"/>
      <point x="900" y="557" type="line"/>
      <point x="1317" y="1259" type="line"/>
      <point x="904" y="1259" type="line"/>
      <point x="698" y="884" type="line"/>
      <point x="490" y="713" type="line"/>
    </contour>
    <contour>
      <point x="832" y="0" type="line"/>
      <point x="1327" y="0" type="line"/>
      <point x="578" y="1259" type="line"/>
      <point x="79" y="1259" type="line"/>
    </contour>
  </outline>
</glyph>
<glyph name="y" format="1">
  <advance width="1406"/>
  <unicode hex="0079"/>
  <outline>
    <contour>
      <point x="703" y="1259" type="move" name="top"/>
    </contour>
    <contour>
      <point x="701" y="0" type="move" name="bot"/>
    </contour>
    <contour>
      <point x="867" y="1259" type="line"/>
      <point x="731" y="344" type="line"/>
      <point x="725" y="344" type="line"/>
      <point x="527" y="1259" type="line"/>
      <point x="67" y="1259" type="line"/>
      <point x="448" y="34" type="line"/>
      <point x="448" y="1"/>
      <point x="448" y="-25"/>
      <point x="443" y="-43" type="curve" smooth="yes"/>
      <point x="438" y="-90"/>
      <point x="404" y="-107"/>
      <point x="346" y="-107" type="curve" smooth="yes"/>
      <point x="295" y="-107"/>
      <point x="225" y="-91"/>
      <point x="145" y="-70" type="curve"/>
      <point x="108" y="-345" type="line"/>
      <point x="223" y="-376"/>
      <point x="411" y="-401"/>
      <point x="515" y="-401" type="curve" smooth="yes"/>
      <point x="753" y="-401"/>
      <point x="928" y="-319"/>
      <point x="1011" y="-11" type="curve" smooth="yes"/>
      <point x="1332" y="1259" type="line"/>
    </contour>
  </outline>
</glyph>
<glyph name="z" format="1">
  <advance width="1213"/>
  <unicode hex="007A"/>
  <outline>
    <contour>
      <point x="604" y="1259" type="move" name="top"/>
    </contour>
    <contour>
      <point x="614" y="0" type="move" name="bot"/>
    </contour>
    <contour>
      <point x="183" y="1259" type="line"/>
      <point x="194" y="1033" type="line"/>
      <point x="555" y="1033" type="line"/>
      <point x="162" y="215" type="line"/>
      <point x="185" y="0" type="line"/>
      <point x="1086" y="0" type="line"/>
      <point x="1100" y="224" type="line"/>
      <point x="702" y="224" type="line"/>
      <point x="1087" y="1055" type="line"/>
      <point x="1067" y="1259" type="line"/>
    </contour>
  </outline>
</glyph>
<glyph name="braceleft" format="1">
  <advance width="1204"/>
  <unicode hex="007B"/>
  <outline>
    <contour>
      <point x="1101" y="-306" type="curve"/>
      <point x="1101" y="-58" type="line"/>
      <point x="786" y="-58"/>
      <point x="768" y="3"/>
      <point x="769" y="301" type="curve" smooth="yes"/>
      <point x="769" y="614"/>
      <point x="716" y="740"/>
      <point x="554" y="779" type="curve"/>
      <point x="716" y="819"/>
      <point x="769" y="945"/>
      <point x="769" y="1258" type="curve" smooth="yes"/>
      <point x="768" y="1556"/>
      <point x="786" y="1617"/>
      <point x="1101" y="1617" type="curve"/>
      <point x="1101" y="1865" type="line"/>
      <point x="595" y="1865"/>
      <point x="351" y="1760"/>
      <point x="350" y="1209" type="curve" smooth="yes"/>
      <point x="350" y="987"/>
      <point x="338" y="908"/>
      <point x="148" y="908" type="curve"/>
      <point x="148" y="651" type="line"/>
      <point x="338" y="651"/>
      <point x="350" y="572"/>
      <point x="350" y="350" type="curve" smooth="yes"/>
      <point x="351" y="-201"/>
      <point x="595" y="-306"/>
    </contour>
  </outline>
</glyph>
<glyph name="bar" format="1">
  <advance width="1116"/>
  <unicode hex="007C"/>
  <outline>
    <contour>
      <point x="287" y="1779" type="line"/>
      <point x="287" y="-108" type="line"/>
      <point x="818" y="-108" type="line"/>
      <point x="818" y="1779" type="line"/>
    </contour>
  </outline>
</glyph>
<glyph name="braceright" format="1">
  <advance width="1204"/>
  <unicode hex="007D"/>
  <outline>
    <contour>
      <point x="148" y="-306" type="line"/>
      <point x="655" y="-306"/>
      <point x="898" y="-201"/>
      <point x="899" y="350" type="curve" smooth="yes"/>
      <point x="900" y="572"/>
      <point x="912" y="651"/>
      <point x="1101" y="651" type="curve"/>
      <point x="1101" y="908" type="line"/>
      <point x="912" y="908"/>
      <point x="900" y="987"/>
      <point x="899" y="1209" type="curve" smooth="yes"/>
      <point x="898" y="1760"/>
      <point x="655" y="1865"/>
      <point x="148" y="1865" type="curve"/>
      <point x="148" y="1617" type="line"/>
      <point x="463" y="1617"/>
      <point x="481" y="1556"/>
      <point x="480" y="1258" type="curve" smooth="yes"/>
      <point x="480" y="945"/>
      <point x="533" y="819"/>
      <point x="695" y="779" type="curve"/>
      <point x="533" y="740"/>
      <point x="480" y="614"/>
      <point x="480" y="301" type="curve" smooth="yes"/>
      <point x="481" y="3"/>
      <point x="463" y="-58"/>
      <point x="148" y="-58" type="curve"/>
    </contour>
  </outline>
</glyph>
<glyph name="asciitilde" format="1">
  <advance width="1493"/>
  <unicode hex="007E"/>
  <outline>
    <contour>
      <point x="1000" y="610" type="curve" smooth="yes"/>
      <point x="1191" y="585"/>
      <point x="1302" y="704"/>
      <point x="1331" y="981" type="curve"/>
      <point x="1185" y="1026" type="line"/>
      <point x="1139" y="922"/>
      <point x="1086" y="871"/>
      <point x="978" y="896" type="curve" smooth="yes"/>
      <point x="827" y="932"/>
      <point x="704" y="1085"/>
      <point x="493" y="1054" type="curve" smooth="yes"/>
      <point x="352" y="1034"/>
      <point x="262" y="960"/>
      <point x="210" y="711" type="curve"/>
      <point x="327" y="645" type="line"/>
      <point x="365" y="762"/>
      <point x="429" y="793"/>
      <point x="512" y="784" type="curve" smooth="yes"/>
      <point x="679" y="766"/>
      <point x="810" y="635"/>
    </contour>
  </outline>
</glyph>
<glyph name="cent" format="1">
  <advance width="1636"/>
  <unicode hex="00A2"/>
  <outline>
    <contour>
      <point x="757" y="1830" type="line"/>
      <point x="757" y="1518" type="line"/>
      <point x="914" y="1518" type="line"/>
      <point x="914" y="1830" type="line"/>
    </contour>
    <contour>
      <point x="759" y="42" type="line"/>
      <point x="759" y="-264" type="line"/>
      <point x="916" y="-264" type="line"/>
      <point x="916" y="42" type="line"/>
    </contour>
    <component base="C"/>
  </outline>
</glyph>
<glyph name="sterling" format="1">
  <advance width="1670"/>
  <unicode hex="00A3"/>
  <outline>
    <contour>
      <point x="128" y="0" type="line"/>
      <point x="131" y="0"/>
      <point x="315" y="0"/>
      <point x="317" y="0" type="curve" smooth="yes"/>
      <point x="525" y="3"/>
      <point x="654" y="28"/>
      <point x="740" y="132" type="curve"/>
      <point x="791" y="60"/>
      <point x="910" y="0"/>
      <point x="1084" y="0" type="curve" smooth="yes"/>
      <point x="1385" y="0"/>
      <point x="1519" y="93"/>
      <point x="1520" y="347" type="curve" smooth="yes"/>
      <point x="1523" y="537" type="line"/>
      <point x="1026" y="540" type="line"/>
      <point x="1024" y="262" type="line" smooth="yes"/>
      <point x="1024" y="248"/>
      <point x="948" y="247"/>
      <point x="917" y="247" type="curve" smooth="yes"/>
      <point x="860" y="247"/>
      <point x="790" y="251"/>
      <point x="790" y="264" type="curve" smooth="yes"/>
      <point x="790" y="715" type="line"/>
      <point x="1231" y="715" type="line"/>
      <point x="1231" y="920" type="line"/>
      <point x="790" y="920" type="line"/>
      <point x="790" y="1336" type="line" smooth="yes"/>
      <point x="790" y="1364"/>
      <point x="837" y="1370"/>
      <point x="898" y="1370" type="curve" smooth="yes"/>
      <point x="944" y="1370"/>
      <point x="997" y="1369"/>
      <point x="997" y="1349" type="curve" smooth="yes"/>
      <point x="997" y="1069" type="line"/>
      <point x="1498" y="1071" type="line"/>
      <point x="1498" y="1329" type="line" smooth="yes"/>
      <point x="1498" y="1570"/>
      <point x="1224" y="1614"/>
      <point x="920" y="1614" type="curve" smooth="yes"/>
      <point x="502" y="1614"/>
      <point x="287" y="1543"/>
      <point x="287" y="1147" type="curve" smooth="yes"/>
      <point x="287" y="921" type="line"/>
      <point x="130" y="921" type="line"/>
      <point x="130" y="716" type="line"/>
      <point x="287" y="716" type="line"/>
      <point x="287" y="359" type="line" smooth="yes"/>
      <point x="287" y="277"/>
      <point x="213" y="252"/>
      <point x="130" y="245" type="curve"/>
    </contour>
  </outline>
</glyph>
<glyph name="currency" format="1">
  <advance width="1486"/>
  <unicode hex="00A4"/>
  <outline>
    <contour>
      <point x="1204" y="194" type="line"/>
      <point x="1282" y="275" type="line"/>
      <point x="1160" y="410" type="line"/>
      <point x="1276" y="490"/>
      <point x="1328" y="611"/>
      <point x="1328" y="796" type="curve" smooth="yes"/>
      <point x="1328" y="992"/>
      <point x="1294" y="1114"/>
      <point x="1180" y="1199" type="curve"/>
      <point x="1281" y="1312" type="line"/>
      <point x="1203" y="1393" type="line"/>
      <point x="1080" y="1256" type="line"/>
      <point x="987" y="1295"/>
      <point x="878" y="1312"/>
      <point x="741" y="1312" type="curve" smooth="yes"/>
      <point x="602" y="1312"/>
      <point x="492" y="1295"/>
      <point x="398" y="1255" type="curve"/>
      <point x="274" y="1393" type="line"/>
      <point x="197" y="1312" type="line"/>
      <point x="298" y="1197" type="line"/>
      <point x="188" y="1113"/>
      <point x="154" y="982"/>
      <point x="154" y="796" type="curve" smooth="yes"/>
      <point x="154" y="608"/>
      <point x="201" y="493"/>
      <point x="318" y="412" type="curve"/>
      <point x="196" y="276" type="line"/>
      <point x="273" y="195" type="line"/>
      <point x="421" y="359" type="line"/>
      <point x="509" y="325"/>
      <point x="613" y="310"/>
      <point x="742" y="309" type="curve" smooth="yes"/>
      <point x="868" y="309"/>
      <point x="968" y="324"/>
      <point x="1057" y="356" type="curve"/>
    </contour>
    <contour>
      <point x="738" y="545" type="curve" smooth="yes"/>
      <point x="695" y="545"/>
      <point x="631" y="565"/>
      <point x="630" y="607" type="curve" smooth="yes"/>
      <point x="630" y="608"/>
      <point x="630" y="1010"/>
      <point x="630" y="1011" type="curve" smooth="yes"/>
      <point x="630" y="1054"/>
      <point x="696" y="1076"/>
      <point x="738" y="1076" type="curve" smooth="yes"/>
      <point x="783" y="1076"/>
      <point x="845" y="1054"/>
      <point x="845" y="1010" type="curve" smooth="yes"/>
      <point x="845" y="1009"/>
      <point x="845" y="608"/>
      <point x="845" y="607" type="curve" smooth="yes"/>
      <point x="844" y="566"/>
      <point x="779" y="545"/>
    </contour>
  </outline>
</glyph>
<glyph name="yen" format="1">
  <advance width="1579"/>
  <unicode hex="00A5"/>
  <outline>
    <contour>
      <point x="524" y="0" type="line"/>
      <point x="1049" y="0" type="line"/>
      <point x="1049" y="291" type="line"/>
      <point x="1378" y="291" type="line"/>
      <point x="1378" y="423" type="line"/>
      <point x="1049" y="423" type="line"/>
      <point x="1090" y="572" type="line"/>
      <point x="1388" y="572" type="line"/>
      <point x="1388" y="709" type="line"/>
      <point x="1145" y="709" type="line"/>
      <point x="1492" y="1574" type="line"/>
      <point x="1005" y="1574" type="line"/>
      <point x="798" y="797" type="line"/>
      <point x="573" y="1574" type="line"/>
      <point x="81" y="1574" type="line"/>
      <point x="430" y="709" type="line"/>
      <point x="182" y="709" type="line"/>
      <point x="182" y="572" type="line"/>
      <point x="485" y="572" type="line"/>
      <point x="524" y="423" type="line"/>
      <point x="191" y="423" type="line"/>
      <point x="191" y="291" type="line"/>
      <point x="524" y="291" type="line"/>
    </contour>
  </outline>
</glyph>
<glyph name="brokenbar" format="1">
  <advance width="1050"/>
  <unicode hex="00A6"/>
  <outline>
    <contour>
      <point x="275" y="1694" type="line"/>
      <point x="275" y="803" type="line"/>
      <point x="769" y="803" type="line"/>
      <point x="769" y="1694" type="line"/>
    </contour>
    <contour>
      <point x="275" y="639" type="line"/>
      <point x="275" y="-252" type="line"/>
      <point x="769" y="-252" type="line"/>
      <point x="769" y="639" type="line"/>
    </contour>
  </outline>
</glyph>
<glyph name="section" format="1">
  <advance width="1535"/>
  <unicode hex="00A7"/>
  <outline>
    <contour>
      <point x="748" y="-195" type="curve" smooth="yes"/>
      <point x="1080" y="-195"/>
      <point x="1340" y="-150"/>
      <point x="1340" y="235" type="curve" smooth="yes"/>
      <point x="1340" y="396"/>
      <point x="1235" y="478"/>
      <point x="1155" y="520" type="curve"/>
      <point x="1246" y="525"/>
      <point x="1355" y="629"/>
      <point x="1355" y="782" type="curve" smooth="yes"/>
      <point x="1355" y="1042"/>
      <point x="1049" y="1056"/>
      <point x="858" y="1067" type="curve" smooth="yes"/>
      <point x="789" y="1075"/>
      <point x="738" y="1072"/>
      <point x="721" y="1106" type="curve" smooth="yes"/>
      <point x="721" y="1116"/>
      <point x="723" y="1345"/>
      <point x="726" y="1348" type="curve" smooth="yes"/>
      <point x="729" y="1350"/>
      <point x="768" y="1351"/>
      <point x="776" y="1351" type="curve" smooth="yes"/>
      <point x="785" y="1351"/>
      <point x="823" y="1350"/>
      <point x="826" y="1347" type="curve" smooth="yes"/>
      <point x="830" y="1344"/>
      <point x="830" y="1166"/>
      <point x="830" y="1157" type="curve"/>
      <point x="1344" y="1157" type="line"/>
      <point x="1344" y="1196"/>
      <point x="1345" y="1231"/>
      <point x="1343" y="1267" type="curve" smooth="yes"/>
      <point x="1339" y="1586"/>
      <point x="1041" y="1609"/>
      <point x="783" y="1609" type="curve" smooth="yes"/>
      <point x="451" y="1609"/>
      <point x="192" y="1564"/>
      <point x="192" y="1179" type="curve" smooth="yes"/>
      <point x="192" y="1031"/>
      <point x="264" y="944"/>
      <point x="361" y="896" type="curve"/>
      <point x="348" y="884"/>
      <point x="178" y="790"/>
      <point x="178" y="636" type="curve" smooth="yes"/>
      <point x="178" y="403"/>
      <point x="330" y="338"/>
      <point x="568" y="334" type="curve" smooth="yes"/>
      <point x="579" y="332"/>
      <point x="811" y="326"/>
      <point x="811" y="313" type="curve" smooth="yes"/>
      <point x="811" y="304"/>
      <point x="811" y="72"/>
      <point x="808" y="69" type="curve" smooth="yes"/>
      <point x="805" y="66"/>
      <point x="768" y="66"/>
      <point x="759" y="66" type="curve" smooth="yes"/>
      <point x="750" y="66"/>
      <point x="710" y="66"/>
      <point x="707" y="68" type="curve" smooth="yes"/>
      <point x="703" y="71"/>
      <point x="702" y="249"/>
      <point x="702" y="259" type="curve"/>
      <point x="189" y="259" type="line"/>
      <point x="189" y="222"/>
      <point x="188" y="186"/>
      <point x="189" y="151" type="curve" smooth="yes"/>
      <point x="192" y="-171"/>
      <point x="488" y="-195"/>
    </contour>
    <contour>
      <point x="814" y="583" type="curve"/>
      <point x="804" y="584"/>
      <point x="765" y="585"/>
      <point x="760" y="586" type="curve" smooth="yes"/>
      <point x="747" y="589"/>
      <point x="713" y="591"/>
      <point x="713" y="606" type="curve" smooth="yes"/>
      <point x="713" y="611"/>
      <point x="714" y="817"/>
      <point x="716" y="823" type="curve"/>
      <point x="719" y="822"/>
      <point x="762" y="821"/>
      <point x="778" y="816" type="curve" smooth="yes"/>
      <point x="785" y="814"/>
      <point x="818" y="810"/>
      <point x="818" y="797" type="curve" smooth="yes"/>
      <point x="818" y="790"/>
      <point x="817" y="584"/>
    </contour>
  </outline>
</glyph>
<glyph name="dieresis" format="1">
  <advance width="1367"/>
  <unicode hex="00A8"/>
  <outline>
    <contour>
      <point x="721" y="1259" type="move" name="_top"/>
    </contour>
    <contour>
      <point x="868" y="1549" type="curve" smooth="yes"/>
      <point x="868" y="1442"/>
      <point x="937" y="1391"/>
      <point x="1031" y="1391" type="curve" smooth="yes"/>
      <point x="1126" y="1391"/>
      <point x="1191" y="1442"/>
      <point x="1191" y="1549" type="curve" smooth="yes"/>
      <point x="1191" y="1655"/>
      <point x="1126" y="1706"/>
      <point x="1031" y="1706" type="curve" smooth="yes"/>
      <point x="938" y="1706"/>
      <point x="868" y="1653"/>
    </contour>
    <contour>
      <point x="259" y="1549" type="curve" smooth="yes"/>
      <point x="259" y="1442"/>
      <point x="327" y="1391"/>
      <point x="421" y="1391" type="curve" smooth="yes"/>
      <point x="516" y="1391"/>
      <point x="582" y="1442"/>
      <point x="582" y="1549" type="curve" smooth="yes"/>
      <point x="582" y="1655"/>
      <point x="516" y="1706"/>
      <point x="421" y="1706" type="curve" smooth="yes"/>
      <point x="329" y="1706"/>
      <point x="259" y="1653"/>
    </contour>
  </outline>
</glyph>
<glyph name="copyright" format="1">
  <advance width="2090"/>
  <unicode hex="00A9"/>
  <outline>
    <contour>
      <point x="1025" y="263" type="curve" smooth="yes"/>
      <point x="1291" y="263"/>
      <point x="1422" y="304"/>
      <point x="1422" y="544" type="curve" smooth="yes"/>
      <point x="1422" y="728" type="line"/>
      <point x="1175" y="728" type="line"/>
      <point x="1175" y="451" type="line" smooth="yes"/>
      <point x="1174" y="416"/>
      <point x="1091" y="414"/>
      <point x="1045" y="414" type="curve" smooth="yes"/>
      <point x="998" y="414"/>
      <point x="912" y="420"/>
      <point x="912" y="449" type="curve" smooth="yes"/>
      <point x="912" y="1188" type="line" smooth="yes"/>
      <point x="912" y="1217"/>
      <point x="994" y="1220"/>
      <point x="1045" y="1220" type="curve" smooth="yes"/>
      <point x="1092" y="1220"/>
      <point x="1174" y="1216"/>
      <point x="1175" y="1180" type="curve" smooth="yes"/>
      <point x="1175" y="912" type="line"/>
      <point x="1422" y="912" type="line"/>
      <point x="1421" y="1089" type="line" smooth="yes"/>
      <point x="1420" y="1351"/>
      <point x="1245" y="1370"/>
      <point x="1025" y="1370" type="curve" smooth="yes"/>
      <point x="774" y="1370"/>
      <point x="659" y="1318"/>
      <point x="659" y="1067" type="curve" smooth="yes"/>
      <point x="659" y="577" type="line" smooth="yes"/>
      <point x="659" y="310"/>
      <point x="789" y="263"/>
    </contour>
    <contour>
      <point x="1036" y="56" type="curve" smooth="yes"/>
      <point x="636" y="56"/>
      <point x="410" y="162"/>
      <point x="410" y="549" type="curve" smooth="yes"/>
      <point x="410" y="1071" type="line" smooth="yes"/>
      <point x="410" y="1458"/>
      <point x="634" y="1563"/>
      <point x="1038" y="1563" type="curve" smooth="yes"/>
      <point x="1387" y="1563"/>
      <point x="1667" y="1481"/>
      <point x="1667" y="1112" type="curve" smooth="yes"/>
      <point x="1667" y="507" type="line" smooth="yes"/>
      <point x="1667" y="150"/>
      <point x="1409" y="56"/>
    </contour>
    <contour>
      <point x="1041" y="-100" type="curve" smooth="yes"/>
      <point x="1484" y="-100"/>
      <point x="1884" y="24"/>
      <point x="1884" y="553" type="curve" smooth="yes"/>
      <point x="1884" y="1073" type="line" smooth="yes"/>
      <point x="1884" y="1582"/>
      <point x="1535" y="1725"/>
      <point x="1039" y="1725" type="curve" smooth="yes"/>
      <point x="597" y="1725"/>
      <point x="193" y="1605"/>
      <point x="193" y="1073" type="curve" smooth="yes"/>
      <point x="193" y="553" type="line" smooth="yes"/>
      <point x="193" y="47"/>
      <point x="541" y="-100"/>
    </contour>
  </outline>
</glyph>
<glyph name="ordfeminine" format="1">
  <advance width="1490"/>
  <unicode hex="00AA"/>
  <outline>
    <contour>
      <point x="520" y="327" type="curve" smooth="yes"/>
      <point x="681" y="327"/>
      <point x="791" y="382"/>
      <point x="847" y="487" type="curve"/>
      <point x="897" y="351" type="line"/>
      <point x="1315" y="350" type="line"/>
      <point x="1315" y="1231" type="line" smooth="yes"/>
      <point x="1315" y="1552"/>
      <point x="1096" y="1595"/>
      <point x="737" y="1595" type="curve" smooth="yes"/>
      <point x="463" y="1595"/>
      <point x="190" y="1561"/>
      <point x="190" y="1294" type="curve" smooth="yes"/>
      <point x="190" y="1292"/>
      <point x="190" y="1202"/>
      <point x="190" y="1200" type="curve"/>
      <point x="644" y="1216" type="line"/>
      <point x="644" y="1218"/>
      <point x="644" y="1374"/>
      <point x="644" y="1376" type="curve" smooth="yes"/>
      <point x="644" y="1390"/>
      <point x="704" y="1396"/>
      <point x="736" y="1396" type="curve" smooth="yes"/>
      <point x="770" y="1396"/>
      <point x="827" y="1391"/>
      <point x="827" y="1374" type="curve" smooth="yes"/>
      <point x="827" y="1075" type="line"/>
      <point x="822" y="1075"/>
      <point x="629" y="1076"/>
      <point x="624" y="1076" type="curve" smooth="yes"/>
      <point x="320" y="1077"/>
      <point x="129" y="994"/>
      <point x="129" y="718" type="curve" smooth="yes"/>
      <point x="129" y="450"/>
      <point x="249" y="327"/>
    </contour>
    <contour>
      <point x="646" y="530" type="curve" smooth="yes"/>
      <point x="617" y="530"/>
      <point x="617" y="898"/>
      <point x="617" y="929" type="curve" smooth="yes"/>
      <point x="617" y="945"/>
      <point x="761" y="950"/>
      <point x="827" y="951" type="curve"/>
      <point x="827" y="569" type="line" smooth="yes"/>
      <point x="826" y="547"/>
      <point x="689" y="530"/>
    </contour>
  </outline>
</glyph>
<glyph name="guillemotleft" format="1">
  <advance width="1672"/>
  <unicode hex="00AB"/>
  <outline>
    <contour>
      <point x="746" y="202" type="curve" smooth="yes"/>
      <point x="790" y="202"/>
      <point x="824" y="241"/>
      <point x="824" y="286" type="curve" smooth="yes"/>
      <point x="824" y="308"/>
      <point x="817" y="330"/>
      <point x="800" y="351" type="curve"/>
      <point x="450" y="778" type="line"/>
      <point x="800" y="1205" type="line"/>
      <point x="818" y="1228"/>
      <point x="825" y="1251"/>
      <point x="825" y="1271" type="curve" smooth="yes"/>
      <point x="825" y="1317"/>
      <point x="792" y="1354"/>
      <point x="747" y="1353" type="curve" smooth="yes"/>
      <point x="729" y="1354"/>
      <point x="708" y="1348"/>
      <point x="685" y="1331" type="curve" smooth="yes"/>
      <point x="163" y="949" type="line" smooth="yes"/>
      <point x="107" y="908"/>
      <point x="78" y="842"/>
      <point x="77" y="776" type="curve"/>
      <point x="77" y="713"/>
      <point x="105" y="649"/>
      <point x="163" y="607" type="curve" smooth="yes"/>
      <point x="685" y="225" type="line" smooth="yes"/>
      <point x="705" y="209"/>
      <point x="727" y="202"/>
    </contour>
    <contour>
      <point x="1447" y="202" type="curve" smooth="yes"/>
      <point x="1491" y="202"/>
      <point x="1524" y="241"/>
      <point x="1524" y="286" type="curve" smooth="yes"/>
      <point x="1524" y="308"/>
      <point x="1518" y="330"/>
      <point x="1501" y="351" type="curve"/>
      <point x="1151" y="778" type="line"/>
      <point x="1501" y="1205" type="line"/>
      <point x="1519" y="1228"/>
      <point x="1525" y="1251"/>
      <point x="1525" y="1271" type="curve" smooth="yes"/>
      <point x="1525" y="1317"/>
      <point x="1493" y="1354"/>
      <point x="1448" y="1353" type="curve" smooth="yes"/>
      <point x="1431" y="1354"/>
      <point x="1408" y="1348"/>
      <point x="1385" y="1331" type="curve" smooth="yes"/>
      <point x="864" y="949" type="line" smooth="yes"/>
      <point x="808" y="908"/>
      <point x="778" y="842"/>
      <point x="778" y="776" type="curve"/>
      <point x="778" y="713"/>
      <point x="806" y="649"/>
      <point x="864" y="607" type="curve" smooth="yes"/>
      <point x="1385" y="225" type="line" smooth="yes"/>
      <point x="1407" y="208"/>
      <point x="1428" y="202"/>
    </contour>
  </outline>
</glyph>
<glyph name="logicalnot" format="1">
  <advance width="1458"/>
  <unicode hex="00AC"/>
  <outline>
    <contour>
      <point x="1031" y="292" type="line"/>
      <point x="1244" y="292" type="line"/>
      <point x="1244" y="1043" type="line"/>
      <point x="182" y="1043" type="line"/>
      <point x="182" y="762" type="line"/>
      <point x="1031" y="762" type="line"/>
    </contour>
  </outline>
</glyph>
<glyph name="uni00AD" format="1">
  <advance width="1258"/>
  <unicode hex="00AD"/>
  <outline>
    <contour>
      <point x="214" y="559" type="line"/>
      <point x="1038" y="559" type="line"/>
      <point x="1038" y="863" type="line"/>
      <point x="214" y="863" type="line"/>
    </contour>
  </outline>
</glyph>
<glyph name="registered" format="1">
  <advance width="2053"/>
  <unicode hex="00AE"/>
  <outline>
    <contour>
      <point x="617" y="277" type="line"/>
      <point x="953" y="277" type="line"/>
      <point x="953" y="752" type="line"/>
      <point x="1033" y="752" type="line" smooth="yes"/>
      <point x="1064" y="752"/>
      <point x="1105" y="744"/>
      <point x="1104" y="708" type="curve" smooth="yes"/>
      <point x="1104" y="277" type="line"/>
      <point x="1433" y="277" type="line"/>
      <point x="1433" y="636" type="line" smooth="yes"/>
      <point x="1433" y="744"/>
      <point x="1387" y="812"/>
      <point x="1297" y="819" type="curve"/>
      <point x="1296" y="849" type="line"/>
      <point x="1384" y="858"/>
      <point x="1438" y="931"/>
      <point x="1438" y="1061" type="curve" smooth="yes"/>
      <point x="1438" y="1138" type="line" smooth="yes"/>
      <point x="1438" y="1388"/>
      <point x="1267" y="1405"/>
      <point x="1089" y="1405" type="curve" smooth="yes"/>
      <point x="617" y="1405" type="line"/>
    </contour>
    <contour>
      <point x="1021" y="56" type="curve" smooth="yes"/>
      <point x="621" y="56"/>
      <point x="395" y="162"/>
      <point x="395" y="549" type="curve" smooth="yes"/>
      <point x="395" y="1071" type="line" smooth="yes"/>
      <point x="395" y="1458"/>
      <point x="619" y="1563"/>
      <point x="1023" y="1563" type="curve" smooth="yes"/>
      <point x="1372" y="1563"/>
      <point x="1652" y="1481"/>
      <point x="1652" y="1112" type="curve" smooth="yes"/>
      <point x="1652" y="507" type="line" smooth="yes"/>
      <point x="1652" y="150"/>
      <point x="1394" y="56"/>
    </contour>
    <contour>
      <point x="1025" y="-100" type="curve" smooth="yes"/>
      <point x="1468" y="-100"/>
      <point x="1868" y="24"/>
      <point x="1868" y="553" type="curve" smooth="yes"/>
      <point x="1868" y="1073" type="line" smooth="yes"/>
      <point x="1868" y="1582"/>
      <point x="1519" y="1725"/>
      <point x="1023" y="1725" type="curve" smooth="yes"/>
      <point x="582" y="1725"/>
      <point x="178" y="1605"/>
      <point x="178" y="1073" type="curve" smooth="yes"/>
      <point x="178" y="553" type="line" smooth="yes"/>
      <point x="178" y="47"/>
      <point x="526" y="-100"/>
    </contour>
    <contour>
      <point x="953" y="898" type="line"/>
      <point x="953" y="1256" type="line"/>
      <point x="1033" y="1256" type="line" smooth="yes"/>
      <point x="1059" y="1256"/>
      <point x="1104" y="1254"/>
      <point x="1104" y="1222" type="curve" smooth="yes"/>
      <point x="1104" y="933" type="line" smooth="yes"/>
      <point x="1104" y="903"/>
      <point x="1064" y="898"/>
      <point x="1026" y="898" type="curve" smooth="yes"/>
    </contour>
  </outline>
</glyph>
<glyph name="macron" format="1">
  <advance width="1217"/>
  <unicode hex="00AF"/>
  <outline>
    <contour>
      <point x="706" y="1259" type="move" name="_top"/>
    </contour>
    <contour>
      <point x="710" y="1576" type="move" name="_mid"/>
    </contour>
    <contour>
      <point x="317" y="1680" type="line"/>
      <point x="317" y="1470" type="line"/>
      <point x="1103" y="1470" type="line"/>
      <point x="1103" y="1680" type="line"/>
    </contour>
  </outline>
</glyph>
<glyph name="degree" format="1">
  <advance width="1075"/>
  <unicode hex="00B0"/>
  <outline>
    <contour>
      <point x="533" y="1209" type="curve" smooth="yes"/>
      <point x="447" y="1209"/>
      <point x="388" y="1270"/>
      <point x="388" y="1361" type="curve" smooth="yes"/>
      <point x="388" y="1452"/>
      <point x="447" y="1513"/>
      <point x="533" y="1513" type="curve" smooth="yes"/>
      <point x="619" y="1513"/>
      <point x="677" y="1452"/>
      <point x="677" y="1361" type="curve" smooth="yes"/>
      <point x="677" y="1270"/>
      <point x="619" y="1209"/>
    </contour>
    <contour>
      <point x="533" y="1065" type="curve" smooth="yes"/>
      <point x="736" y="1065"/>
      <point x="858" y="1205"/>
      <point x="858" y="1361" type="curve" smooth="yes"/>
      <point x="858" y="1517"/>
      <point x="736" y="1657"/>
      <point x="533" y="1657" type="curve" smooth="yes"/>
      <point x="329" y="1657"/>
      <point x="207" y="1517"/>
      <point x="207" y="1361" type="curve" smooth="yes"/>
      <point x="207" y="1205"/>
      <point x="329" y="1065"/>
    </contour>
  </outline>
</glyph>
<glyph name="plusminus" format="1">
  <advance width="1441"/>
  <unicode hex="00B1"/>
  <outline>
    <contour>
      <point x="548" y="455" type="line"/>
      <point x="891" y="455" type="line"/>
      <point x="891" y="834" type="line"/>
      <point x="1260" y="834" type="line"/>
      <point x="1260" y="1131" type="line"/>
      <point x="891" y="1131" type="line"/>
      <point x="891" y="1513" type="line"/>
      <point x="548" y="1513" type="line"/>
      <point x="548" y="1131" type="line"/>
      <point x="178" y="1131" type="line"/>
      <point x="178" y="834" type="line"/>
      <point x="548" y="834" type="line"/>
    </contour>
    <contour>
      <point x="289" y="-1" type="line"/>
      <point x="1141" y="-1" type="line"/>
      <point x="1141" y="270" type="line"/>
      <point x="289" y="270" type="line"/>
    </contour>
  </outline>
</glyph>
<glyph name="twosuperior" format="1">
  <advance width="1106"/>
  <unicode hex="00B2"/>
  <outline>
    <contour>
      <point x="173" y="518" type="line"/>
      <point x="967" y="518" type="line"/>
      <point x="967" y="705" type="line"/>
      <point x="499" y="705" type="line"/>
      <point x="499" y="787"/>
      <point x="564" y="834"/>
      <point x="664" y="873" type="curve" smooth="yes"/>
      <point x="831" y="943"/>
      <point x="1003" y="1018"/>
      <point x="1003" y="1260" type="curve" smooth="yes"/>
      <point x="1003" y="1526"/>
      <point x="851" y="1593"/>
      <point x="589" y="1593" type="curve" smooth="yes"/>
      <point x="346" y="1593"/>
      <point x="166" y="1532"/>
      <point x="170" y="1262" type="curve" smooth="yes"/>
      <point x="171" y="1220" type="line"/>
      <point x="501" y="1224" type="line"/>
      <point x="501" y="1391" type="line" smooth="yes"/>
      <point x="501" y="1407"/>
      <point x="544" y="1419"/>
      <point x="585" y="1419" type="curve" smooth="yes"/>
      <point x="623" y="1419"/>
      <point x="668" y="1410"/>
      <point x="668" y="1395" type="curve" smooth="yes"/>
      <point x="668" y="1258" type="line" smooth="yes"/>
      <point x="668" y="1196"/>
      <point x="596" y="1168"/>
      <point x="510" y="1137" type="curve" smooth="yes"/>
      <point x="298" y="1059"/>
      <point x="173" y="949"/>
      <point x="173" y="687" type="curve" smooth="yes"/>
    </contour>
  </outline>
</glyph>
<glyph name="threesuperior" format="1">
  <advance width="1251"/>
  <unicode hex="00B3"/>
  <outline>
    <contour>
      <point x="631" y="495" type="curve" smooth="yes"/>
      <point x="937" y="495"/>
      <point x="1054" y="583"/>
      <point x="1054" y="829" type="curve" smooth="yes"/>
      <point x="1054" y="937"/>
      <point x="1016" y="1025"/>
      <point x="922" y="1059" type="curve"/>
      <point x="1007" y="1093"/>
      <point x="1052" y="1163"/>
      <point x="1052" y="1271" type="curve" smooth="yes"/>
      <point x="1052" y="1518"/>
      <point x="926" y="1595"/>
      <point x="630" y="1595" type="curve" smooth="yes"/>
      <point x="338" y="1595"/>
      <point x="210" y="1512"/>
      <point x="210" y="1249" type="curve"/>
      <point x="210" y="1200" type="line"/>
      <point x="540" y="1200" type="line"/>
      <point x="541" y="1387" type="line" smooth="yes"/>
      <point x="541" y="1421"/>
      <point x="591" y="1425"/>
      <point x="628" y="1425" type="curve" smooth="yes"/>
      <point x="665" y="1425"/>
      <point x="716" y="1418"/>
      <point x="716" y="1392" type="curve"/>
      <point x="716" y="1366"/>
      <point x="718" y="1131"/>
      <point x="706" y="1131" type="curve" smooth="yes"/>
      <point x="516" y="1131" type="line"/>
      <point x="516" y="989" type="line"/>
      <point x="706" y="989" type="line" smooth="yes"/>
      <point x="717" y="989"/>
      <point x="716" y="729"/>
      <point x="716" y="707" type="curve"/>
      <point x="716" y="680"/>
      <point x="663" y="670"/>
      <point x="630" y="670" type="curve"/>
      <point x="584" y="670"/>
      <point x="539" y="680"/>
      <point x="540" y="710" type="curve" smooth="yes"/>
      <point x="540" y="917" type="line"/>
      <point x="210" y="917" type="line"/>
      <point x="210" y="861" type="line" smooth="yes"/>
      <point x="210" y="611"/>
      <point x="327" y="495"/>
    </contour>
  </outline>
</glyph>
<glyph name="acute" format="1">
  <advance width="1164"/>
  <unicode hex="00B4"/>
  <outline>
    <contour>
      <point x="494" y="1259" type="move" name="_top"/>
    </contour>
    <contour>
      <point x="389" y="1438" type="curve" smooth="yes"/>
      <point x="554" y="1488"/>
      <point x="857" y="1573"/>
      <point x="945" y="1623" type="curve" smooth="yes"/>
      <point x="1020" y="1665"/>
      <point x="1052" y="1730"/>
      <point x="1052" y="1790" type="curve" smooth="yes"/>
      <point x="1052" y="1875"/>
      <point x="988" y="1952"/>
      <point x="893" y="1952" type="curve" smooth="yes"/>
      <point x="856" y="1952"/>
      <point x="817" y="1940"/>
      <point x="776" y="1915" type="curve" smooth="yes"/>
      <point x="687" y="1863"/>
      <point x="468" y="1645"/>
      <point x="337" y="1526" type="curve" smooth="yes"/>
      <point x="309" y="1500"/>
      <point x="304" y="1474"/>
      <point x="315" y="1457" type="curve" smooth="yes"/>
      <point x="327" y="1437"/>
      <point x="357" y="1426"/>
    </contour>
  </outline>
</glyph>
<glyph name="paragraph" format="1">
  <advance width="1510"/>
  <unicode hex="00B6"/>
  <outline>
    <contour>
      <point x="752" y="1574" type="line"/>
      <point x="417" y="1574"/>
      <point x="162" y="1489"/>
      <point x="162" y="1113" type="curve" smooth="yes"/>
      <point x="162" y="809"/>
      <point x="361" y="688"/>
      <point x="690" y="688" type="curve"/>
      <point x="690" y="-46" type="line"/>
      <point x="924" y="-46" type="line"/>
      <point x="924" y="803" type="line"/>
      <point x="1053" y="803" type="line"/>
      <point x="1053" y="-46" type="line"/>
      <point x="1284" y="-46" type="line"/>
      <point x="1284" y="1574" type="line"/>
    </contour>
  </outline>
</glyph>
<glyph name="periodcentered" format="1">
  <advance width="1142"/>
  <unicode hex="00B7"/>
  <outline>
    <contour>
      <point x="291" y="1026" type="move" name="_mid"/>
    </contour>
    <contour>
      <point x="781" y="860" type="curve" smooth="yes"/>
      <point x="866" y="860"/>
      <point x="943" y="920"/>
      <point x="943" y="1029" type="curve" smooth="yes"/>
      <point x="943" y="1139"/>
      <point x="865" y="1198"/>
      <point x="781" y="1198" type="curve" smooth="yes"/>
      <point x="697" y="1198"/>
      <point x="619" y="1139"/>
      <point x="619" y="1029" type="curve" smooth="yes"/>
      <point x="619" y="920"/>
      <point x="698" y="860"/>
    </contour>
  </outline>
</glyph>
<glyph name="cedilla" format="1">
  <advance width="997"/>
  <unicode hex="00B8"/>
  <outline>
    <contour>
      <point x="570" y="0" type="move" name="_bot"/>
    </contour>
    <contour>
      <point x="519" y="18" type="line"/>
      <point x="479" y="-132" type="line" smooth="yes"/>
      <point x="453" y="-230"/>
      <point x="441" y="-281"/>
      <point x="440" y="-286" type="curve"/>
      <point x="534" y="-286"/>
      <point x="580" y="-314"/>
      <point x="580" y="-366" type="curve" smooth="yes"/>
      <point x="580" y="-400"/>
      <point x="559" y="-412"/>
      <point x="525" y="-412" type="curve" smooth="yes"/>
      <point x="463" y="-412"/>
      <point x="370" y="-364"/>
      <point x="362" y="-362" type="curve"/>
      <point x="309" y="-462" type="line"/>
      <point x="375" y="-521"/>
      <point x="468" y="-550"/>
      <point x="555" y="-550" type="curve" smooth="yes"/>
      <point x="683" y="-550"/>
      <point x="804" y="-486"/>
      <point x="804" y="-354" type="curve" smooth="yes"/>
      <point x="804" y="-200"/>
      <point x="716" y="-169"/>
      <point x="588" y="-151" type="curve"/>
      <point x="637" y="18" type="line"/>
    </contour>
  </outline>
</glyph>
<glyph name="onesuperior" format="1">
  <advance width="906"/>
  <unicode hex="00B9"/>
  <outline>
    <contour>
      <point x="300" y="522" type="line"/>
      <point x="653" y="522" type="line"/>
      <point x="653" y="1574" type="line"/>
      <point x="381" y="1574" type="line"/>
      <point x="324" y="1539"/>
      <point x="246" y="1519"/>
      <point x="156" y="1519" type="curve"/>
      <point x="156" y="1379" type="line"/>
      <point x="300" y="1379" type="line"/>
    </contour>
  </outline>
</glyph>
<glyph name="ordmasculine" format="1">
  <advance width="1341"/>
  <unicode hex="00BA"/>
  <outline>
    <contour>
      <point x="669" y="540" type="curve" smooth="yes"/>
      <point x="928" y="543"/>
      <point x="1154" y="566"/>
      <point x="1154" y="870" type="curve" smooth="yes"/>
      <point x="1154" y="1260" type="line" smooth="yes"/>
      <point x="1155" y="1562"/>
      <point x="932" y="1594"/>
      <point x="670" y="1594" type="curve" smooth="yes"/>
      <point x="418" y="1594"/>
      <point x="179" y="1566"/>
      <point x="179" y="1261" type="curve" smooth="yes"/>
      <point x="179" y="871" type="line" smooth="yes"/>
      <point x="179" y="570"/>
      <point x="403" y="540"/>
    </contour>
    <contour>
      <point x="576" y="749" type="curve" smooth="yes"/>
      <point x="576" y="1407" type="line" smooth="yes"/>
      <point x="576" y="1419"/>
      <point x="647" y="1421"/>
      <point x="667" y="1421" type="curve" smooth="yes"/>
      <point x="687" y="1421"/>
      <point x="758" y="1419"/>
      <point x="758" y="1407" type="curve" smooth="yes"/>
      <point x="758" y="749" type="line" smooth="yes"/>
      <point x="758" y="738"/>
      <point x="694" y="736"/>
      <point x="667" y="736" type="curve" smooth="yes"/>
      <point x="641" y="736"/>
      <point x="576" y="738"/>
    </contour>
  </outline>
</glyph>
<glyph name="guillemotright" format="1">
  <advance width="1678"/>
  <unicode hex="00BB"/>
  <outline>
    <contour>
      <point x="190" y="202" type="curve" smooth="yes"/>
      <point x="209" y="202"/>
      <point x="230" y="208"/>
      <point x="252" y="225" type="curve" smooth="yes"/>
      <point x="773" y="607" type="line" smooth="yes"/>
      <point x="831" y="649"/>
      <point x="859" y="713"/>
      <point x="859" y="776" type="curve"/>
      <point x="858" y="842"/>
      <point x="829" y="908"/>
      <point x="773" y="949" type="curve" smooth="yes"/>
      <point x="252" y="1331" type="line" smooth="yes"/>
      <point x="229" y="1348"/>
      <point x="206" y="1354"/>
      <point x="189" y="1353" type="curve" smooth="yes"/>
      <point x="144" y="1354"/>
      <point x="111" y="1317"/>
      <point x="111" y="1271" type="curve" smooth="yes"/>
      <point x="111" y="1251"/>
      <point x="117" y="1228"/>
      <point x="136" y="1205" type="curve" smooth="yes"/>
      <point x="486" y="778" type="line"/>
      <point x="136" y="351" type="line" smooth="yes"/>
      <point x="119" y="330"/>
      <point x="113" y="308"/>
      <point x="113" y="286" type="curve" smooth="yes"/>
      <point x="113" y="241"/>
      <point x="146" y="202"/>
    </contour>
    <contour>
      <point x="891" y="202" type="curve" smooth="yes"/>
      <point x="909" y="202"/>
      <point x="931" y="209"/>
      <point x="952" y="225" type="curve" smooth="yes"/>
      <point x="1474" y="607" type="line" smooth="yes"/>
      <point x="1532" y="649"/>
      <point x="1560" y="713"/>
      <point x="1560" y="776" type="curve"/>
      <point x="1559" y="842"/>
      <point x="1530" y="908"/>
      <point x="1474" y="949" type="curve" smooth="yes"/>
      <point x="952" y="1331" type="line" smooth="yes"/>
      <point x="929" y="1348"/>
      <point x="908" y="1354"/>
      <point x="889" y="1353" type="curve" smooth="yes"/>
      <point x="845" y="1354"/>
      <point x="811" y="1317"/>
      <point x="811" y="1271" type="curve" smooth="yes"/>
      <point x="811" y="1251"/>
      <point x="818" y="1228"/>
      <point x="836" y="1205" type="curve" smooth="yes"/>
      <point x="1186" y="778" type="line"/>
      <point x="836" y="351" type="line" smooth="yes"/>
      <point x="819" y="330"/>
      <point x="813" y="308"/>
      <point x="813" y="286" type="curve" smooth="yes"/>
      <point x="813" y="241"/>
      <point x="847" y="202"/>
    </contour>
  </outline>
</glyph>
<glyph name="onequarter" format="1">
  <advance width="2548"/>
  <unicode hex="00BC"/>
  <outline>
    <contour>
      <point x="2099" y="0" type="line"/>
      <point x="2423" y="0" type="line"/>
      <point x="2423" y="642" type="line"/>
      <point x="2099" y="642" type="line"/>
      <point x="2099" y="404" type="line"/>
      <point x="1918" y="404" type="line"/>
      <point x="1918" y="436" type="line"/>
      <point x="2122" y="1054" type="line"/>
      <point x="1779" y="1054" type="line"/>
      <point x="1569" y="433" type="line"/>
      <point x="1569" y="179" type="line"/>
      <point x="2099" y="179" type="line"/>
    </contour>
    <contour>
      <point x="225" y="534" type="line"/>
      <point x="578" y="534" type="line"/>
      <point x="578" y="1574" type="line"/>
      <point x="306" y="1574" type="line"/>
      <point x="249" y="1539"/>
      <point x="171" y="1519"/>
      <point x="81" y="1519" type="curve"/>
      <point x="81" y="1379" type="line"/>
      <point x="225" y="1379" type="line"/>
    </contour>
    <contour>
      <point x="758" y="0" type="line"/>
      <point x="1061" y="0" type="line"/>
      <point x="1552" y="1581" type="line"/>
      <point x="1158" y="1581" type="line"/>
    </contour>
  </outline>
</glyph>
<glyph name="onehalf" format="1">
  <advance width="2607"/>
  <unicode hex="00BD"/>
  <outline>
    <contour>
      <point x="1671" y="0" type="line"/>
      <point x="2466" y="0" type="line"/>
      <point x="2466" y="187" type="line"/>
      <point x="1998" y="187" type="line"/>
      <point x="1998" y="269"/>
      <point x="2063" y="316"/>
      <point x="2163" y="355" type="curve" smooth="yes"/>
      <point x="2330" y="425"/>
      <point x="2502" y="500"/>
      <point x="2502" y="742" type="curve" smooth="yes"/>
      <point x="2502" y="1008"/>
      <point x="2350" y="1075"/>
      <point x="2088" y="1075" type="curve" smooth="yes"/>
      <point x="1845" y="1075"/>
      <point x="1664" y="1014"/>
      <point x="1669" y="744" type="curve" smooth="yes"/>
      <point x="1670" y="702" type="line"/>
      <point x="2000" y="706" type="line"/>
      <point x="2000" y="873" type="line" smooth="yes"/>
      <point x="2000" y="888"/>
      <point x="2043" y="901"/>
      <point x="2084" y="901" type="curve" smooth="yes"/>
      <point x="2122" y="900"/>
      <point x="2167" y="892"/>
      <point x="2167" y="877" type="curve" smooth="yes"/>
      <point x="2167" y="740" type="line" smooth="yes"/>
      <point x="2167" y="678"/>
      <point x="2095" y="650"/>
      <point x="2009" y="619" type="curve" smooth="yes"/>
      <point x="1797" y="540"/>
      <point x="1671" y="431"/>
      <point x="1671" y="169" type="curve" smooth="yes"/>
    </contour>
    <contour>
      <point x="225" y="534" type="line"/>
      <point x="578" y="534" type="line"/>
      <point x="578" y="1574" type="line"/>
      <point x="306" y="1574" type="line"/>
      <point x="249" y="1539"/>
      <point x="171" y="1519"/>
      <point x="81" y="1519" type="curve"/>
      <point x="81" y="1379" type="line"/>
      <point x="225" y="1379" type="line"/>
    </contour>
    <contour>
      <point x="784" y="0" type="line"/>
      <point x="1087" y="0" type="line"/>
      <point x="1578" y="1581" type="line"/>
      <point x="1184" y="1581" type="line"/>
    </contour>
  </outline>
</glyph>
<glyph name="threequarters" format="1">
  <advance width="2810"/>
  <unicode hex="00BE"/>
  <outline>
    <contour>
      <point x="2361" y="0" type="line"/>
      <point x="2686" y="0" type="line"/>
      <point x="2686" y="642" type="line"/>
      <point x="2361" y="642" type="line"/>
      <point x="2361" y="404" type="line"/>
      <point x="2181" y="404" type="line"/>
      <point x="2181" y="436" type="line"/>
      <point x="2384" y="1054" type="line"/>
      <point x="2041" y="1054" type="line"/>
      <point x="1831" y="433" type="line"/>
      <point x="1831" y="179" type="line"/>
      <point x="2361" y="179" type="line"/>
    </contour>
    <contour>
      <point x="1053" y="0" type="line"/>
      <point x="1356" y="0" type="line"/>
      <point x="1847" y="1581" type="line"/>
      <point x="1453" y="1581" type="line"/>
    </contour>
    <contour>
      <point x="565" y="493" type="curve" smooth="yes"/>
      <point x="872" y="493"/>
      <point x="989" y="581"/>
      <point x="989" y="827" type="curve" smooth="yes"/>
      <point x="989" y="935"/>
      <point x="951" y="1023"/>
      <point x="857" y="1057" type="curve"/>
      <point x="942" y="1091"/>
      <point x="987" y="1161"/>
      <point x="987" y="1269" type="curve" smooth="yes"/>
      <point x="987" y="1516"/>
      <point x="860" y="1593"/>
      <point x="564" y="1593" type="curve" smooth="yes"/>
      <point x="272" y="1593"/>
      <point x="145" y="1510"/>
      <point x="145" y="1247" type="curve"/>
      <point x="145" y="1198" type="line"/>
      <point x="475" y="1198" type="line"/>
      <point x="475" y="1385" type="line" smooth="yes"/>
      <point x="476" y="1419"/>
      <point x="526" y="1423"/>
      <point x="563" y="1423" type="curve" smooth="yes"/>
      <point x="600" y="1423"/>
      <point x="651" y="1416"/>
      <point x="651" y="1389" type="curve"/>
      <point x="651" y="1364"/>
      <point x="653" y="1129"/>
      <point x="641" y="1129" type="curve" smooth="yes"/>
      <point x="451" y="1129" type="line"/>
      <point x="451" y="987" type="line"/>
      <point x="641" y="987" type="line" smooth="yes"/>
      <point x="651" y="987"/>
      <point x="651" y="727"/>
      <point x="651" y="705" type="curve"/>
      <point x="651" y="677"/>
      <point x="598" y="668"/>
      <point x="564" y="668" type="curve"/>
      <point x="519" y="668"/>
      <point x="474" y="678"/>
      <point x="475" y="708" type="curve" smooth="yes"/>
      <point x="475" y="915" type="line"/>
      <point x="145" y="915" type="line"/>
      <point x="145" y="859" type="line" smooth="yes"/>
      <point x="145" y="609"/>
      <point x="262" y="493"/>
    </contour>
  </outline>
</glyph>
<glyph name="AE" format="1">
  <advance width="1932"/>
  <unicode hex="00C6"/>
  <outline>
    <contour>
      <point x="1116" y="1574" type="move" name="top"/>
    </contour>
    <contour>
      <point x="11" y="0" type="line"/>
      <point x="557" y="0" type="line"/>
      <point x="702" y="355" type="line"/>
      <point x="985" y="355" type="line"/>
      <point x="985" y="0" type="line"/>
      <point x="1903" y="0" type="line"/>
      <point x="1903" y="229" type="line"/>
      <point x="1498" y="229" type="line"/>
      <point x="1498" y="708" type="line"/>
      <point x="1859" y="708" type="line"/>
      <point x="1859" y="942" type="line"/>
      <point x="1498" y="942" type="line"/>
      <point x="1498" y="1348" type="line"/>
      <point x="1899" y="1348" type="line"/>
      <point x="1899" y="1574" type="line"/>
      <point x="709" y="1574" type="line"/>
    </contour>
    <contour>
      <point x="774" y="567" type="line"/>
      <point x="985" y="1113" type="line"/>
      <point x="985" y="567" type="line"/>
    </contour>
  </outline>
</glyph>
<glyph name="multiply" format="1">
  <advance width="1340"/>
  <unicode hex="00D7"/>
  <outline>
    <contour>
      <point x="413" y="61" type="curve"/>
      <point x="666" y="331" type="line"/>
      <point x="917" y="61" type="line"/>
      <point x="1219" y="384" type="line"/>
      <point x="968" y="653" type="line"/>
      <point x="1219" y="923" type="line"/>
      <point x="917" y="1246" type="line"/>
      <point x="666" y="976" type="line"/>
      <point x="413" y="1246" type="line"/>
      <point x="400" y="1231"/>
      <point x="116" y="929"/>
      <point x="111" y="923" type="curve"/>
      <point x="153" y="877"/>
      <point x="361" y="655"/>
      <point x="362" y="653" type="curve"/>
      <point x="111" y="384" type="line"/>
      <point x="124" y="369"/>
      <point x="408" y="67"/>
    </contour>
  </outline>
</glyph>
<glyph name="Oslash" format="1">
  <advance width="1735"/>
  <unicode hex="00D8"/>
  <outline>
    <contour>
      <point x="852" y="1595" type="move" name="top"/>
    </contour>
    <contour>
      <point x="1253" y="1311" type="line"/>
      <point x="1497" y="1697" type="line"/>
      <point x="1374" y="1769" type="line"/>
      <point x="1125" y="1375" type="line"/>
    </contour>
    <contour>
      <point x="303" y="-150" type="line"/>
      <point x="499" y="163" type="line"/>
      <point x="383" y="242" type="line"/>
      <point x="184" y="-76" type="line"/>
    </contour>
    <component base="O"/>
  </outline>
</glyph>
<glyph name="Thorn" format="1">
  <advance width="1616"/>
  <unicode hex="00DE"/>
  <outline>
    <contour>
      <point x="185" y="0" type="line"/>
      <point x="707" y="0" type="line"/>
      <point x="707" y="277" type="line"/>
      <point x="860" y="277" type="line" smooth="yes"/>
      <point x="1183" y="277"/>
      <point x="1478" y="336"/>
      <point x="1478" y="679" type="curve" smooth="yes"/>
      <point x="1478" y="990" type="line" smooth="yes"/>
      <point x="1477" y="1334"/>
      <point x="1258" y="1387"/>
      <point x="865" y="1387" type="curve" smooth="yes"/>
      <point x="707" y="1387" type="line"/>
      <point x="707" y="1577" type="line"/>
      <point x="185" y="1577" type="line"/>
    </contour>
    <contour>
      <point x="707" y="496" type="line"/>
      <point x="707" y="1170" type="line"/>
      <point x="884" y="1170" type="line" smooth="yes"/>
      <point x="950" y="1170"/>
      <point x="958" y="886"/>
      <point x="958" y="832" type="curve" smooth="yes"/>
      <point x="958" y="792"/>
      <point x="958" y="496"/>
      <point x="902" y="496" type="curve" smooth="yes"/>
    </contour>
  </outline>
</glyph>
<glyph name="germandbls" format="1">
  <advance width="1497"/>
  <unicode hex="00DF"/>
  <outline>
    <contour>
      <point x="171" y="-201" type="line"/>
      <point x="608" y="-198" type="line"/>
      <point x="608" y="1303" type="line"/>
      <point x="608" y="1351"/>
      <point x="711" y="1354"/>
      <point x="753" y="1354" type="curve" smooth="yes"/>
      <point x="792" y="1354"/>
      <point x="894" y="1347"/>
      <point x="894" y="1314" type="curve" smooth="yes"/>
      <point x="894" y="1285"/>
      <point x="892" y="962"/>
      <point x="874" y="962" type="curve" smooth="yes"/>
      <point x="737" y="962" type="line"/>
      <point x="737" y="747" type="line"/>
      <point x="874" y="747" type="line" smooth="yes"/>
      <point x="908" y="747"/>
      <point x="910" y="510"/>
      <point x="909" y="463" type="curve" smooth="yes"/>
      <point x="907" y="413"/>
      <point x="900" y="187"/>
      <point x="867" y="187" type="curve" smooth="yes"/>
      <point x="709" y="188" type="line"/>
      <point x="709" y="-30" type="line"/>
      <point x="825" y="-30" type="line" smooth="yes"/>
      <point x="1096" y="-30"/>
      <point x="1345" y="6"/>
      <point x="1345" y="282" type="curve" smooth="yes"/>
      <point x="1345" y="537" type="line" smooth="yes"/>
      <point x="1345" y="755"/>
      <point x="1211" y="851"/>
      <point x="1026" y="861" type="curve"/>
      <point x="1204" y="885"/>
      <point x="1274" y="977"/>
      <point x="1274" y="1188" type="curve" smooth="yes"/>
      <point x="1274" y="1486"/>
      <point x="1126" y="1575"/>
      <point x="754" y="1575" type="curve" smooth="yes"/>
      <point x="422" y="1575"/>
      <point x="171" y="1520"/>
      <point x="171" y="1200" type="curve" smooth="yes"/>
    </contour>
  </outline>
</glyph>
<glyph name="ae" format="1">
  <advance width="2108"/>
  <unicode hex="00E6"/>
  <outline>
    <contour>
      <point x="1024" y="1259" type="move" name="top"/>
    </contour>
    <contour>
      <point x="551" y="-32" type="curve" smooth="yes"/>
      <point x="759" y="-32"/>
      <point x="918" y="8"/>
      <point x="1035" y="94" type="curve"/>
      <point x="1114" y="20"/>
      <point x="1223" y="-32"/>
      <point x="1392" y="-32" type="curve" smooth="yes"/>
      <point x="1715" y="-32"/>
      <point x="1961" y="14"/>
      <point x="1973" y="312" type="curve" smooth="yes"/>
      <point x="1975" y="321"/>
      <point x="1976" y="449"/>
      <point x="1977" y="462" type="curve"/>
      <point x="1489" y="468" type="line"/>
      <point x="1488" y="455"/>
      <point x="1489" y="245"/>
      <point x="1485" y="238" type="curve" smooth="yes"/>
      <point x="1481" y="230"/>
      <point x="1414" y="226"/>
      <point x="1392" y="226" type="curve" smooth="yes"/>
      <point x="1365" y="226"/>
      <point x="1294" y="230"/>
      <point x="1287" y="239" type="curve" smooth="yes"/>
      <point x="1281" y="247"/>
      <point x="1280" y="544"/>
      <point x="1280" y="595" type="curve"/>
      <point x="1983" y="595" type="line"/>
      <point x="1983" y="609"/>
      <point x="1983" y="905"/>
      <point x="1982" y="916" type="curve" smooth="yes"/>
      <point x="1979" y="1250"/>
      <point x="1762" y="1302"/>
      <point x="1389" y="1302" type="curve" smooth="yes"/>
      <point x="1234" y="1302"/>
      <point x="1095" y="1250"/>
      <point x="1050" y="1185" type="curve"/>
      <point x="1015" y="1267"/>
      <point x="839" y="1300"/>
      <point x="694" y="1300" type="curve" smooth="yes"/>
      <point x="406" y="1300"/>
      <point x="138" y="1260"/>
      <point x="138" y="979" type="curve" smooth="yes"/>
      <point x="138" y="944"/>
      <point x="142" y="912"/>
      <point x="148" y="881" type="curve"/>
      <point x="597" y="897" type="line"/>
      <point x="598" y="911"/>
      <point x="597" y="1030"/>
      <point x="602" y="1035" type="curve" smooth="yes"/>
      <point x="608" y="1040"/>
      <point x="668" y="1041"/>
      <point x="692" y="1041" type="curve" smooth="yes"/>
      <point x="723" y="1041"/>
      <point x="783" y="1037"/>
      <point x="783" y="1023" type="curve" smooth="yes"/>
      <point x="783" y="747" type="line"/>
      <point x="445" y="747"/>
      <point x="78" y="750"/>
      <point x="78" y="381" type="curve" smooth="yes"/>
      <point x="78" y="91"/>
      <point x="254" y="-32"/>
    </contour>
    <contour>
      <point x="664" y="226" type="curve" smooth="yes"/>
      <point x="647" y="226"/>
      <point x="578" y="228"/>
      <point x="573" y="234" type="curve" smooth="yes"/>
      <point x="569" y="240"/>
      <point x="569" y="533"/>
      <point x="569" y="554" type="curve" smooth="yes"/>
      <point x="569" y="568"/>
      <point x="638" y="576"/>
      <point x="679" y="579" type="curve" smooth="yes"/>
      <point x="691" y="580"/>
      <point x="766" y="580"/>
      <point x="783" y="580" type="curve"/>
      <point x="783" y="264" type="line" smooth="yes"/>
      <point x="783" y="242"/>
      <point x="708" y="226"/>
    </contour>
    <contour>
      <point x="1280" y="772" type="line"/>
      <point x="1281" y="797"/>
      <point x="1280" y="1017"/>
      <point x="1286" y="1028" type="curve" smooth="yes"/>
      <point x="1292" y="1038"/>
      <point x="1362" y="1042"/>
      <point x="1389" y="1042" type="curve" smooth="yes"/>
      <point x="1417" y="1042"/>
      <point x="1483" y="1038"/>
      <point x="1484" y="1022" type="curve" smooth="yes"/>
      <point x="1485" y="1007"/>
      <point x="1486" y="788"/>
      <point x="1486" y="772" type="curve"/>
    </contour>
  </outline>
</glyph>
<glyph name="eth" format="1">
  <advance width="1498"/>
  <unicode hex="00F0"/>
  <outline>
    <contour>
      <point x="747" y="-34" type="curve" smooth="yes"/>
      <point x="1235" y="-34"/>
      <point x="1343" y="256"/>
      <point x="1343" y="736" type="curve" smooth="yes"/>
      <point x="1343" y="1126"/>
      <point x="1213" y="1369"/>
      <point x="1029" y="1536" type="curve"/>
      <point x="1195" y="1661" type="line"/>
      <point x="1126" y="1771" type="line"/>
      <point x="925" y="1621" type="line"/>
      <point x="812" y="1702"/>
      <point x="684" y="1762"/>
      <point x="529" y="1811" type="curve"/>
      <point x="345" y="1512" type="line"/>
      <point x="480" y="1458"/>
      <point x="548" y="1429"/>
      <point x="606" y="1395" type="curve"/>
      <point x="413" y="1253" type="line"/>
      <point x="481" y="1142" type="line"/>
      <point x="714" y="1312" type="line"/>
      <point x="773" y="1256"/>
      <point x="842" y="1171"/>
      <point x="845" y="1041" type="curve"/>
      <point x="841" y="1061"/>
      <point x="704" y="1071"/>
      <point x="660" y="1071" type="curve" smooth="yes"/>
      <point x="286" y="1071"/>
      <point x="142" y="906"/>
      <point x="137" y="569" type="curve" smooth="yes"/>
      <point x="137" y="559"/>
      <point x="136" y="506"/>
      <point x="136" y="496" type="curve" smooth="yes"/>
      <point x="136" y="108"/>
      <point x="334" y="-34"/>
    </contour>
    <contour>
      <point x="741" y="211" type="curve" smooth="yes"/>
      <point x="687" y="211"/>
      <point x="629" y="212"/>
      <point x="629" y="233" type="curve" smooth="yes"/>
      <point x="630" y="805" type="line" smooth="yes"/>
      <point x="630" y="827"/>
      <point x="683" y="830"/>
      <point x="741" y="830" type="curve" smooth="yes"/>
      <point x="792" y="830"/>
      <point x="844" y="818"/>
      <point x="844" y="793" type="curve" smooth="yes"/>
      <point x="844" y="231" type="line" smooth="yes"/>
      <point x="844" y="214"/>
      <point x="794" y="211"/>
    </contour>
  </outline>
</glyph>
<glyph name="divide" format="1">
  <advance width="1107"/>
  <unicode hex="00F7"/>
  <outline>
    <contour>
      <point x="554" y="134" type="curve" smooth="yes"/>
      <point x="640" y="134"/>
      <point x="694" y="203"/>
      <point x="694" y="288" type="curve" smooth="yes"/>
      <point x="694" y="366"/>
      <point x="638" y="442"/>
      <point x="568" y="442" type="curve" smooth="yes"/>
      <point x="467" y="442"/>
      <point x="414" y="383"/>
      <point x="414" y="288" type="curve" smooth="yes"/>
      <point x="414" y="193"/>
      <point x="473" y="134"/>
    </contour>
    <contour>
      <point x="210" y="614" type="line"/>
      <point x="897" y="614" type="line"/>
      <point x="897" y="753" type="line"/>
      <point x="210" y="753" type="line"/>
    </contour>
    <contour>
      <point x="554" y="925" type="curve" smooth="yes"/>
      <point x="642" y="925"/>
      <point x="694" y="991"/>
      <point x="694" y="1079" type="curve" smooth="yes"/>
      <point x="694" y="1157"/>
      <point x="638" y="1233"/>
      <point x="568" y="1233" type="curve" smooth="yes"/>
      <point x="467" y="1233"/>
      <point x="414" y="1175"/>
      <point x="414" y="1079" type="curve" smooth="yes"/>
      <point x="414" y="984"/>
      <point x="472" y="925"/>
    </contour>
  </outline>
</glyph>
<glyph name="oslash" format="1">
  <advance width="1631"/>
  <unicode hex="00F8"/>
  <outline>
    <contour>
      <point x="768" y="1263" type="move" name="top"/>
    </contour>
    <contour>
      <point x="175" y="-30" type="line"/>
      <point x="1415" y="1238" type="line"/>
      <point x="1357" y="1296" type="line"/>
      <point x="117" y="28" type="line"/>
    </contour>
    <component base="o"/>
  </outline>
</glyph>
<glyph name="thorn" format="1">
  <advance width="1517"/>
  <unicode hex="00FE"/>
  <outline>
    <contour>
      <point x="171" y="-407" type="line"/>
      <point x="667" y="-404" type="line"/>
      <point x="667" y="83" type="line"/>
      <point x="713" y="15"/>
      <point x="813" y="-24"/>
      <point x="958" y="-24" type="curve" smooth="yes"/>
      <point x="1255" y="-24"/>
      <point x="1359" y="114"/>
      <point x="1359" y="417" type="curve" smooth="yes"/>
      <point x="1359" y="836" type="line" smooth="yes"/>
      <point x="1359" y="1055"/>
      <point x="1264" y="1292"/>
      <point x="955" y="1292" type="curve" smooth="yes"/>
      <point x="812" y="1292"/>
      <point x="704" y="1270"/>
      <point x="667" y="1190" type="curve"/>
      <point x="667" y="1597" type="line"/>
      <point x="171" y="1594" type="line"/>
    </contour>
    <contour>
      <point x="788" y="190" type="curve" smooth="yes"/>
      <point x="743" y="190"/>
      <point x="668" y="190"/>
      <point x="668" y="232" type="curve" smooth="yes"/>
      <point x="668" y="251"/>
      <point x="668" y="1010"/>
      <point x="668" y="1045" type="curve" smooth="yes"/>
      <point x="668" y="1082"/>
      <point x="737" y="1086"/>
      <point x="792" y="1086" type="curve" smooth="yes"/>
      <point x="834" y="1086"/>
      <point x="905" y="1085"/>
      <point x="905" y="1040" type="curve" smooth="yes"/>
      <point x="905" y="1020"/>
      <point x="905" y="261"/>
      <point x="905" y="239" type="curve" smooth="yes"/>
      <point x="905" y="199"/>
      <point x="833" y="190"/>
    </contour>
  </outline>
</glyph>
<glyph name="Hbar" format="1">
  <advance width="1752"/>
  <unicode hex="0126"/>
  <outline>
    <contour>
      <point x="204" y="0" type="line"/>
      <point x="728" y="0" type="line"/>
      <point x="728" y="687" type="line"/>
      <point x="1016" y="687" type="line"/>
      <point x="1016" y="0" type="line"/>
      <point x="1540" y="0" type="line"/>
      <point x="1540" y="1143" type="line"/>
      <point x="1640" y="1143" type="line"/>
      <point x="1640" y="1317" type="line"/>
      <point x="1540" y="1317" type="line"/>
      <point x="1540" y="1574" type="line"/>
      <point x="1016" y="1574" type="line"/>
      <point x="1016" y="1317" type="line"/>
      <point x="728" y="1317" type="line"/>
      <point x="728" y="1574" type="line"/>
      <point x="204" y="1574" type="line"/>
      <point x="204" y="1317" type="line"/>
      <point x="111" y="1317" type="line"/>
      <point x="111" y="1143" type="line"/>
      <point x="204" y="1143" type="line"/>
    </contour>
    <contour>
      <point x="728" y="919" type="line"/>
      <point x="728" y="1143" type="line"/>
      <point x="1016" y="1143" type="line"/>
      <point x="1016" y="919" type="line"/>
    </contour>
  </outline>
</glyph>
<glyph name="dotlessi" format="1">
  <advance width="893"/>
  <unicode hex="0131"/>
  <outline>
    <contour>
      <point x="441" y="1259" type="move" name="top"/>
    </contour>
    <contour>
      <point x="480" y="0" type="move" name="ogonek"/>
    </contour>
    <contour>
      <point x="205" y="1259" type="line"/>
      <point x="205" y="0" type="line"/>
      <point x="699" y="0" type="line"/>
      <point x="699" y="1259" type="line"/>
    </contour>
  </outline>
</glyph>
<glyph name="kgreenlandic" format="1">
  <advance width="1565"/>
  <unicode hex="0138"/>
  <outline>
    <contour>
      <point x="145" y="0" type="line"/>
      <point x="652" y="0" type="line"/>
      <point x="652" y="342" type="line"/>
      <point x="760" y="472" type="line"/>
      <point x="988" y="0" type="line"/>
      <point x="1491" y="0" type="line"/>
      <point x="1115" y="758" type="line"/>
      <point x="1466" y="1259" type="line"/>
      <point x="952" y="1259" type="line"/>
      <point x="759" y="964" type="line" smooth="yes"/>
      <point x="748" y="951"/>
      <point x="663" y="817"/>
      <point x="651" y="805" type="curve"/>
      <point x="651" y="815"/>
      <point x="652" y="963"/>
      <point x="652" y="973" type="curve" smooth="yes"/>
      <point x="652" y="1259" type="line"/>
      <point x="145" y="1256" type="line"/>
    </contour>
  </outline>
</glyph>
<glyph name="Lslash" format="1">
  <advance width="1201"/>
  <unicode hex="0141"/>
  <outline>
    <contour>
      <point x="40" y="588" type="line"/>
      <point x="933" y="943" type="line"/>
      <point x="933" y="1252" type="line"/>
      <point x="40" y="899" type="line"/>
    </contour>
    <component base="L"/>
  </outline>
</glyph>
<glyph name="lslash" format="1">
  <advance width="899"/>
  <unicode hex="0142"/>
  <outline>
    <contour>
      <point x="63" y="666" type="line"/>
      <point x="876" y="970" type="line"/>
      <point x="876" y="1270" type="line"/>
      <point x="63" y="968" type="line"/>
    </contour>
    <component base="l" xOffset="6"/>
  </outline>
</glyph>
<glyph name="Eng" format="1">
  <advance width="1691"/>
  <unicode hex="014A"/>
  <outline>
    <contour>
      <point x="796" y="-579" type="line"/>
      <point x="1316" y="-579"/>
      <point x="1509" y="-448"/>
      <point x="1509" y="-51" type="curve" smooth="yes"/>
      <point x="1509" y="1574" type="line"/>
      <point x="1118" y="1574" type="line"/>
      <point x="1118" y="739" type="line"/>
      <point x="630" y="1574" type="line"/>
      <point x="175" y="1574" type="line"/>
      <point x="175" y="0" type="line"/>
      <point x="569" y="0" type="line"/>
      <point x="569" y="804" type="line"/>
      <point x="1065" y="12" type="line"/>
      <point x="1067" y="-237" type="line" smooth="yes"/>
      <point x="1031" y="-279"/>
      <point x="957" y="-299"/>
      <point x="798" y="-299" type="curve"/>
    </contour>
  </outline>
</glyph>
<glyph name="eng" format="1">
  <advance width="1546"/>
  <unicode hex="014B"/>
  <outline>
    <contour>
      <point x="625" y="-507" type="line"/>
      <point x="1151" y="-507"/>
      <point x="1384" y="-372"/>
      <point x="1384" y="39" type="curve" smooth="yes"/>
      <point x="1384" y="877" type="line" smooth="yes"/>
      <point x="1384" y="1151"/>
      <point x="1259" y="1286"/>
      <point x="979" y="1287" type="curve" smooth="yes"/>
      <point x="830" y="1287"/>
      <point x="695" y="1235"/>
      <point x="641" y="1145" type="curve"/>
      <point x="607" y="1259" type="line"/>
      <point x="163" y="1259" type="line"/>
      <point x="163" y="0" type="line"/>
      <point x="659" y="0" type="line"/>
      <point x="659" y="1040" type="line" smooth="yes"/>
      <point x="659" y="1069"/>
      <point x="734" y="1082"/>
      <point x="785" y="1082" type="curve" smooth="yes"/>
      <point x="819" y="1082"/>
      <point x="888" y="1078"/>
      <point x="888" y="1017" type="curve" smooth="yes"/>
      <point x="888" y="-165" type="line" smooth="yes"/>
      <point x="852" y="-207"/>
      <point x="778" y="-227"/>
      <point x="619" y="-227" type="curve"/>
    </contour>
  </outline>
</glyph>
<glyph name="OE" format="1">
  <advance width="1917"/>
  <unicode hex="0152"/>
  <outline>
    <contour>
      <point x="966" y="1574" type="move" name="top"/>
    </contour>
    <contour>
      <point x="750" y="-1" type="curve" smooth="yes"/>
      <point x="1830" y="0" type="line"/>
      <point x="1834" y="226" type="line"/>
      <point x="1427" y="226" type="line"/>
      <point x="1427" y="708" type="line"/>
      <point x="1794" y="708" type="line"/>
      <point x="1794" y="940" type="line"/>
      <point x="1427" y="940" type="line"/>
      <point x="1427" y="1350" type="line"/>
      <point x="1832" y="1350" type="line"/>
      <point x="1828" y="1574" type="line"/>
      <point x="750" y="1574" type="line" smooth="yes"/>
      <point x="348" y="1574"/>
      <point x="130" y="1516"/>
      <point x="130" y="1144" type="curve" smooth="yes"/>
      <point x="130" y="1138"/>
      <point x="130" y="448"/>
      <point x="130" y="443" type="curve" smooth="yes"/>
      <point x="131" y="56"/>
      <point x="330" y="-1"/>
    </contour>
    <contour>
      <point x="760" y="216" type="line"/>
      <point x="711" y="216"/>
      <point x="648" y="222"/>
      <point x="643" y="259" type="curve" smooth="yes"/>
      <point x="639" y="284"/>
      <point x="638" y="1242"/>
      <point x="640" y="1310" type="curve" smooth="yes"/>
      <point x="642" y="1349"/>
      <point x="693" y="1358"/>
      <point x="760" y="1358" type="curve" smooth="yes"/>
      <point x="881" y="1358" type="line"/>
      <point x="881" y="216" type="line"/>
    </contour>
  </outline>
</glyph>
<glyph name="oe" format="1">
  <advance width="2235"/>
  <unicode hex="0153"/>
  <outline>
    <contour>
      <point x="1486" y="-22" type="curve" smooth="yes"/>
      <point x="1894" y="-22"/>
      <point x="2093" y="63"/>
      <point x="2094" y="350" type="curve" smooth="yes"/>
      <point x="2094" y="376"/>
      <point x="2092" y="420"/>
      <point x="2088" y="451" type="curve"/>
      <point x="1601" y="452" type="line"/>
      <point x="1599" y="201" type="line" smooth="yes"/>
      <point x="1598" y="189"/>
      <point x="1521" y="183"/>
      <point x="1487" y="183" type="curve" smooth="yes"/>
      <point x="1447" y="183"/>
      <point x="1368" y="187"/>
      <point x="1367" y="205" type="curve" smooth="yes"/>
      <point x="1365" y="225"/>
      <point x="1365" y="571"/>
      <point x="1365" y="593" type="curve"/>
      <point x="2093" y="593" type="line"/>
      <point x="2094" y="889" type="line"/>
      <point x="2093" y="1253"/>
      <point x="1793" y="1281"/>
      <point x="1483" y="1281" type="curve" smooth="yes"/>
      <point x="1352" y="1281"/>
      <point x="1200" y="1249"/>
      <point x="1119" y="1185" type="curve"/>
      <point x="1050" y="1248"/>
      <point x="890" y="1281"/>
      <point x="751" y="1281" type="curve" smooth="yes"/>
      <point x="432" y="1281"/>
      <point x="135" y="1246"/>
      <point x="135" y="879" type="curve" smooth="yes"/>
      <point x="135" y="390" type="line" smooth="yes"/>
      <point x="135" y="11"/>
      <point x="408" y="-22"/>
      <point x="750" y="-22" type="curve" smooth="yes"/>
      <point x="888" y="-22"/>
      <point x="1054" y="9"/>
      <point x="1125" y="72" type="curve"/>
      <point x="1204" y="10"/>
      <point x="1354" y="-22"/>
    </contour>
    <contour>
      <point x="751" y="206" type="curve" smooth="yes"/>
      <point x="716" y="206"/>
      <point x="634" y="210"/>
      <point x="634" y="224" type="curve"/>
      <point x="633" y="1061" type="line"/>
      <point x="633" y="1080"/>
      <point x="727" y="1080"/>
      <point x="751" y="1080" type="curve" smooth="yes"/>
      <point x="775" y="1080"/>
      <point x="868" y="1080"/>
      <point x="868" y="1061" type="curve" smooth="yes"/>
      <point x="868" y="224" type="line" smooth="yes"/>
      <point x="868" y="209"/>
      <point x="786" y="206"/>
    </contour>
    <contour>
      <point x="1365" y="753" type="line"/>
      <point x="1366" y="766"/>
      <point x="1365" y="1047"/>
      <point x="1369" y="1061" type="curve" smooth="yes"/>
      <point x="1373" y="1076"/>
      <point x="1444" y="1080"/>
      <point x="1484" y="1080" type="curve" smooth="yes"/>
      <point x="1518" y="1080"/>
      <point x="1596" y="1076"/>
      <point x="1597" y="1060" type="curve" smooth="yes"/>
      <point x="1598" y="1044"/>
      <point x="1599" y="766"/>
      <point x="1599" y="753" type="curve"/>
    </contour>
  </outline>
</glyph>
<glyph name="florin" format="1">
  <advance width="1036"/>
  <unicode hex="0192"/>
  <outline>
    <contour>
      <point x="367" y="-319" type="curve" smooth="yes"/>
      <point x="553" y="-315"/>
      <point x="580" y="-222"/>
      <point x="580" y="-56" type="curve" smooth="yes"/>
      <point x="580" y="757" type="line"/>
      <point x="778" y="757" type="line"/>
      <point x="778" y="887" type="line"/>
      <point x="580" y="887" type="line"/>
      <point x="579" y="1256" type="line" smooth="yes"/>
      <point x="579" y="1372"/>
      <point x="579" y="1392"/>
      <point x="710" y="1392" type="curve" smooth="yes"/>
      <point x="736" y="1392"/>
      <point x="762" y="1391"/>
      <point x="788" y="1389" type="curve"/>
      <point x="788" y="1543" type="line"/>
      <point x="725" y="1555"/>
      <point x="665" y="1561"/>
      <point x="612" y="1561" type="curve" smooth="yes"/>
      <point x="450" y="1561"/>
      <point x="381" y="1484"/>
      <point x="382" y="1259" type="curve" smooth="yes"/>
      <point x="383" y="887" type="line"/>
      <point x="221" y="887" type="line"/>
      <point x="221" y="757" type="line"/>
      <point x="383" y="757" type="line"/>
      <point x="383" y="-167" type="line"/>
      <point x="215" y="-167" type="line"/>
      <point x="215" y="-299" type="line"/>
      <point x="305" y="-315"/>
      <point x="339" y="-319"/>
    </contour>
  </outline>
</glyph>
<glyph name="dotlessj" format="1">
  <advance width="1094"/>
  <unicode hex="0237"/>
  <outline>
    <contour>
      <point x="584" y="1259" type="move" name="top"/>
    </contour>
    <contour>
      <point x="339" y="1259" type="line"/>
      <point x="339" y="-66" type="line" smooth="yes"/>
      <point x="339" y="-90"/>
      <point x="170" y="-86"/>
      <point x="154" y="-87" type="curve"/>
      <point x="179" y="-303" type="line"/>
      <point x="252" y="-317"/>
      <point x="323" y="-321"/>
      <point x="416" y="-321" type="curve" smooth="yes"/>
      <point x="693" y="-321"/>
      <point x="836" y="-199"/>
      <point x="836" y="87" type="curve" smooth="yes"/>
      <point x="836" y="1259" type="line"/>
    </contour>
  </outline>
</glyph>
<glyph name="apostrophemod" format="1">
  <advance width="930"/>
  <unicode hex="02BC"/>
  <outline>
    <contour>
      <point x="357" y="1495" type="curve" smooth="yes"/>
      <point x="598" y="1495"/>
      <point x="686" y="1709"/>
      <point x="686" y="1890" type="curve" smooth="yes"/>
      <point x="686" y="2012"/>
      <point x="622" y="2118"/>
      <point x="489" y="2118" type="curve" smooth="yes"/>
      <point x="389" y="2118"/>
      <point x="297" y="2050"/>
      <point x="297" y="1927" type="curve" smooth="yes"/>
      <point x="297" y="1807"/>
      <point x="377" y="1737"/>
      <point x="469" y="1729" type="curve"/>
      <point x="464" y="1649"/>
      <point x="391" y="1600"/>
      <point x="310" y="1599" type="curve"/>
      <point x="310" y="1499" type="line"/>
      <point x="324" y="1496"/>
      <point x="340" y="1495"/>
    </contour>
  </outline>
</glyph>
<glyph name="circumflex" format="1">
  <advance width="1215"/>
  <unicode hex="02C6"/>
  <outline>
    <contour>
      <point x="710" y="1259" type="move" name="_top"/>
    </contour>
    <contour>
      <point x="1091" y="1403" type="curve" smooth="yes"/>
      <point x="1111" y="1422"/>
      <point x="1115" y="1456"/>
      <point x="1092" y="1492" type="curve" smooth="yes"/>
      <point x="843" y="1881" type="line" smooth="yes"/>
      <point x="812" y="1930"/>
      <point x="761" y="1949"/>
      <point x="712" y="1949" type="curve" smooth="yes"/>
      <point x="661" y="1949"/>
      <point x="609" y="1927"/>
      <point x="579" y="1881" type="curve" smooth="yes"/>
      <point x="330" y="1492" type="line" smooth="yes"/>
      <point x="306" y="1455"/>
      <point x="312" y="1422"/>
      <point x="332" y="1404" type="curve" smooth="yes"/>
      <point x="354" y="1385"/>
      <point x="391" y="1381"/>
      <point x="422" y="1406" type="curve" smooth="yes"/>
      <point x="711" y="1641" type="line"/>
      <point x="1000" y="1406" type="line" smooth="yes"/>
      <point x="1032" y="1380"/>
      <point x="1069" y="1382"/>
    </contour>
  </outline>
</glyph>
<glyph name="caron" format="1">
  <advance width="1215"/>
  <unicode hex="02C7"/>
  <outline>
    <contour>
      <point x="710" y="1259" type="move" name="_top"/>
    </contour>
    <contour>
      <point x="712" y="1380" type="curve" smooth="yes"/>
      <point x="761" y="1380"/>
      <point x="812" y="1399"/>
      <point x="843" y="1448" type="curve" smooth="yes"/>
      <point x="1092" y="1837" type="line" smooth="yes"/>
      <point x="1115" y="1873"/>
      <point x="1111" y="1907"/>
      <point x="1091" y="1925" type="curve" smooth="yes"/>
      <point x="1070" y="1946"/>
      <point x="1031" y="1949"/>
      <point x="1000" y="1923" type="curve" smooth="yes"/>
      <point x="711" y="1687" type="line"/>
      <point x="422" y="1923" type="line" smooth="yes"/>
      <point x="391" y="1948"/>
      <point x="354" y="1944"/>
      <point x="333" y="1925" type="curve" smooth="yes"/>
      <point x="312" y="1906"/>
      <point x="306" y="1873"/>
      <point x="330" y="1837" type="curve" smooth="yes"/>
      <point x="579" y="1448" type="line" smooth="yes"/>
      <point x="609" y="1401"/>
      <point x="661" y="1380"/>
    </contour>
  </outline>
</glyph>
<glyph name="uni02C9" format="1">
  <advance width="1183"/>
  <unicode hex="02C9"/>
  <outline>
    <contour>
      <point x="689" y="1259" type="move" name="_top"/>
    </contour>
    <contour>
      <point x="299" y="1680" type="line"/>
      <point x="299" y="1470" type="line"/>
      <point x="1085" y="1470" type="line"/>
      <point x="1085" y="1680" type="line"/>
    </contour>
  </outline>
</glyph>
<glyph name="breve" format="1">
  <advance width="1245"/>
  <unicode hex="02D8"/>
  <outline>
    <contour>
      <point x="730" y="1259" type="move" name="_top"/>
    </contour>
    <contour>
      <point x="895" y="1819" type="line"/>
      <point x="895" y="1697"/>
      <point x="845" y="1642"/>
      <point x="734" y="1642" type="curve" smooth="yes"/>
      <point x="624" y="1642"/>
      <point x="573" y="1697"/>
      <point x="573" y="1819" type="curve"/>
      <point x="308" y="1819" type="line"/>
      <point x="308" y="1536"/>
      <point x="442" y="1406"/>
      <point x="734" y="1406" type="curve" smooth="yes"/>
      <point x="1027" y="1406"/>
      <point x="1161" y="1536"/>
      <point x="1161" y="1819" type="curve"/>
    </contour>
  </outline>
</glyph>
<glyph name="dotaccent" format="1">
  <advance width="991"/>
  <unicode hex="02D9"/>
  <outline>
    <contour>
      <point x="559" y="1259" type="move" name="_top"/>
    </contour>
    <contour>
      <point x="559" y="1443" type="curve" smooth="yes"/>
      <point x="713" y="1443"/>
      <point x="803" y="1498"/>
      <point x="803" y="1630" type="curve" smooth="yes"/>
      <point x="803" y="1762"/>
      <point x="713" y="1817"/>
      <point x="559" y="1817" type="curve" smooth="yes"/>
      <point x="405" y="1817"/>
      <point x="315" y="1762"/>
      <point x="315" y="1630" type="curve" smooth="yes"/>
      <point x="315" y="1499"/>
      <point x="404" y="1443"/>
    </contour>
  </outline>
</glyph>
<glyph name="ring" format="1">
  <advance width="1099"/>
  <unicode hex="02DA"/>
  <outline>
    <contour>
      <point x="631" y="1259" type="move" name="_top"/>
    </contour>
    <contour>
      <point x="315" y="1698" type="curve" smooth="yes"/>
      <point x="315" y="1509"/>
      <point x="436" y="1392"/>
      <point x="631" y="1392" type="curve" smooth="yes"/>
      <point x="827" y="1392"/>
      <point x="950" y="1509"/>
      <point x="950" y="1698" type="curve" smooth="yes"/>
      <point x="950" y="1887"/>
      <point x="827" y="2007"/>
      <point x="631" y="2007" type="curve" smooth="yes"/>
      <point x="437" y="2007"/>
      <point x="315" y="1887"/>
    </contour>
    <contour>
      <point x="771" y="1697" type="curve" smooth="yes"/>
      <point x="771" y="1607"/>
      <point x="719" y="1553"/>
      <point x="631" y="1553" type="curve" smooth="yes"/>
      <point x="543" y="1553"/>
      <point x="490" y="1607"/>
      <point x="490" y="1698" type="curve" smooth="yes"/>
      <point x="490" y="1789"/>
      <point x="542" y="1844"/>
      <point x="631" y="1844" type="curve" smooth="yes"/>
      <point x="719" y="1844"/>
      <point x="771" y="1790"/>
    </contour>
  </outline>
</glyph>
<glyph name="ogonek" format="1">
  <advance width="1002"/>
  <unicode hex="02DB"/>
  <outline>
    <contour>
      <point x="613" y="0" type="move" name="_ogonek"/>
    </contour>
    <contour>
      <point x="547" y="0" type="line"/>
      <point x="371" y="-123"/>
      <point x="323" y="-242"/>
      <point x="323" y="-329" type="curve" smooth="yes"/>
      <point x="323" y="-474"/>
      <point x="468" y="-572"/>
      <point x="658" y="-572" type="curve" smooth="yes"/>
      <point x="729" y="-572"/>
      <point x="794" y="-552"/>
      <point x="835" y="-534" type="curve"/>
      <point x="798" y="-351" type="line"/>
      <point x="774" y="-358"/>
      <point x="747" y="-363"/>
      <point x="720" y="-363" type="curve" smooth="yes"/>
      <point x="640" y="-363"/>
      <point x="565" y="-324"/>
      <point x="565" y="-229" type="curve" smooth="yes"/>
      <point x="565" y="-161"/>
      <point x="606" y="-79"/>
      <point x="697" y="0" type="curve"/>
    </contour>
  </outline>
</glyph>
<glyph name="tilde" format="1">
  <advance width="1373"/>
  <unicode hex="02DC"/>
  <outline>
    <contour>
      <point x="706" y="1259" type="move" name="_top"/>
    </contour>
    <contour>
      <point x="933" y="1390" type="curve" smooth="yes"/>
      <point x="1086" y="1390"/>
      <point x="1197" y="1571"/>
      <point x="1221" y="1692" type="curve"/>
      <point x="1118" y="1798" type="line"/>
      <point x="1061" y="1725"/>
      <point x="1032" y="1687"/>
      <point x="953" y="1687" type="curve" smooth="yes"/>
      <point x="853" y="1687"/>
      <point x="725" y="1813"/>
      <point x="553" y="1813" type="curve" smooth="yes"/>
      <point x="356" y="1813"/>
      <point x="251" y="1704"/>
      <point x="198" y="1532" type="curve"/>
      <point x="284" y="1427" type="line"/>
      <point x="334" y="1493"/>
      <point x="394" y="1534"/>
      <point x="483" y="1534" type="curve" smooth="yes"/>
      <point x="650" y="1534"/>
      <point x="765" y="1390"/>
    </contour>
  </outline>
</glyph>
<glyph name="hungarumlaut" format="1">
  <advance width="1647"/>
  <unicode hex="02DD"/>
  <outline>
    <contour>
      <point x="789" y="1259" type="move" name="_top"/>
    </contour>
    <contour>
      <point x="394" y="1366" type="curve"/>
      <point x="559" y="1416"/>
      <point x="862" y="1501"/>
      <point x="950" y="1551" type="curve" smooth="yes"/>
      <point x="1025" y="1593"/>
      <point x="1057" y="1658"/>
      <point x="1057" y="1718" type="curve" smooth="yes"/>
      <point x="1057" y="1803"/>
      <point x="993" y="1880"/>
      <point x="897" y="1880" type="curve" smooth="yes"/>
      <point x="861" y="1880"/>
      <point x="821" y="1868"/>
      <point x="781" y="1843" type="curve" smooth="yes"/>
      <point x="692" y="1791"/>
      <point x="473" y="1573"/>
      <point x="342" y="1454" type="curve"/>
      <point x="311" y="1426"/>
      <point x="310" y="1395"/>
      <point x="325" y="1379" type="curve"/>
      <point x="338" y="1365"/>
      <point x="367" y="1356"/>
    </contour>
    <contour>
      <point x="1035" y="1366" type="curve"/>
      <point x="1199" y="1416"/>
      <point x="1503" y="1501"/>
      <point x="1591" y="1551" type="curve" smooth="yes"/>
      <point x="1666" y="1593"/>
      <point x="1698" y="1658"/>
      <point x="1698" y="1718" type="curve" smooth="yes"/>
      <point x="1698" y="1803"/>
      <point x="1634" y="1880"/>
      <point x="1538" y="1880" type="curve" smooth="yes"/>
      <point x="1501" y="1880"/>
      <point x="1462" y="1868"/>
      <point x="1421" y="1843" type="curve" smooth="yes"/>
      <point x="1333" y="1791"/>
      <point x="1113" y="1573"/>
      <point x="983" y="1454" type="curve"/>
      <point x="951" y="1426"/>
      <point x="950" y="1393"/>
      <point x="966" y="1377" type="curve"/>
      <point x="980" y="1364"/>
      <point x="1009" y="1357"/>
    </contour>
  </outline>
</glyph>
<glyph name="uni0307" format="1">
  <advance width="895"/>
  <unicode hex="0307"/>
  <outline>
    <contour>
      <point x="441" y="1280" type="move" name="_top"/>
    </contour>
    <contour>
      <point x="446" y="1231" type="curve" smooth="yes"/>
      <point x="546" y="1231"/>
      <point x="643" y="1301"/>
      <point x="643" y="1435" type="curve" smooth="yes"/>
      <point x="643" y="1570"/>
      <point x="546" y="1640"/>
      <point x="446" y="1640" type="curve" smooth="yes"/>
      <point x="345" y="1640"/>
      <point x="248" y="1570"/>
      <point x="248" y="1435" type="curve" smooth="yes"/>
      <point x="248" y="1301"/>
      <point x="346" y="1231"/>
    </contour>
  </outline>
</glyph>
<glyph name="dblgravecmb" format="1">
  <advance width="1647"/>
  <unicode hex="030F"/>
  <outline>
    <contour>
      <point x="1202" y="1259" type="move" name="_top"/>
    </contour>
    <contour>
      <point x="972" y="1366" type="curve" smooth="yes"/>
      <point x="999" y="1357"/>
      <point x="1027" y="1364"/>
      <point x="1041" y="1377" type="curve"/>
      <point x="1057" y="1394"/>
      <point x="1057" y="1425"/>
      <point x="1024" y="1454" type="curve"/>
      <point x="894" y="1573"/>
      <point x="674" y="1791"/>
      <point x="586" y="1843" type="curve" smooth="yes"/>
      <point x="545" y="1868"/>
      <point x="506" y="1880"/>
      <point x="469" y="1880" type="curve" smooth="yes"/>
      <point x="374" y="1880"/>
      <point x="309" y="1803"/>
      <point x="309" y="1718" type="curve" smooth="yes"/>
      <point x="309" y="1658"/>
      <point x="342" y="1593"/>
      <point x="416" y="1551" type="curve" smooth="yes"/>
      <point x="505" y="1501"/>
      <point x="808" y="1416"/>
    </contour>
    <contour>
      <point x="1613" y="1366" type="curve" smooth="yes"/>
      <point x="1641" y="1356"/>
      <point x="1669" y="1364"/>
      <point x="1683" y="1379" type="curve"/>
      <point x="1698" y="1395"/>
      <point x="1697" y="1426"/>
      <point x="1665" y="1454" type="curve"/>
      <point x="1535" y="1573"/>
      <point x="1315" y="1791"/>
      <point x="1227" y="1843" type="curve" smooth="yes"/>
      <point x="1186" y="1868"/>
      <point x="1147" y="1880"/>
      <point x="1110" y="1880" type="curve" smooth="yes"/>
      <point x="1014" y="1880"/>
      <point x="950" y="1803"/>
      <point x="950" y="1718" type="curve" smooth="yes"/>
      <point x="950" y="1658"/>
      <point x="983" y="1593"/>
      <point x="1057" y="1551" type="curve" smooth="yes"/>
      <point x="1145" y="1501"/>
      <point x="1449" y="1416"/>
    </contour>
  </outline>
</glyph>
<glyph name="breveinvertedcomb" format="1">
  <advance width="1318"/>
  <unicode hex="0311"/>
  <outline>
    <contour>
      <point x="783" y="1280" type="move" name="_top"/>
    </contour>
    <contour>
      <point x="342" y="1422" type="curve"/>
      <point x="624" y="1422" type="line"/>
      <point x="624" y="1544"/>
      <point x="675" y="1600"/>
      <point x="787" y="1600" type="curve" smooth="yes"/>
      <point x="898" y="1600"/>
      <point x="950" y="1544"/>
      <point x="950" y="1422" type="curve"/>
      <point x="1231" y="1422" type="line"/>
      <point x="1231" y="1714"/>
      <point x="1091" y="1849"/>
      <point x="787" y="1849" type="curve" smooth="yes"/>
      <point x="482" y="1849"/>
      <point x="342" y="1714"/>
    </contour>
  </outline>
</glyph>
<glyph name="commaturnedabovecomb" format="1">
  <advance width="930"/>
  <unicode hex="0312"/>
  <outline>
    <contour>
      <point x="521" y="1259" type="move" name="_top"/>
    </contour>
    <contour>
      <point x="523" y="1397" type="curve" smooth="yes"/>
      <point x="624" y="1397"/>
      <point x="717" y="1471"/>
      <point x="717" y="1589" type="curve" smooth="yes"/>
      <point x="717" y="1714"/>
      <point x="639" y="1781"/>
      <point x="545" y="1790" type="curve"/>
      <point x="550" y="1870"/>
      <point x="616" y="1919"/>
      <point x="696" y="1920" type="curve"/>
      <point x="696" y="2020" type="line"/>
      <point x="494" y="2020"/>
      <point x="320" y="1840"/>
      <point x="320" y="1633" type="curve" smooth="yes"/>
      <point x="320" y="1503"/>
      <point x="387" y="1397"/>
    </contour>
  </outline>
</glyph>
<glyph name="commaaccent" format="1">
  <advance width="910"/>
  <unicode hex="0326"/>
  <outline>
    <contour>
      <point x="509" y="0" type="move" name="_bot"/>
    </contour>
    <contour>
      <point x="334" y="-726" type="line"/>
      <point x="551" y="-726"/>
      <point x="709" y="-564"/>
      <point x="709" y="-356" type="curve" smooth="yes"/>
      <point x="709" y="-227"/>
      <point x="644" y="-136"/>
      <point x="508" y="-136" type="curve" smooth="yes"/>
      <point x="407" y="-136"/>
      <point x="313" y="-191"/>
      <point x="313" y="-315" type="curve" smooth="yes"/>
      <point x="313" y="-436"/>
      <point x="391" y="-487"/>
      <point x="484" y="-496" type="curve"/>
      <point x="479" y="-576"/>
      <point x="413" y="-626"/>
      <point x="334" y="-627" type="curve"/>
    </contour>
  </outline>
</glyph>
<glyph name="Delta" format="1">
  <advance width="1528"/>
  <unicode hex="0394"/>
  <outline>
    <contour>
      <point x="102" y="0" type="line"/>
      <point x="1465" y="0" type="line"/>
      <point x="881" y="1584" type="line"/>
      <point x="674" y="1584" type="line"/>
    </contour>
    <contour>
      <point x="310" y="234" type="line"/>
      <point x="706" y="1381" type="line"/>
      <point x="1104" y="234" type="line"/>
    </contour>
  </outline>
</glyph>
<glyph name="Sigma" format="1">
  <advance width="1375"/>
  <unicode hex="03A3"/>
  <outline>
    <contour>
      <point x="167" y="0" type="line"/>
      <point x="1282" y="0" type="line"/>
      <point x="1282" y="281" type="line"/>
      <point x="689" y="281" type="line"/>
      <point x="1081" y="734" type="line"/>
      <point x="1081" y="827" type="line"/>
      <point x="678" y="1304" type="line"/>
      <point x="1234" y="1304" type="line"/>
      <point x="1234" y="1574" type="line"/>
      <point x="167" y="1574" type="line"/>
      <point x="167" y="1305" type="line"/>
      <point x="583" y="823" type="line"/>
      <point x="167" y="300" type="line"/>
    </contour>
  </outline>
</glyph>
